Roman_opsz8_wght700.ufo
<glyph name="exclam" format="2">
	<unicode hex="0021"/>
	<advance width="744"/>
	<outline>
		<contour>
			<point x="372" y="458" type="curve" smooth="yes"/>
			<point x="422" y="458"/>
			<point x="424" y="470"/>
			<point x="430" y="512" type="curve" smooth="yes"/>
			<point x="530" y="1250"/>
			<point x="532" y="1260"/>
			<point x="532" y="1268" type="curve"/>
			<point x="532" y="1368"/>
			<point x="444" y="1416"/>
			<point x="372" y="1416" type="curve" smooth="yes"/>
			<point x="300" y="1416"/>
			<point x="212" y="1366"/>
			<point x="212" y="1268" type="curve"/>
			<point x="212" y="1260"/>
			<point x="213" y="1252"/>
			<point x="314" y="514" type="curve" smooth="yes"/>
			<point x="320" y="468"/>
			<point x="322" y="458"/>
		</contour>
		<contour>
			<point x="372" y="0" type="curve" smooth="yes"/>
			<point x="460" y="0"/>
			<point x="532" y="72"/>
			<point x="532" y="160" type="curve" smooth="yes"/>
			<point x="532" y="248"/>
			<point x="460" y="320"/>
			<point x="372" y="320" type="curve" smooth="yes"/>
			<point x="284" y="320"/>
			<point x="212" y="248"/>
			<point x="212" y="160" type="curve" smooth="yes"/>
			<point x="212" y="72"/>
			<point x="284" y="0"/>
		</contour>
	</outline>
</glyph>
<glyph name="numbersign" format="2">
	<unicode hex="0023"/>
	<advance width="2040"/>
	<outline>
		<contour>
			<point x="476" y="-388" type="curve" smooth="yes"/>
			<point x="520" y="-388"/>
			<point x="538" y="-354"/>
			<point x="546" y="-328" type="curve" smooth="yes"/>
			<point x="716" y="190" type="line"/>
			<point x="1118" y="190" type="line"/>
			<point x="1066" y="33"/>
			<point x="1014" y="-124"/>
			<point x="962" y="-282" type="curve" smooth="yes"/>
			<point x="952" y="-310"/>
			<point x="952" y="-314"/>
			<point x="952" y="-320" type="curve" smooth="yes"/>
			<point x="952" y="-358"/>
			<point x="982" y="-388"/>
			<point x="1020" y="-388" type="curve" smooth="yes"/>
			<point x="1064" y="-388"/>
			<point x="1082" y="-354"/>
			<point x="1090" y="-328" type="curve" smooth="yes"/>
			<point x="1260" y="190" type="line"/>
			<point x="1804" y="190" type="line" smooth="yes"/>
			<point x="1832" y="190"/>
			<point x="1904" y="190"/>
			<point x="1904" y="258" type="curve" smooth="yes"/>
			<point x="1904" y="326"/>
			<point x="1840" y="326"/>
			<point x="1816" y="326" type="curve" smooth="yes"/>
			<point x="1308" y="326" type="line"/>
			<point x="1420" y="674" type="line"/>
			<point x="1816" y="674" type="line" smooth="yes"/>
			<point x="1840" y="674"/>
			<point x="1904" y="674"/>
			<point x="1904" y="742" type="curve" smooth="yes"/>
			<point x="1904" y="810"/>
			<point x="1832" y="810"/>
			<point x="1804" y="810" type="curve" smooth="yes"/>
			<point x="1466" y="810" type="line"/>
			<point x="1622" y="1282" type="line" smooth="yes"/>
			<point x="1632" y="1310"/>
			<point x="1632" y="1314"/>
			<point x="1632" y="1320" type="curve" smooth="yes"/>
			<point x="1632" y="1358"/>
			<point x="1602" y="1388"/>
			<point x="1564" y="1388" type="curve" smooth="yes"/>
			<point x="1520" y="1388"/>
			<point x="1502" y="1354"/>
			<point x="1494" y="1328" type="curve" smooth="yes"/>
			<point x="1324" y="810" type="line"/>
			<point x="922" y="810" type="line"/>
			<point x="1078" y="1282" type="line" smooth="yes"/>
			<point x="1088" y="1310"/>
			<point x="1088" y="1314"/>
			<point x="1088" y="1320" type="curve" smooth="yes"/>
			<point x="1088" y="1358"/>
			<point x="1058" y="1388"/>
			<point x="1020" y="1388" type="curve" smooth="yes"/>
			<point x="976" y="1388"/>
			<point x="958" y="1354"/>
			<point x="950" y="1328" type="curve" smooth="yes"/>
			<point x="780" y="810" type="line"/>
			<point x="236" y="810" type="line" smooth="yes"/>
			<point x="208" y="810"/>
			<point x="136" y="810"/>
			<point x="136" y="742" type="curve" smooth="yes"/>
			<point x="136" y="674"/>
			<point x="200" y="674"/>
			<point x="224" y="674" type="curve" smooth="yes"/>
			<point x="732" y="674" type="line"/>
			<point x="620" y="326" type="line"/>
			<point x="224" y="326" type="line" smooth="yes"/>
			<point x="200" y="326"/>
			<point x="136" y="326"/>
			<point x="136" y="258" type="curve" smooth="yes"/>
			<point x="136" y="190"/>
			<point x="208" y="190"/>
			<point x="236" y="190" type="curve" smooth="yes"/>
			<point x="574" y="190" type="line"/>
			<point x="522" y="33"/>
			<point x="470" y="-124"/>
			<point x="418" y="-282" type="curve" smooth="yes"/>
			<point x="408" y="-310"/>
			<point x="408" y="-314"/>
			<point x="408" y="-320" type="curve" smooth="yes"/>
			<point x="408" y="-358"/>
			<point x="438" y="-388"/>
		</contour>
		<contour>
			<point x="764" y="326" type="line"/>
			<point x="876" y="674" type="line"/>
			<point x="1276" y="674" type="line"/>
			<point x="1164" y="326" type="line"/>
		</contour>
	</outline>
</glyph>
<glyph name="dollar" format="2">
	<unicode hex="0024"/>
	<advance width="1224"/>
	<outline>
		<contour>
			<point x="560" y="-112" type="line"/>
			<point x="664" y="-112" type="line"/>
			<point x="664" y="-12" type="line"/>
			<point x="1000" y="18"/>
			<point x="1088" y="260"/>
			<point x="1088" y="422" type="curve" smooth="yes"/>
			<point x="1088" y="502"/>
			<point x="1061" y="624"/>
			<point x="963" y="722" type="curve" smooth="yes"/>
			<point x="898" y="786"/>
			<point x="803" y="839"/>
			<point x="664" y="862" type="curve"/>
			<point x="664" y="1296" type="line"/>
			<point x="834" y="1282"/>
			<point x="908" y="1222"/>
			<point x="940" y="1170" type="curve"/>
			<point x="940" y="1170"/>
			<point x="940" y="1170"/>
			<point x="940" y="1170" type="curve"/>
			<point x="846" y="1156"/>
			<point x="818" y="1090"/>
			<point x="818" y="1036" type="curve" smooth="yes"/>
			<point x="818" y="946"/>
			<point x="890" y="900"/>
			<point x="952" y="900" type="curve" smooth="yes"/>
			<point x="1000" y="900"/>
			<point x="1088" y="930"/>
			<point x="1088" y="1042" type="curve" smooth="yes"/>
			<point x="1088" y="1240"/>
			<point x="940" y="1386"/>
			<point x="664" y="1400" type="curve"/>
			<point x="664" y="1500" type="line"/>
			<point x="560" y="1500" type="line"/>
			<point x="560" y="1400" type="line"/>
			<point x="252" y="1378"/>
			<point x="136" y="1172"/>
			<point x="136" y="994" type="curve" smooth="yes"/>
			<point x="136" y="862"/>
			<point x="202" y="768"/>
			<point x="266" y="708" type="curve" smooth="yes"/>
			<point x="368" y="618"/>
			<point x="472" y="598"/>
			<point x="560" y="580" type="curve"/>
			<point x="560" y="92" type="line"/>
			<point x="450" y="102"/>
			<point x="338" y="136"/>
			<point x="280" y="244" type="curve"/>
			<point x="280" y="244"/>
			<point x="280" y="244"/>
			<point x="280" y="244" type="curve"/>
			<point x="344" y="250"/>
			<point x="406" y="298"/>
			<point x="406" y="380" type="curve" smooth="yes"/>
			<point x="406" y="458"/>
			<point x="350" y="514"/>
			<point x="272" y="514" type="curve" smooth="yes"/>
			<point x="204" y="514"/>
			<point x="136" y="472"/>
			<point x="136" y="372" type="curve" smooth="yes"/>
			<point x="136" y="212"/>
			<point x="234" y="10"/>
			<point x="560" y="-12" type="curve"/>
		</contour>
		<contour>
			<point x="560" y="884" type="line"/>
			<point x="380" y="916"/>
			<point x="308" y="1006"/>
			<point x="308" y="1090" type="curve" smooth="yes"/>
			<point x="308" y="1196"/>
			<point x="396" y="1282"/>
			<point x="560" y="1296" type="curve"/>
		</contour>
		<contour>
			<point x="664" y="92" type="curve"/>
			<point x="664" y="247"/>
			<point x="664" y="402"/>
			<point x="664" y="558" type="curve"/>
			<point x="808" y="536"/>
			<point x="916" y="446"/>
			<point x="916" y="324" type="curve" smooth="yes"/>
			<point x="916" y="206"/>
			<point x="826" y="108"/>
		</contour>
	</outline>
</glyph>
<glyph name="percent" format="2">
	<unicode hex="0025"/>
	<advance width="1020"/>
	<outline>
		<contour>
			<point x="838" y="690" type="line" smooth="yes"/>
			<point x="846" y="700"/>
			<point x="850" y="704"/>
			<point x="850" y="716" type="curve" smooth="yes"/>
			<point x="850" y="735"/>
			<point x="835" y="750"/>
			<point x="816" y="750" type="curve" smooth="yes"/>
			<point x="801" y="750"/>
			<point x="794" y="742"/>
			<point x="785" y="732" type="curve" smooth="yes"/>
			<point x="737" y="678"/>
			<point x="670" y="643"/>
			<point x="576" y="643" type="curve" smooth="yes"/>
			<point x="513" y="643"/>
			<point x="428" y="660"/>
			<point x="339" y="721" type="curve" smooth="yes"/>
			<point x="322" y="733"/>
			<point x="296" y="750"/>
			<point x="250" y="750" type="curve" smooth="yes"/>
			<point x="152" y="750"/>
			<point x="68" y="679"/>
			<point x="68" y="549" type="curve" smooth="yes"/>
			<point x="68" y="413"/>
			<point x="156" y="347"/>
			<point x="250" y="347" type="curve" smooth="yes"/>
			<point x="333" y="347"/>
			<point x="408" y="411"/>
			<point x="408" y="549" type="curve" smooth="yes"/>
			<point x="408" y="589"/>
			<point x="401" y="623"/>
			<point x="394" y="642" type="curve"/>
			<point x="457" y="614"/>
			<point x="525" y="601"/>
			<point x="577" y="601" type="curve" smooth="yes"/>
			<point x="608" y="601"/>
			<point x="654" y="607"/>
			<point x="692" y="620" type="curve"/>
			<point x="692" y="620" type="line"/>
			<point x="184" y="7" type="line" smooth="yes"/>
			<point x="175" y="-3"/>
			<point x="170" y="-10"/>
			<point x="170" y="-22" type="curve" smooth="yes"/>
			<point x="170" y="-40"/>
			<point x="186" y="-56"/>
			<point x="204" y="-56" type="curve" smooth="yes"/>
			<point x="210" y="-56"/>
			<point x="222" y="-54"/>
			<point x="234" y="-40" type="curve" smooth="yes"/>
		</contour>
		<contour>
			<point x="253" y="389" type="curve" smooth="yes"/>
			<point x="179" y="389"/>
			<point x="179" y="487"/>
			<point x="179" y="548" type="curve" smooth="yes"/>
			<point x="179" y="611"/>
			<point x="179" y="708"/>
			<point x="253" y="708" type="curve" smooth="yes"/>
			<point x="294" y="708"/>
			<point x="352" y="670"/>
			<point x="352" y="549" type="curve" smooth="yes"/>
			<point x="352" y="421"/>
			<point x="290" y="389"/>
		</contour>
		<contour>
			<point x="797" y="-14" type="curve" smooth="yes"/>
			<point x="723" y="-14"/>
			<point x="723" y="84"/>
			<point x="723" y="146" type="curve" smooth="yes"/>
			<point x="723" y="207"/>
			<point x="723" y="305"/>
			<point x="797" y="305" type="curve" smooth="yes"/>
			<point x="835" y="305"/>
			<point x="896" y="272"/>
			<point x="896" y="145" type="curve" smooth="yes"/>
			<point x="896" y="23"/>
			<point x="838" y="-14"/>
		</contour>
		<contour>
			<point x="952" y="145" type="curve" smooth="yes"/>
			<point x="952" y="283"/>
			<point x="877" y="347"/>
			<point x="794" y="347" type="curve" smooth="yes"/>
			<point x="696" y="347"/>
			<point x="612" y="276"/>
			<point x="612" y="146" type="curve" smooth="yes"/>
			<point x="612" y="10"/>
			<point x="700" y="-56"/>
			<point x="794" y="-56" type="curve" smooth="yes"/>
			<point x="880" y="-56"/>
			<point x="952" y="12"/>
		</contour>
	</outline>
</glyph>
<glyph name="parenleft" format="2">
	<unicode hex="0028"/>
	<advance width="476"/>
	<outline>
		<contour>
			<point x="114" y="250" type="curve" smooth="yes"/>
			<point x="114" y="161"/>
			<point x="132" y="40"/>
			<point x="206" y="-78" type="curve" smooth="yes"/>
			<point x="269" y="-178"/>
			<point x="364" y="-250"/>
			<point x="386" y="-250" type="curve" smooth="yes"/>
			<point x="401" y="-250"/>
			<point x="407" y="-242"/>
			<point x="407" y="-232" type="curve" smooth="yes"/>
			<point x="407" y="-225"/>
			<point x="404" y="-222"/>
			<point x="392" y="-212" type="curve" smooth="yes"/>
			<point x="265" y="-97"/>
			<point x="220" y="78"/>
			<point x="220" y="250" type="curve" smooth="yes"/>
			<point x="220" y="421"/>
			<point x="263" y="596"/>
			<point x="390" y="709" type="curve" smooth="yes"/>
			<point x="406" y="724"/>
			<point x="407" y="725"/>
			<point x="407" y="732" type="curve" smooth="yes"/>
			<point x="407" y="742"/>
			<point x="401" y="750"/>
			<point x="386" y="750" type="curve" smooth="yes"/>
			<point x="367" y="750"/>
			<point x="314" y="705"/>
			<point x="294" y="686" type="curve" smooth="yes"/>
			<point x="169" y="562"/>
			<point x="114" y="410"/>
		</contour>
	</outline>
</glyph>
<glyph name="parenright" format="2">
	<unicode hex="0029"/>
	<advance width="952"/>
	<outline>
		<contour>
			<point x="722" y="500" type="curve" smooth="yes"/>
			<point x="722" y="678"/>
			<point x="686" y="920"/>
			<point x="538" y="1156" type="curve" smooth="yes"/>
			<point x="412" y="1356"/>
			<point x="222" y="1500"/>
			<point x="178" y="1500" type="curve" smooth="yes"/>
			<point x="144" y="1500"/>
			<point x="136" y="1478"/>
			<point x="136" y="1464" type="curve" smooth="yes"/>
			<point x="136" y="1450"/>
			<point x="144" y="1442"/>
			<point x="166" y="1424" type="curve"/>
			<point x="420" y="1194"/>
			<point x="510" y="844"/>
			<point x="510" y="500" type="curve" smooth="yes"/>
			<point x="510" y="158"/>
			<point x="424" y="-192"/>
			<point x="170" y="-418" type="curve" smooth="yes"/>
			<point x="146" y="-440"/>
			<point x="136" y="-448"/>
			<point x="136" y="-464" type="curve" smooth="yes"/>
			<point x="136" y="-478"/>
			<point x="144" y="-500"/>
			<point x="178" y="-500" type="curve" smooth="yes"/>
			<point x="216" y="-500"/>
			<point x="322" y="-410"/>
			<point x="362" y="-372" type="curve" smooth="yes"/>
			<point x="612" y="-124"/>
			<point x="722" y="180"/>
		</contour>
	</outline>
</glyph>
<glyph name="asterisk" format="2">
	<unicode hex="002A"/>
	<advance width="1224"/>
	<outline>
		<contour>
			<point x="612" y="612" type="curve" smooth="yes"/>
			<point x="666" y="612"/>
			<point x="710" y="650"/>
			<point x="710" y="696" type="curve" smooth="yes"/>
			<point x="710" y="700"/>
			<point x="705" y="722"/>
			<point x="660" y="980" type="curve"/>
			<point x="912" y="800" type="line" smooth="yes"/>
			<point x="942" y="780"/>
			<point x="954" y="778"/>
			<point x="970" y="778" type="curve" smooth="yes"/>
			<point x="1024" y="778"/>
			<point x="1066" y="830"/>
			<point x="1066" y="882" type="curve" smooth="yes"/>
			<point x="1066" y="932"/>
			<point x="1044" y="946"/>
			<point x="1032" y="954" type="curve"/>
			<point x="724" y="1056" type="line"/>
			<point x="998" y="1144" type="line" smooth="yes"/>
			<point x="1032" y="1154"/>
			<point x="1066" y="1178"/>
			<point x="1066" y="1230" type="curve" smooth="yes"/>
			<point x="1066" y="1282"/>
			<point x="1024" y="1334"/>
			<point x="970" y="1334" type="curve" smooth="yes"/>
			<point x="954" y="1334"/>
			<point x="942" y="1332"/>
			<point x="912" y="1312" type="curve" smooth="yes"/>
			<point x="660" y="1132" type="line"/>
			<point x="708" y="1396"/>
			<point x="710" y="1410"/>
			<point x="710" y="1416" type="curve" smooth="yes"/>
			<point x="710" y="1462"/>
			<point x="666" y="1500"/>
			<point x="612" y="1500" type="curve" smooth="yes"/>
			<point x="558" y="1500"/>
			<point x="514" y="1462"/>
			<point x="514" y="1416" type="curve" smooth="yes"/>
			<point x="514" y="1412"/>
			<point x="519" y="1390"/>
			<point x="564" y="1132" type="curve"/>
			<point x="312" y="1312" type="line" smooth="yes"/>
			<point x="282" y="1332"/>
			<point x="270" y="1334"/>
			<point x="254" y="1334" type="curve" smooth="yes"/>
			<point x="200" y="1334"/>
			<point x="158" y="1282"/>
			<point x="158" y="1230" type="curve" smooth="yes"/>
			<point x="158" y="1178"/>
			<point x="194" y="1154"/>
			<point x="226" y="1144" type="curve" smooth="yes"/>
			<point x="500" y="1056" type="line"/>
			<point x="226" y="968" type="line" smooth="yes"/>
			<point x="192" y="958"/>
			<point x="158" y="934"/>
			<point x="158" y="882" type="curve" smooth="yes"/>
			<point x="158" y="830"/>
			<point x="200" y="778"/>
			<point x="254" y="778" type="curve" smooth="yes"/>
			<point x="270" y="778"/>
			<point x="282" y="780"/>
			<point x="312" y="800" type="curve" smooth="yes"/>
			<point x="564" y="980" type="line"/>
			<point x="564" y="974"/>
			<point x="514" y="702"/>
			<point x="514" y="696" type="curve" smooth="yes"/>
			<point x="514" y="650"/>
			<point x="558" y="612"/>
		</contour>
	</outline>
</glyph>
<glyph name="plus" format="2">
	<unicode hex="002B"/>
	<advance width="1904"/>
	<outline>
		<contour>
			<point x="1020" y="432" type="line"/>
			<point x="1676" y="432" type="line" smooth="yes"/>
			<point x="1702" y="432"/>
			<point x="1768" y="432"/>
			<point x="1768" y="500" type="curve" smooth="yes"/>
			<point x="1768" y="568"/>
			<point x="1700" y="568"/>
			<point x="1676" y="568" type="curve" smooth="yes"/>
			<point x="1020" y="568" type="line"/>
			<point x="1020" y="1224" type="line" smooth="yes"/>
			<point x="1020" y="1250"/>
			<point x="1020" y="1316"/>
			<point x="952" y="1316" type="curve" smooth="yes"/>
			<point x="884" y="1316"/>
			<point x="884" y="1248"/>
			<point x="884" y="1224" type="curve" smooth="yes"/>
			<point x="884" y="568" type="line"/>
			<point x="228" y="568" type="line" smooth="yes"/>
			<point x="202" y="568"/>
			<point x="136" y="568"/>
			<point x="136" y="500" type="curve" smooth="yes"/>
			<point x="136" y="432"/>
			<point x="204" y="432"/>
			<point x="228" y="432" type="curve" smooth="yes"/>
			<point x="884" y="432" type="line"/>
			<point x="884" y="-224" type="line" smooth="yes"/>
			<point x="884" y="-250"/>
			<point x="884" y="-316"/>
			<point x="952" y="-316" type="curve" smooth="yes"/>
			<point x="1020" y="-316"/>
			<point x="1020" y="-248"/>
			<point x="1020" y="-224" type="curve" smooth="yes"/>
		</contour>
	</outline>
</glyph>
<glyph name="comma" format="2">
	<unicode hex="002C"/>
	<advance width="680"/>
	<outline>
		<contour>
			<point x="180" y="160" type="curve" smooth="yes"/>
			<point x="180" y="78"/>
			<point x="236" y="0"/>
			<point x="340" y="0" type="curve" smooth="yes"/>
			<point x="376" y="0"/>
			<point x="414" y="8"/>
			<point x="442" y="32" type="curve"/>
			<point x="434" y="-68"/>
			<point x="394" y="-200"/>
			<point x="256" y="-306" type="curve"/>
			<point x="244" y="-318"/>
			<point x="232" y="-326"/>
			<point x="232" y="-344" type="curve" smooth="yes"/>
			<point x="232" y="-364"/>
			<point x="256" y="-388"/>
			<point x="276" y="-388" type="curve" smooth="yes"/>
			<point x="312" y="-388"/>
			<point x="528" y="-216"/>
			<point x="528" y="66" type="curve" smooth="yes"/>
			<point x="528" y="212"/>
			<point x="450" y="320"/>
			<point x="340" y="320" type="curve" smooth="yes"/>
			<point x="238" y="320"/>
			<point x="180" y="242"/>
		</contour>
	</outline>
</glyph>
<glyph name="period" format="2">
	<unicode hex="002E"/>
	<advance width="680"/>
	<outline>
		<contour>
			<point x="500" y="160" type="curve" smooth="yes"/>
			<point x="500" y="248"/>
			<point x="428" y="320"/>
			<point x="340" y="320" type="curve" smooth="yes"/>
			<point x="252" y="320"/>
			<point x="180" y="248"/>
			<point x="180" y="160" type="curve" smooth="yes"/>
			<point x="180" y="72"/>
			<point x="252" y="0"/>
			<point x="340" y="0" type="curve" smooth="yes"/>
			<point x="428" y="0"/>
			<point x="500" y="72"/>
		</contour>
	</outline>
</glyph>
<glyph name="slash" format="2">
	<unicode hex="002F"/>
	<advance width="612"/>
	<outline>
		<contour>
			<point x="538" y="694" type="line"/>
			<point x="541" y="700"/>
			<point x="544" y="710"/>
			<point x="544" y="716" type="curve" smooth="yes"/>
			<point x="544" y="735"/>
			<point x="529" y="750"/>
			<point x="510" y="750" type="curve" smooth="yes"/>
			<point x="492" y="750"/>
			<point x="482" y="737"/>
			<point x="475" y="722" type="curve" smooth="yes"/>
			<point x="74" y="-194" type="line"/>
			<point x="71" y="-200"/>
			<point x="68" y="-210"/>
			<point x="68" y="-216" type="curve" smooth="yes"/>
			<point x="68" y="-235"/>
			<point x="83" y="-250"/>
			<point x="102" y="-250" type="curve" smooth="yes"/>
			<point x="122" y="-250"/>
			<point x="131" y="-235"/>
			<point x="137" y="-222" type="curve" smooth="yes"/>
		</contour>
	</outline>
</glyph>
<glyph name="zero" format="2">
	<unicode hex="0030"/>
	<advance width="612"/>
	<outline>
		<contour>
			<point x="306" y="-14" type="curve" smooth="yes"/>
			<point x="391.95468" y="-14"/>
			<point x="449.2891325274" y="11.8280101582"/>
			<point x="487.5273316199" y="50.2695164973" type="curve" smooth="yes"/>
			<point x="561.3950256714" y="124.5299549209"/>
			<point x="564" y="245.86099"/>
			<point x="564" y="319" type="curve" smooth="yes"/>
			<point x="564" y="395.43356"/>
			<point x="560.0925385071" y="518.3224955267"/>
			<point x="486.1945355793" y="593.2624066629" type="curve" smooth="yes"/>
			<point x="447.940646856" y="632.0556474537"/>
			<point x="391" y="658"/>
			<point x="306" y="658" type="curve" smooth="yes"/>
			<point x="229" y="658"/>
			<point x="166.013415" y="647.2019485"/>
			<point x="121.5822793939" y="602.7457836239" type="curve" smooth="yes"/>
			<point x="74.30828475" y="555.44515825"/>
			<point x="48" y="470"/>
			<point x="48" y="319" type="curve" smooth="yes"/>
			<point x="48" y="245"/>
			<point x="51.0750340887" y="122.6523663331"/>
			<point x="126.2294075439" y="48.7364830571" type="curve" smooth="yes"/>
			<point x="164.4659625204" y="11.1300390861"/>
			<point x="221.36029" y="-14"/>
		</contour>
		<contour>
			<point x="306" y="28" type="curve" smooth="yes"/>
			<point x="279" y="28"/>
			<point x="251" y="38"/>
			<point x="230" y="55" type="curve" smooth="yes"/>
			<point x="198" y="83"/>
			<point x="183" y="97"/>
			<point x="183" y="331" type="curve" smooth="yes"/>
			<point x="183" y="403"/>
			<point x="183" y="476"/>
			<point x="193" y="526" type="curve" smooth="yes"/>
			<point x="206" y="597"/>
			<point x="268" y="616"/>
			<point x="306" y="616" type="curve" smooth="yes"/>
			<point x="330" y="616"/>
			<point x="406" y="610"/>
			<point x="421" y="515" type="curve" smooth="yes"/>
			<point x="429" y="466"/>
			<point x="429" y="389"/>
			<point x="429" y="331" type="curve" smooth="yes"/>
			<point x="429" y="102"/>
			<point x="415" y="89"/>
			<point x="384" y="58" type="curve" smooth="yes"/>
			<point x="375" y="49"/>
			<point x="348" y="28"/>
		</contour>
	</outline>
</glyph>
<glyph name="one" format="2">
	<unicode hex="0031"/>
	<advance width="612"/>
	<outline>
		<contour>
			<point x="252" y="562" type="curve"/>
			<point x="252" y="52" type="line"/>
			<point x="252" y="52"/>
			<point x="252" y="52"/>
			<point x="252" y="52" type="curve"/>
			<point x="102" y="52" type="line"/>
			<point x="102" y="0" type="line"/>
			<point x="138" y="3"/>
			<point x="270" y="3"/>
			<point x="315" y="3" type="curve" smooth="yes"/>
			<point x="360" y="3"/>
			<point x="490" y="3"/>
			<point x="527" y="0" type="curve"/>
			<point x="527" y="52" type="line"/>
			<point x="379" y="52" type="line"/>
			<point x="379" y="52"/>
			<point x="379" y="52"/>
			<point x="379" y="52" type="curve"/>
			<point x="379" y="624" type="line" smooth="yes"/>
			<point x="379" y="658"/>
			<point x="373" y="658"/>
			<point x="333" y="658" type="curve"/>
			<point x="333" y="658"/>
			<point x="333" y="658"/>
			<point x="333" y="658" type="curve"/>
			<point x="272" y="610"/>
			<point x="192" y="594"/>
			<point x="114" y="594" type="curve" smooth="yes"/>
			<point x="106.674" y="594"/>
			<point x="99.348" y="594"/>
			<point x="92" y="594" type="curve"/>
			<point x="92" y="576.684"/>
			<point x="92" y="559.368"/>
			<point x="92" y="542" type="curve"/>
			<point x="114" y="542" type="line" smooth="yes"/>
			<point x="140" y="542"/>
			<point x="194" y="545"/>
		</contour>
	</outline>
</glyph>
<glyph name="two" format="2">
	<unicode hex="0032"/>
	<advance width="1224"/>
	<outline>
		<contour>
			<point x="812" y="924" type="curve" smooth="yes"/>
			<point x="812" y="762"/>
			<point x="706" y="628"/>
			<point x="588" y="518" type="curve" smooth="yes"/>
			<point x="146" y="106" type="line" smooth="yes"/>
			<point x="124" y="84"/>
			<point x="122" y="82"/>
			<point x="122" y="42" type="curve" smooth="yes"/>
			<point x="122" y="0" type="line"/>
			<point x="1036" y="0" type="line"/>
			<point x="1102" y="456" type="line"/>
			<point x="990" y="456" type="line"/>
			<point x="974" y="324"/>
			<point x="948" y="284"/>
			<point x="936" y="278" type="curve" smooth="yes"/>
			<point x="914" y="266"/>
			<point x="760" y="266"/>
			<point x="726" y="266" type="curve" smooth="yes"/>
			<point x="450" y="266" type="line"/>
			<point x="718" y="476"/>
			<point x="826" y="536"/>
			<point x="912" y="602" type="curve" smooth="yes"/>
			<point x="1052" y="712"/>
			<point x="1102" y="812"/>
			<point x="1102" y="926" type="curve" smooth="yes"/>
			<point x="1102" y="1162"/>
			<point x="884" y="1316"/>
			<point x="580" y="1316" type="curve" smooth="yes"/>
			<point x="324" y="1316"/>
			<point x="122" y="1202"/>
			<point x="122" y="1014" type="curve" smooth="yes"/>
			<point x="122" y="896"/>
			<point x="218" y="858"/>
			<point x="274" y="858" type="curve" smooth="yes"/>
			<point x="344" y="858"/>
			<point x="428" y="908"/>
			<point x="428" y="1012" type="curve" smooth="yes"/>
			<point x="428" y="1106"/>
			<point x="360" y="1144"/>
			<point x="334" y="1154" type="curve"/>
			<point x="390" y="1196"/>
			<point x="470" y="1212"/>
			<point x="532" y="1212" type="curve" smooth="yes"/>
			<point x="712" y="1212"/>
			<point x="812" y="1078"/>
		</contour>
	</outline>
</glyph>
<glyph name="three" format="2">
	<unicode hex="0033"/>
	<advance width="1224"/>
	<outline>
		<contour>
			<point x="586" y="-28" type="curve" smooth="yes"/>
			<point x="978" y="-28"/>
			<point x="1122" y="184"/>
			<point x="1122" y="358" type="curve" smooth="yes"/>
			<point x="1122" y="522"/>
			<point x="996" y="658"/>
			<point x="780" y="706" type="curve"/>
			<point x="834" y="728"/>
			<point x="1054" y="814"/>
			<point x="1054" y="1032" type="curve" smooth="yes"/>
			<point x="1054" y="1192"/>
			<point x="890" y="1316"/>
			<point x="592" y="1316" type="curve" smooth="yes"/>
			<point x="332" y="1316"/>
			<point x="170" y="1178"/>
			<point x="170" y="1014" type="curve" smooth="yes"/>
			<point x="170" y="902"/>
			<point x="258" y="862"/>
			<point x="318" y="862" type="curve" smooth="yes"/>
			<point x="398" y="862"/>
			<point x="466" y="918"/>
			<point x="466" y="1010" type="curve" smooth="yes"/>
			<point x="466" y="1054"/>
			<point x="450" y="1130"/>
			<point x="354" y="1154" type="curve"/>
			<point x="442" y="1230"/>
			<point x="562" y="1230"/>
			<point x="580" y="1230" type="curve" smooth="yes"/>
			<point x="766" y="1230"/>
			<point x="766" y="1098"/>
			<point x="766" y="1038" type="curve" smooth="yes"/>
			<point x="766" y="894"/>
			<point x="698" y="820"/>
			<point x="692" y="812" type="curve"/>
			<point x="634" y="750"/>
			<point x="598" y="748"/>
			<point x="490" y="742" type="curve" smooth="yes"/>
			<point x="428" y="738"/>
			<point x="408" y="736"/>
			<point x="408" y="696" type="curve" smooth="yes"/>
			<point x="408" y="654"/>
			<point x="434" y="654"/>
			<point x="470" y="654" type="curve" smooth="yes"/>
			<point x="568" y="654" type="line" smooth="yes"/>
			<point x="800" y="654"/>
			<point x="802" y="460"/>
			<point x="802" y="360" type="curve" smooth="yes"/>
			<point x="802" y="270"/>
			<point x="802" y="66"/>
			<point x="576" y="66" type="curve" smooth="yes"/>
			<point x="534" y="66"/>
			<point x="420" y="72"/>
			<point x="320" y="136" type="curve"/>
			<point x="354" y="150"/>
			<point x="426" y="192"/>
			<point x="426" y="290" type="curve" smooth="yes"/>
			<point x="426" y="386"/>
			<point x="358" y="452"/>
			<point x="264" y="452" type="curve" smooth="yes"/>
			<point x="176" y="452"/>
			<point x="102" y="392"/>
			<point x="102" y="288" type="curve" smooth="yes"/>
			<point x="102" y="94"/>
			<point x="310" y="-28"/>
		</contour>
	</outline>
</glyph>
<glyph name="four" format="2">
	<unicode hex="0034"/>
	<advance width="612"/>
	<outline>
		<contour>
			<point x="341" y="154" type="line"/>
			<point x="341" y="52" type="line"/>
			<point x="341" y="52"/>
			<point x="341" y="52"/>
			<point x="341" y="52" type="curve"/>
			<point x="222" y="52" type="line"/>
			<point x="222" y="0" type="line"/>
			<point x="259" y="3"/>
			<point x="360" y="3"/>
			<point x="403" y="3" type="curve" smooth="yes"/>
			<point x="451" y="3"/>
			<point x="533" y="3"/>
			<point x="578" y="0" type="curve"/>
			<point x="578" y="52" type="line"/>
			<point x="474" y="52" type="line"/>
			<point x="474" y="52"/>
			<point x="474" y="52"/>
			<point x="474" y="52" type="curve"/>
			<point x="474" y="154" type="line"/>
			<point x="578" y="154" type="line"/>
			<point x="578" y="206" type="line"/>
			<point x="474" y="206" type="line"/>
			<point x="474" y="625" type="line" smooth="yes"/>
			<point x="474" y="656"/>
			<point x="468" y="659"/>
			<point x="439" y="659" type="curve" smooth="yes"/>
			<point x="418" y="659"/>
			<point x="411" y="659"/>
			<point x="399" y="644" type="curve" smooth="yes"/>
			<point x="34" y="206" type="line"/>
			<point x="34" y="154" type="line"/>
		</contour>
		<contour>
			<point x="96" y="206" type="line"/>
			<point x="354" y="515" type="line"/>
			<point x="354" y="206" type="line"/>
		</contour>
	</outline>
</glyph>
<glyph name="five" format="2">
	<unicode hex="0035"/>
	<advance width="612"/>
	<outline>
		<contour>
			<point x="276" y="-14" type="curve" smooth="yes"/>
			<point x="454" y="-14"/>
			<point x="551" y="83"/>
			<point x="551" y="201" type="curve" smooth="yes"/>
			<point x="551" y="313"/>
			<point x="471" y="412"/>
			<point x="310" y="412" type="curve" smooth="yes"/>
			<point x="262" y="412"/>
			<point x="216" y="403"/>
			<point x="176" y="378" type="curve"/>
			<point x="176" y="501" type="line"/>
			<point x="208" y="496"/>
			<point x="242" y="496"/>
			<point x="248" y="496" type="curve" smooth="yes"/>
			<point x="274" y="496"/>
			<point x="342" y="496"/>
			<point x="417" y="544" type="curve" smooth="yes"/>
			<point x="443" y="561"/>
			<point x="503" y="611"/>
			<point x="503" y="637" type="curve" smooth="yes"/>
			<point x="503" y="652"/>
			<point x="495" y="658"/>
			<point x="485" y="658" type="curve" smooth="yes"/>
			<point x="483" y="658"/>
			<point x="481" y="658"/>
			<point x="470" y="653" type="curve"/>
			<point x="421" y="636"/>
			<point x="362" y="626"/>
			<point x="307" y="626" type="curve" smooth="yes"/>
			<point x="262" y="626"/>
			<point x="205" y="632"/>
			<point x="140" y="654" type="curve"/>
			<point x="132" y="658"/>
			<point x="130" y="658"/>
			<point x="127" y="658" type="curve" smooth="yes"/>
			<point x="110" y="658"/>
			<point x="110" y="641"/>
			<point x="110" y="627" type="curve" smooth="yes"/>
			<point x="110" y="333" type="line" smooth="yes"/>
			<point x="110" y="314"/>
			<point x="110" y="299"/>
			<point x="137" y="299" type="curve" smooth="yes"/>
			<point x="152" y="299"/>
			<point x="155" y="301"/>
			<point x="165" y="313" type="curve" smooth="yes"/>
			<point x="205" y="361"/>
			<point x="267" y="370"/>
			<point x="306" y="370" type="curve" smooth="yes"/>
			<point x="336" y="370"/>
			<point x="356.625" y="361.11328125"/>
			<point x="370.8046875" y="346.5747070312" type="curve" smooth="yes"/>
			<point x="402" y="314.58984375"/>
			<point x="402" y="255.25"/>
			<point x="402" y="203" type="curve" smooth="yes"/>
			<point x="402" y="156.82313"/>
			<point x="402" y="96.3144586272"/>
			<point x="363.0354598046" y="61.3377077738" type="curve" smooth="yes"/>
			<point x="343.777056923" y="44.0502880829"/>
			<point x="315.0001" y="33"/>
			<point x="272" y="33" type="curve" smooth="yes"/>
			<point x="220" y="33"/>
			<point x="170" y="55"/>
			<point x="143" y="89" type="curve"/>
			<point x="185" y="95"/>
			<point x="205" y="127"/>
			<point x="205" y="160" type="curve" smooth="yes"/>
			<point x="205" y="206"/>
			<point x="169" y="232"/>
			<point x="133" y="232" type="curve" smooth="yes"/>
			<point x="102" y="232"/>
			<point x="61" y="212"/>
			<point x="61" y="158" type="curve" smooth="yes"/>
			<point x="61" y="68"/>
			<point x="146" y="-14"/>
		</contour>
	</outline>
</glyph>
<glyph name="six" format="2">
  <advance width="612"/>
  <unicode hex="0036"/>
  <outline>
    <contour>
      <point x="51" y="317" type="curve" smooth="yes"/>
      <point x="51.0" y="225.0768"/>
      <point x="66.9879220975" y="94.47314331250001"/>
      <point x="160.44655849305025" y="28.154187960108302" type="curve" smooth="yes"/>
      <point x="197.1259662325" y="2.126202767500022"/>
      <point x="245.7382" y="-13.999999999999993"/>
      <point x="310" y="-14" type="curve" smooth="yes"/>
      <point x="374.11172" y="-14.0"/>
      <point x="429.52181871519997" y="1.5518337855999977"/>
      <point x="471.8488632019127" y="30.02664159058758" type="curve" smooth="yes"/>
      <point x="527.8927504032" y="67.7292247984"/>
      <point x="561.0" y="128.0878"/>
      <point x="561" y="205" type="curve" smooth="yes"/>
      <point x="561" y="262"/>
      <point x="549" y="314"/>
      <point x="491" y="364" type="curve" smooth="yes"/>
      <point x="436" y="411"/>
      <point x="381" y="421"/>
      <point x="318" y="421" type="curve" smooth="yes"/>
      <point x="257" y="421"/>
      <point x="216" y="382"/>
      <point x="194" y="347" type="curve"/>
      <point x="194" y="404"/>
      <point x="197" y="479"/>
      <point x="225" y="530" type="curve" smooth="yes"/>
      <point x="258" y="591"/>
      <point x="321" y="615"/>
      <point x="373" y="615" type="curve" smooth="yes"/>
      <point x="401" y="615"/>
      <point x="425" y="610"/>
      <point x="446" y="592" type="curve"/>
      <point x="422" y="586"/>
      <point x="395" y="564"/>
      <point x="395" y="526" type="curve" smooth="yes"/>
      <point x="395" y="488"/>
      <point x="423" y="459"/>
      <point x="462" y="459" type="curve" smooth="yes"/>
      <point x="501" y="459"/>
      <point x="530" y="486"/>
      <point x="530" y="528" type="curve" smooth="yes"/>
      <point x="530" y="589"/>
      <point x="489" y="658"/>
      <point x="372" y="658" type="curve" smooth="yes"/>
      <point x="216" y="658"/>
      <point x="51" y="562"/>
    </contour>
    <contour>
      <point x="309" y="33" type="curve" smooth="yes"/>
      <point x="260" y="33"/>
      <point x="228" y="61"/>
      <point x="213" y="93" type="curve" smooth="yes"/>
      <point x="196" y="127"/>
      <point x="196" y="208"/>
      <point x="196" y="212" type="curve" smooth="yes"/>
      <point x="196" y="302"/>
      <point x="236" y="378"/>
      <point x="316" y="378" type="curve" smooth="yes"/>
      <point x="350" y="378"/>
      <point x="372.6662133322" y="369.4446155547"/>
      <point x="387.7773244421778" y="354.51896629438517" type="curve" smooth="yes"/>
      <point x="418.0" y="324.66721999979995"/>
      <point x="418" y="269"/>
      <point x="418" y="206" type="curve" smooth="yes"/>
      <point x="418" y="144"/>
      <point x="418.0" y="89.4508303748"/>
      <point x="387.87481258332014" y="58.85484096309238" type="curve" smooth="yes"/>
      <point x="371.75174642039997" y="42.4798005432"/>
      <point x="346.99958" y="33.0"/>
    </contour>
  </outline>
</glyph>
<glyph name="seven" format="2">
  <advance width="612"/>
  <unicode hex="0037"/>
  <outline>
    <contour>
      <point x="273" y="-14" type="curve" smooth="yes"/>
      <point x="303" y="-14"/>
      <point x="320" y="4"/>
      <point x="324" y="9" type="curve" smooth="yes"/>
      <point x="339" y="26"/>
      <point x="340" y="41"/>
      <point x="340" y="90" type="curve" smooth="yes"/>
      <point x="340" y="254"/>
      <point x="364" y="352"/>
      <point x="411" y="403" type="curve" smooth="yes"/>
      <point x="468.276" y="465.937"/>
      <point x="525.552" y="528.874"/>
      <point x="583" y="592" type="curve" smooth="yes"/>
      <point x="594" y="605"/>
      <point x="595" y="606"/>
      <point x="595" y="626" type="curve" smooth="yes"/>
      <point x="595" y="644" type="line"/>
      <point x="363" y="644" type="line" smooth="yes"/>
      <point x="323" y="644"/>
      <point x="254" y="647"/>
      <point x="206" y="650" type="curve" smooth="yes"/>
      <point x="164" y="653"/>
      <point x="163" y="663"/>
      <point x="162" y="676" type="curve"/>
      <point x="106" y="676" type="line"/>
      <point x="68" y="416" type="line"/>
      <point x="124" y="416" type="line"/>
      <point x="133" y="485"/>
      <point x="147" y="503"/>
      <point x="152" y="505" type="curve" smooth="yes"/>
      <point x="164" y="511"/>
      <point x="247" y="511"/>
      <point x="265" y="511" type="curve" smooth="yes"/>
      <point x="428" y="511" type="line"/>
      <point x="317" y="387"/>
      <point x="316" y="385"/>
      <point x="286" y="336" type="curve" smooth="yes"/>
      <point x="214" y="219"/>
      <point x="205" y="109"/>
      <point x="205" y="61" type="curve" smooth="yes"/>
      <point x="205" y="-14"/>
      <point x="266" y="-14"/>
    </contour>
  </outline>
</glyph>
<glyph name="eight" format="2">
	<unicode hex="0038"/>
	<advance width="1224"/>
	<outline>
		<contour>
			<point x="608" y="-28" type="curve" smooth="yes"/>
			<point x="952" y="-28"/>
			<point x="1122" y="150"/>
			<point x="1122" y="374" type="curve" smooth="yes"/>
			<point x="1122" y="596"/>
			<point x="928" y="700"/>
			<point x="850" y="740" type="curve"/>
			<point x="934" y="786"/>
			<point x="1054" y="860"/>
			<point x="1054" y="1016" type="curve" smooth="yes"/>
			<point x="1054" y="1294"/>
			<point x="736" y="1316"/>
			<point x="616" y="1316" type="curve" smooth="yes"/>
			<point x="318" y="1316"/>
			<point x="170" y="1156"/>
			<point x="170" y="960" type="curve" smooth="yes"/>
			<point x="170" y="868"/>
			<point x="210" y="789"/>
			<point x="270" y="729" type="curve" smooth="yes"/>
			<point x="297" y="702"/>
			<point x="328" y="679"/>
			<point x="362" y="660" type="curve"/>
			<point x="154" y="568"/>
			<point x="102" y="442"/>
			<point x="102" y="322" type="curve" smooth="yes"/>
			<point x="102" y="72"/>
			<point x="328" y="-28"/>
		</contour>
		<contour>
			<point x="616" y="66" type="curve" smooth="yes"/>
			<point x="422" y="66"/>
			<point x="292" y="154"/>
			<point x="292" y="322" type="curve" smooth="yes"/>
			<point x="292" y="520"/>
			<point x="472" y="596"/>
			<point x="476" y="596" type="curve"/>
			<point x="587" y="539"/>
			<point x="697" y="481"/>
			<point x="808" y="424" type="curve"/>
			<point x="840" y="406"/>
			<point x="932" y="358"/>
			<point x="932" y="264" type="curve" smooth="yes"/>
			<point x="932" y="94"/>
			<point x="738" y="66"/>
		</contour>
		<contour>
			<point x="744" y="796" type="curve"/>
			<point x="639" y="851"/>
			<point x="535" y="905"/>
			<point x="430" y="960" type="curve" smooth="yes"/>
			<point x="392" y="980"/>
			<point x="336" y="1014"/>
			<point x="336" y="1078" type="curve" smooth="yes"/>
			<point x="336" y="1204"/>
			<point x="486" y="1230"/>
			<point x="606" y="1230" type="curve" smooth="yes"/>
			<point x="788" y="1230"/>
			<point x="888" y="1148"/>
			<point x="888" y="1016" type="curve" smooth="yes"/>
			<point x="888" y="940"/>
			<point x="856" y="862"/>
		</contour>
	</outline>
</glyph>
<glyph name="nine" format="2">
	<unicode hex="0039"/>
	<advance width="1224"/>
	<outline>
		<contour>
			<point x="510" y="-28" type="curve" smooth="yes"/>
			<point x="814" y="-28"/>
			<point x="1122" y="168"/>
			<point x="1122" y="656" type="curve" smooth="yes"/>
			<point x="1122" y="796"/>
			<point x="1108" y="972"/>
			<point x="1020" y="1112" type="curve" smooth="yes"/>
			<point x="934" y="1248"/>
			<point x="796" y="1316"/>
			<point x="616" y="1316" type="curve" smooth="yes"/>
			<point x="312" y="1316"/>
			<point x="102" y="1152"/>
			<point x="102" y="880" type="curve" smooth="yes"/>
			<point x="102" y="798"/>
			<point x="114" y="670"/>
			<point x="240" y="562" type="curve" smooth="yes"/>
			<point x="326" y="492"/>
			<point x="410" y="448"/>
			<point x="588" y="448" type="curve" smooth="yes"/>
			<point x="724" y="448"/>
			<point x="804" y="546"/>
			<point x="836" y="598" type="curve"/>
			<point x="836" y="446"/>
			<point x="826" y="326"/>
			<point x="784" y="234" type="curve" smooth="yes"/>
			<point x="744" y="152"/>
			<point x="650" y="66"/>
			<point x="506" y="66" type="curve" smooth="yes"/>
			<point x="486" y="66"/>
			<point x="404" y="66"/>
			<point x="342" y="106" type="curve"/>
			<point x="364" y="114"/>
			<point x="434" y="148"/>
			<point x="434" y="236" type="curve" smooth="yes"/>
			<point x="434" y="312"/>
			<point x="378" y="370"/>
			<point x="300" y="370" type="curve" smooth="yes"/>
			<point x="222" y="370"/>
			<point x="164" y="316"/>
			<point x="164" y="232" type="curve" smooth="yes"/>
			<point x="164" y="92"/>
			<point x="270" y="-28"/>
		</contour>
		<contour>
			<point x="592" y="534" type="curve" smooth="yes"/>
			<point x="524" y="534"/>
			<point x="479" y="551"/>
			<point x="448" y="581" type="curve" smooth="yes"/>
			<point x="388" y="642"/>
			<point x="388" y="753"/>
			<point x="388" y="878" type="curve" smooth="yes"/>
			<point x="388" y="997"/>
			<point x="388" y="1110"/>
			<point x="452" y="1175" type="curve" smooth="yes"/>
			<point x="486" y="1209"/>
			<point x="538" y="1230"/>
			<point x="618" y="1230" type="curve" smooth="yes"/>
			<point x="688" y="1230"/>
			<point x="735" y="1204"/>
			<point x="767" y="1166" type="curve" smooth="yes"/>
			<point x="832" y="1086"/>
			<point x="832" y="952"/>
			<point x="832" y="874" type="curve" smooth="yes"/>
			<point x="832" y="670"/>
			<point x="742" y="534"/>
		</contour>
	</outline>
</glyph>
<glyph name="colon" format="2">
	<unicode hex="003A"/>
	<advance width="680"/>
	<outline>
		<contour>
			<point x="500" y="728" type="curve" smooth="yes"/>
			<point x="500" y="816"/>
			<point x="428" y="888"/>
			<point x="340" y="888" type="curve" smooth="yes"/>
			<point x="252" y="888"/>
			<point x="180" y="816"/>
			<point x="180" y="728" type="curve" smooth="yes"/>
			<point x="180" y="640"/>
			<point x="252" y="568"/>
			<point x="340" y="568" type="curve" smooth="yes"/>
			<point x="428" y="568"/>
			<point x="500" y="640"/>
		</contour>
		<contour>
			<point x="500" y="160" type="curve" smooth="yes"/>
			<point x="500" y="248"/>
			<point x="428" y="320"/>
			<point x="340" y="320" type="curve" smooth="yes"/>
			<point x="252" y="320"/>
			<point x="180" y="248"/>
			<point x="180" y="160" type="curve" smooth="yes"/>
			<point x="180" y="72"/>
			<point x="252" y="0"/>
			<point x="340" y="0" type="curve" smooth="yes"/>
			<point x="428" y="0"/>
			<point x="500" y="72"/>
		</contour>
	</outline>
</glyph>
<glyph name="semicolon" format="2">
	<unicode hex="003B"/>
	<advance width="680"/>
	<outline>
		<contour>
			<point x="340" y="568" type="curve" smooth="yes"/>
			<point x="428" y="568"/>
			<point x="500" y="640"/>
			<point x="500" y="728" type="curve" smooth="yes"/>
			<point x="500" y="816"/>
			<point x="428" y="888"/>
			<point x="340" y="888" type="curve" smooth="yes"/>
			<point x="252" y="888"/>
			<point x="180" y="816"/>
			<point x="180" y="728" type="curve" smooth="yes"/>
			<point x="180" y="640"/>
			<point x="252" y="568"/>
		</contour>
		<contour>
			<point x="276" y="-388" type="curve" smooth="yes"/>
			<point x="312" y="-388"/>
			<point x="506" y="-204"/>
			<point x="506" y="66" type="curve" smooth="yes"/>
			<point x="506" y="214"/>
			<point x="446" y="320"/>
			<point x="338" y="320" type="curve" smooth="yes"/>
			<point x="244" y="320"/>
			<point x="180" y="248"/>
			<point x="180" y="160" type="curve" smooth="yes"/>
			<point x="180" y="78"/>
			<point x="236" y="0"/>
			<point x="340" y="0" type="curve" smooth="yes"/>
			<point x="386" y="0"/>
			<point x="396" y="6"/>
			<point x="420" y="18" type="curve"/>
			<point x="412" y="-66"/>
			<point x="374" y="-200"/>
			<point x="254" y="-310" type="curve" smooth="yes"/>
			<point x="240" y="-322"/>
			<point x="232" y="-328"/>
			<point x="232" y="-344" type="curve" smooth="yes"/>
			<point x="232" y="-364"/>
			<point x="256" y="-388"/>
		</contour>
	</outline>
</glyph>
<glyph name="equal" format="2">
	<unicode hex="003D"/>
	<advance width="1904"/>
	<outline>
		<contour>
			<point x="1680" y="674" type="line" smooth="yes"/>
			<point x="1704" y="674"/>
			<point x="1768" y="674"/>
			<point x="1768" y="742" type="curve" smooth="yes"/>
			<point x="1768" y="810"/>
			<point x="1696" y="810"/>
			<point x="1668" y="810" type="curve" smooth="yes"/>
			<point x="236" y="810" type="line" smooth="yes"/>
			<point x="208" y="810"/>
			<point x="136" y="810"/>
			<point x="136" y="742" type="curve" smooth="yes"/>
			<point x="136" y="674"/>
			<point x="200" y="674"/>
			<point x="224" y="674" type="curve" smooth="yes"/>
		</contour>
		<contour>
			<point x="1668" y="190" type="line" smooth="yes"/>
			<point x="1696" y="190"/>
			<point x="1768" y="190"/>
			<point x="1768" y="258" type="curve" smooth="yes"/>
			<point x="1768" y="326"/>
			<point x="1704" y="326"/>
			<point x="1680" y="326" type="curve" smooth="yes"/>
			<point x="224" y="326" type="line" smooth="yes"/>
			<point x="200" y="326"/>
			<point x="136" y="326"/>
			<point x="136" y="258" type="curve" smooth="yes"/>
			<point x="136" y="190"/>
			<point x="208" y="190"/>
			<point x="236" y="190" type="curve" smooth="yes"/>
		</contour>
	</outline>
</glyph>
<glyph name="question" format="2">
	<unicode hex="003F"/>
	<advance width="1156"/>
	<outline>
		<contour>
			<point x="1018" y="1144" type="curve" smooth="yes"/>
			<point x="1018" y="1280"/>
			<point x="902" y="1402"/>
			<point x="558" y="1402" type="curve" smooth="yes"/>
			<point x="236" y="1402"/>
			<point x="136" y="1264"/>
			<point x="136" y="1146" type="curve" smooth="yes"/>
			<point x="136" y="1042"/>
			<point x="218" y="1008"/>
			<point x="270" y="1008" type="curve" smooth="yes"/>
			<point x="336" y="1008"/>
			<point x="406" y="1054"/>
			<point x="406" y="1144" type="curve" smooth="yes"/>
			<point x="406" y="1220"/>
			<point x="354" y="1256"/>
			<point x="328" y="1268" type="curve"/>
			<point x="404" y="1312"/>
			<point x="490" y="1318"/>
			<point x="546" y="1318" type="curve" smooth="yes"/>
			<point x="746" y="1318"/>
			<point x="748" y="1244"/>
			<point x="748" y="1156" type="curve" smooth="yes"/>
			<point x="748" y="1120"/>
			<point x="748" y="1058"/>
			<point x="698" y="1012" type="curve" smooth="yes"/>
			<point x="490" y="820"/>
			<point x="486" y="654"/>
			<point x="486" y="550" type="curve" smooth="yes"/>
			<point x="486" y="542"/>
			<point x="486" y="534"/>
			<point x="486" y="526" type="curve" smooth="yes"/>
			<point x="486" y="466"/>
			<point x="492" y="458"/>
			<point x="542" y="458" type="curve" smooth="yes"/>
			<point x="598" y="458"/>
			<point x="598" y="476"/>
			<point x="598" y="520" type="curve" smooth="yes"/>
			<point x="598" y="568" type="line" smooth="yes"/>
			<point x="598" y="700"/>
			<point x="664" y="826"/>
			<point x="882" y="942" type="curve" smooth="yes"/>
			<point x="1002" y="1006"/>
			<point x="1018" y="1096"/>
		</contour>
		<contour>
			<point x="702" y="160" type="curve" smooth="yes"/>
			<point x="702" y="248"/>
			<point x="630" y="320"/>
			<point x="542" y="320" type="curve" smooth="yes"/>
			<point x="454" y="320"/>
			<point x="382" y="248"/>
			<point x="382" y="160" type="curve" smooth="yes"/>
			<point x="382" y="72"/>
			<point x="454" y="0"/>
			<point x="542" y="0" type="curve" smooth="yes"/>
			<point x="630" y="0"/>
			<point x="702" y="72"/>
		</contour>
	</outline>
</glyph>
<glyph name="at" format="2">
	<unicode hex="0040"/>
	<advance width="1904"/>
	<outline>
		<contour>
			<point x="960" y="-14" type="curve" smooth="yes"/>
			<point x="1262" y="-14"/>
			<point x="1524" y="52"/>
			<point x="1692" y="110" type="curve" smooth="yes"/>
			<point x="1748" y="128"/>
			<point x="1750" y="130"/>
			<point x="1758" y="138" type="curve" smooth="yes"/>
			<point x="1766" y="146"/>
			<point x="1768" y="154"/>
			<point x="1768" y="160" type="curve" smooth="yes"/>
			<point x="1768" y="196"/>
			<point x="1736" y="196"/>
			<point x="1706" y="196" type="curve" smooth="yes"/>
			<point x="1654" y="196" type="line" smooth="yes"/>
			<point x="1622" y="196"/>
			<point x="1618" y="196"/>
			<point x="1578" y="180" type="curve" smooth="yes"/>
			<point x="1382" y="108"/>
			<point x="1158" y="70"/>
			<point x="960" y="70" type="curve" smooth="yes"/>
			<point x="454" y="70"/>
			<point x="248" y="378"/>
			<point x="248" y="694" type="curve" smooth="yes"/>
			<point x="248" y="1042"/>
			<point x="490" y="1318"/>
			<point x="952" y="1318" type="curve" smooth="yes"/>
			<point x="1368" y="1318"/>
			<point x="1656" y="1088"/>
			<point x="1656" y="684" type="curve" smooth="yes"/>
			<point x="1656" y="618"/>
			<point x="1656" y="336"/>
			<point x="1506" y="336" type="curve" smooth="yes"/>
			<point x="1442" y="336"/>
			<point x="1442" y="422"/>
			<point x="1442" y="446" type="curve" smooth="yes"/>
			<point x="1442" y="908" type="line" smooth="yes"/>
			<point x="1442" y="962"/>
			<point x="1438" y="970"/>
			<point x="1374" y="970" type="curve" smooth="yes"/>
			<point x="1348" y="970"/>
			<point x="1322" y="970"/>
			<point x="1296" y="970" type="curve"/>
			<point x="1210" y="1086"/>
			<point x="1088" y="1136"/>
			<point x="948" y="1136" type="curve" smooth="yes"/>
			<point x="646" y="1136"/>
			<point x="462" y="948"/>
			<point x="462" y="694" type="curve" smooth="yes"/>
			<point x="462" y="436"/>
			<point x="650" y="252"/>
			<point x="948" y="252" type="curve" smooth="yes"/>
			<point x="1052" y="252"/>
			<point x="1146" y="280"/>
			<point x="1226" y="342" type="curve"/>
			<point x="1288" y="260"/>
			<point x="1426" y="252"/>
			<point x="1486" y="252" type="curve" smooth="yes"/>
			<point x="1738" y="252"/>
			<point x="1768" y="566"/>
			<point x="1768" y="692" type="curve" smooth="yes"/>
			<point x="1768" y="1080"/>
			<point x="1490" y="1402"/>
			<point x="952" y="1402" type="curve" smooth="yes"/>
			<point x="406" y="1402"/>
			<point x="136" y="1072"/>
			<point x="136" y="694" type="curve" smooth="yes"/>
			<point x="136" y="346"/>
			<point x="372" y="-14"/>
		</contour>
		<contour>
			<point x="956" y="336" type="curve" smooth="yes"/>
			<point x="818" y="336"/>
			<point x="706" y="452"/>
			<point x="706" y="694" type="curve" smooth="yes"/>
			<point x="706" y="936"/>
			<point x="818" y="1052"/>
			<point x="956" y="1052" type="curve" smooth="yes"/>
			<point x="1002" y="1052"/>
			<point x="1120" y="1040"/>
			<point x="1198" y="932" type="curve"/>
			<point x="1198" y="932"/>
			<point x="1198" y="932"/>
			<point x="1198" y="932" type="curve"/>
			<point x="1198" y="456" type="line"/>
			<point x="1120" y="348"/>
			<point x="1002" y="336"/>
		</contour>
	</outline>
</glyph>
<glyph name="B" format="2">
	<unicode hex="0042"/>
	<advance width="1738"/>
	<outline>
		<contour>
			<point x="1600" y="374" type="curve" smooth="yes"/>
			<point x="1600" y="540"/>
			<point x="1456" y="688"/>
			<point x="1176" y="718" type="curve"/>
			<point x="1388" y="754"/>
			<point x="1532" y="872"/>
			<point x="1532" y="1026" type="curve" smooth="yes"/>
			<point x="1532" y="1214"/>
			<point x="1340" y="1372"/>
			<point x="1004" y="1372" type="curve" smooth="yes"/>
			<point x="94" y="1372" type="line"/>
			<point x="94" y="1268" type="line"/>
			<point x="310" y="1268" type="line"/>
			<point x="310" y="1268"/>
			<point x="310" y="1268"/>
			<point x="310" y="1268" type="curve"/>
			<point x="310" y="104" type="line"/>
			<point x="310" y="104"/>
			<point x="310" y="104"/>
			<point x="310" y="104" type="curve"/>
			<point x="94" y="104" type="line"/>
			<point x="94" y="0" type="line"/>
			<point x="1070" y="0" type="line" smooth="yes"/>
			<point x="1412" y="0"/>
			<point x="1600" y="170"/>
		</contour>
		<contour>
			<point x="582" y="756" type="line"/>
			<point x="582" y="1268" type="line"/>
			<point x="582" y="1268"/>
			<point x="582" y="1268"/>
			<point x="582" y="1268" type="curve"/>
			<point x="978" y="1268" type="line" smooth="yes"/>
			<point x="1184" y="1268"/>
			<point x="1236" y="1128"/>
			<point x="1236" y="1026" type="curve" smooth="yes"/>
			<point x="1236" y="868"/>
			<point x="1120" y="756"/>
			<point x="924" y="756" type="curve" smooth="yes"/>
		</contour>
		<contour>
			<point x="984" y="104" type="curve" smooth="yes"/>
			<point x="582" y="104" type="line"/>
			<point x="582" y="104"/>
			<point x="582" y="104"/>
			<point x="582" y="104" type="curve"/>
			<point x="582" y="672" type="line"/>
			<point x="1004" y="672" type="line" smooth="yes"/>
			<point x="1242" y="672"/>
			<point x="1292" y="494"/>
			<point x="1292" y="378" type="curve" smooth="yes"/>
			<point x="1292" y="214"/>
			<point x="1182" y="104"/>
		</contour>
	</outline>
</glyph>
<glyph name="C" format="2">
	<unicode hex="0043"/>
	<advance width="1768"/>
	<outline>
		<contour>
			<point x="136" y="686" type="curve" smooth="yes"/>
			<point x="136" y="294"/>
			<point x="434" y="-28"/>
			<point x="988" y="-28" type="curve" smooth="yes"/>
			<point x="1382" y="-28"/>
			<point x="1632" y="210"/>
			<point x="1632" y="454" type="curve" smooth="yes"/>
			<point x="1632" y="502"/>
			<point x="1610" y="502"/>
			<point x="1576" y="502" type="curve" smooth="yes"/>
			<point x="1526" y="502"/>
			<point x="1522" y="494"/>
			<point x="1520" y="444" type="curve" smooth="yes"/>
			<point x="1506" y="236"/>
			<point x="1296" y="76"/>
			<point x="1032" y="76" type="curve" smooth="yes"/>
			<point x="812" y="76"/>
			<point x="664" y="156"/>
			<point x="586" y="242" type="curve" smooth="yes"/>
			<point x="496" y="340"/>
			<point x="456" y="478"/>
			<point x="456" y="686" type="curve" smooth="yes"/>
			<point x="456" y="774"/>
			<point x="460" y="994"/>
			<point x="582" y="1128" type="curve" smooth="yes"/>
			<point x="724" y="1282"/>
			<point x="934" y="1296"/>
			<point x="1026" y="1296" type="curve" smooth="yes"/>
			<point x="1230" y="1296"/>
			<point x="1450" y="1170"/>
			<point x="1500" y="886" type="curve" smooth="yes"/>
			<point x="1506" y="846"/>
			<point x="1520" y="846"/>
			<point x="1566" y="846" type="curve" smooth="yes"/>
			<point x="1624" y="846"/>
			<point x="1632" y="848"/>
			<point x="1632" y="908" type="curve" smooth="yes"/>
			<point x="1632" y="1338" type="line" smooth="yes"/>
			<point x="1632" y="1376"/>
			<point x="1632" y="1400"/>
			<point x="1588" y="1400" type="curve" smooth="yes"/>
			<point x="1570" y="1400"/>
			<point x="1564" y="1400"/>
			<point x="1542" y="1380" type="curve" smooth="yes"/>
			<point x="1410" y="1264" type="line"/>
			<point x="1322" y="1326"/>
			<point x="1194" y="1400"/>
			<point x="986" y="1400" type="curve" smooth="yes"/>
			<point x="440" y="1400"/>
			<point x="136" y="1082"/>
		</contour>
	</outline>
</glyph>
<glyph name="D" format="2">
	<unicode hex="0044"/>
	<advance width="1874"/>
	<outline>
		<contour>
			<point x="1738" y="674" type="curve" smooth="yes"/>
			<point x="1738" y="1108"/>
			<point x="1424" y="1372"/>
			<point x="1000" y="1372" type="curve" smooth="yes"/>
			<point x="94" y="1372" type="line"/>
			<point x="94" y="1268" type="line"/>
			<point x="166" y="1268"/>
			<point x="238" y="1268"/>
			<point x="310" y="1268" type="curve"/>
			<point x="310" y="1268"/>
			<point x="310" y="1268"/>
			<point x="310" y="1268" type="curve"/>
			<point x="310" y="104" type="line"/>
			<point x="310" y="104"/>
			<point x="310" y="104"/>
			<point x="310" y="104" type="curve"/>
			<point x="238" y="104"/>
			<point x="166" y="104"/>
			<point x="94" y="104" type="curve"/>
			<point x="94" y="0" type="line"/>
			<point x="1002" y="0" type="line" smooth="yes"/>
			<point x="1428" y="0"/>
			<point x="1738" y="256"/>
		</contour>
		<contour>
			<point x="596" y="104" type="line"/>
			<point x="596" y="104"/>
			<point x="596" y="104"/>
			<point x="596" y="104" type="curve"/>
			<point x="596" y="1268" type="line"/>
			<point x="596" y="1268"/>
			<point x="596" y="1268"/>
			<point x="596" y="1268" type="curve"/>
			<point x="916" y="1268" type="line" smooth="yes"/>
			<point x="1104" y="1268"/>
			<point x="1223" y="1215"/>
			<point x="1299" y="1138" type="curve" smooth="yes"/>
			<point x="1430" y="1004"/>
			<point x="1430" y="800"/>
			<point x="1430" y="678" type="curve" smooth="yes"/>
			<point x="1430" y="556"/>
			<point x="1430" y="360"/>
			<point x="1303" y="232" type="curve" smooth="yes"/>
			<point x="1227" y="156"/>
			<point x="1108" y="104"/>
			<point x="918" y="104" type="curve" smooth="yes"/>
		</contour>
	</outline>
</glyph>
<glyph name="E" format="2">
	<unicode hex="0045"/>
	<advance width="1604"/>
	<outline>
		<contour>
			<point x="1536" y="550" type="line"/>
			<point x="1424" y="550" type="line"/>
			<point x="1376" y="264"/>
			<point x="1304" y="104"/>
			<point x="940" y="104" type="curve" smooth="yes"/>
			<point x="608" y="104" type="line"/>
			<point x="608" y="104"/>
			<point x="608" y="104"/>
			<point x="608" y="104" type="curve"/>
			<point x="608" y="654" type="line"/>
			<point x="728" y="654" type="line" smooth="yes"/>
			<point x="916" y="654"/>
			<point x="950" y="584"/>
			<point x="950" y="424" type="curve"/>
			<point x="1062" y="424" type="line"/>
			<point x="1062" y="988" type="line"/>
			<point x="950" y="988" type="line"/>
			<point x="950" y="828"/>
			<point x="916" y="758"/>
			<point x="728" y="758" type="curve" smooth="yes"/>
			<point x="608" y="758" type="line"/>
			<point x="608" y="1256" type="line"/>
			<point x="608" y="1256"/>
			<point x="608" y="1256"/>
			<point x="608" y="1256" type="curve"/>
			<point x="934" y="1256" type="line" smooth="yes"/>
			<point x="1222" y="1256"/>
			<point x="1320" y="1158"/>
			<point x="1356" y="874" type="curve"/>
			<point x="1468" y="874" type="line"/>
			<point x="1402" y="1360" type="line"/>
			<point x="94" y="1360" type="line"/>
			<point x="94" y="1256" type="line"/>
			<point x="310" y="1256" type="line"/>
			<point x="310" y="1256"/>
			<point x="310" y="1256"/>
			<point x="310" y="1256" type="curve"/>
			<point x="310" y="104" type="line"/>
			<point x="310" y="104"/>
			<point x="310" y="104"/>
			<point x="310" y="104" type="curve"/>
			<point x="94" y="104" type="line"/>
			<point x="94" y="0" type="line"/>
			<point x="1438" y="0" type="line"/>
		</contour>
	</outline>
</glyph>
<glyph name="F" format="2">
	<unicode hex="0046"/>
	<advance width="1536"/>
	<outline>
		<contour>
			<point x="1368" y="1360" type="line"/>
			<point x="94" y="1360" type="line"/>
			<point x="94" y="1256" type="line"/>
			<point x="310" y="1256" type="line"/>
			<point x="310" y="1256"/>
			<point x="310" y="1256"/>
			<point x="310" y="1256" type="curve"/>
			<point x="310" y="104" type="line"/>
			<point x="310" y="104"/>
			<point x="310" y="104"/>
			<point x="310" y="104" type="curve"/>
			<point x="94" y="104" type="line"/>
			<point x="94" y="0" type="line"/>
			<point x="170" y="6"/>
			<point x="384" y="6"/>
			<point x="472" y="6" type="curve" smooth="yes"/>
			<point x="560" y="6"/>
			<point x="804" y="6"/>
			<point x="878" y="0" type="curve"/>
			<point x="878" y="104" type="line"/>
			<point x="608" y="104" type="line"/>
			<point x="608" y="104"/>
			<point x="608" y="104"/>
			<point x="608" y="104" type="curve"/>
			<point x="608" y="628" type="line"/>
			<point x="720" y="628" type="line" smooth="yes"/>
			<point x="912" y="628"/>
			<point x="936" y="548"/>
			<point x="936" y="398" type="curve"/>
			<point x="1048" y="398" type="line"/>
			<point x="1048" y="962" type="line"/>
			<point x="936" y="962" type="line"/>
			<point x="936" y="812"/>
			<point x="912" y="732"/>
			<point x="720" y="732" type="curve" smooth="yes"/>
			<point x="608" y="732" type="line"/>
			<point x="608" y="1256" type="line"/>
			<point x="608" y="1256"/>
			<point x="608" y="1256"/>
			<point x="608" y="1256" type="curve"/>
			<point x="914" y="1256" type="line" smooth="yes"/>
			<point x="1214" y="1256"/>
			<point x="1288" y="1134"/>
			<point x="1322" y="874" type="curve"/>
			<point x="1434" y="874" type="line"/>
		</contour>
	</outline>
</glyph>
<glyph name="H" format="2">
	<unicode hex="0048"/>
	<advance width="1908"/>
	<outline>
		<contour>
			<point x="94" y="0" type="line"/>
			<point x="170" y="6"/>
			<point x="372" y="6"/>
			<point x="460" y="6" type="curve" smooth="yes"/>
			<point x="546" y="6"/>
			<point x="748" y="6"/>
			<point x="824" y="0" type="curve"/>
			<point x="824" y="104" type="line"/>
			<point x="608" y="104" type="line"/>
			<point x="608" y="104"/>
			<point x="608" y="104"/>
			<point x="608" y="104" type="curve"/>
			<point x="608" y="662" type="line"/>
			<point x="1300" y="662" type="line"/>
			<point x="1300" y="104" type="line"/>
			<point x="1300" y="104"/>
			<point x="1300" y="104"/>
			<point x="1300" y="104" type="curve"/>
			<point x="1084" y="104" type="line"/>
			<point x="1084" y="0" type="line"/>
			<point x="1160" y="6"/>
			<point x="1362" y="6"/>
			<point x="1450" y="6" type="curve" smooth="yes"/>
			<point x="1536" y="6"/>
			<point x="1738" y="6"/>
			<point x="1814" y="0" type="curve"/>
			<point x="1814" y="104" type="line"/>
			<point x="1598" y="104" type="line"/>
			<point x="1598" y="104"/>
			<point x="1598" y="104"/>
			<point x="1598" y="104" type="curve"/>
			<point x="1598" y="1268" type="line"/>
			<point x="1598" y="1268"/>
			<point x="1598" y="1268"/>
			<point x="1598" y="1268" type="curve"/>
			<point x="1814" y="1268" type="line"/>
			<point x="1814" y="1372" type="line"/>
			<point x="1738" y="1366"/>
			<point x="1536" y="1366"/>
			<point x="1450" y="1366" type="curve" smooth="yes"/>
			<point x="1362" y="1366"/>
			<point x="1160" y="1366"/>
			<point x="1084" y="1372" type="curve"/>
			<point x="1084" y="1268" type="line"/>
			<point x="1300" y="1268" type="line"/>
			<point x="1300" y="1268"/>
			<point x="1300" y="1268"/>
			<point x="1300" y="1268" type="curve"/>
			<point x="1300" y="766" type="line"/>
			<point x="608" y="766" type="line"/>
			<point x="608" y="1268" type="line"/>
			<point x="608" y="1268"/>
			<point x="608" y="1268"/>
			<point x="608" y="1268" type="curve"/>
			<point x="824" y="1268" type="line"/>
			<point x="824" y="1372" type="line"/>
			<point x="748" y="1366"/>
			<point x="546" y="1366"/>
			<point x="460" y="1366" type="curve" smooth="yes"/>
			<point x="372" y="1366"/>
			<point x="170" y="1366"/>
			<point x="94" y="1372" type="curve"/>
			<point x="94" y="1268" type="line"/>
			<point x="310" y="1268" type="line"/>
			<point x="310" y="1268"/>
			<point x="310" y="1268"/>
			<point x="310" y="1268" type="curve"/>
			<point x="310" y="104" type="line"/>
			<point x="310" y="104"/>
			<point x="310" y="104"/>
			<point x="310" y="104" type="curve"/>
			<point x="94" y="104" type="line"/>
		</contour>
	</outline>
</glyph>
<glyph name="I" format="2">
	<unicode hex="0049"/>
	<advance width="918"/>
	<outline>
		<contour>
			<point x="84" y="0" type="line"/>
			<point x="158" y="6"/>
			<point x="372" y="6"/>
			<point x="458" y="6" type="curve" smooth="yes"/>
			<point x="544" y="6"/>
			<point x="760" y="6"/>
			<point x="834" y="0" type="curve"/>
			<point x="834" y="104" type="line"/>
			<point x="608" y="104" type="line"/>
			<point x="608" y="104"/>
			<point x="608" y="104"/>
			<point x="608" y="104" type="curve"/>
			<point x="608" y="1268" type="line"/>
			<point x="608" y="1268"/>
			<point x="608" y="1268"/>
			<point x="608" y="1268" type="curve"/>
			<point x="834" y="1268" type="line"/>
			<point x="834" y="1372" type="line"/>
			<point x="760" y="1366"/>
			<point x="546" y="1366"/>
			<point x="460" y="1366" type="curve" smooth="yes"/>
			<point x="374" y="1366"/>
			<point x="158" y="1366"/>
			<point x="84" y="1372" type="curve"/>
			<point x="84" y="1268" type="line"/>
			<point x="310" y="1268" type="line"/>
			<point x="310" y="1268"/>
			<point x="310" y="1268"/>
			<point x="310" y="1268" type="curve"/>
			<point x="310" y="104" type="line"/>
			<point x="310" y="104"/>
			<point x="310" y="104"/>
			<point x="310" y="104" type="curve"/>
			<point x="84" y="104" type="line"/>
		</contour>
	</outline>
</glyph>
<glyph name="J" format="2">
	<unicode hex="004A"/>
	<advance width="631"/>
	<outline>
		<contour>
			<point x="233" y="-14" type="curve" smooth="yes"/>
			<point x="378" y="-14"/>
			<point x="475" y="46"/>
			<point x="475" y="150" type="curve" smooth="yes"/>
			<point x="475" y="634" type="line"/>
			<point x="475" y="634"/>
			<point x="475" y="634"/>
			<point x="475" y="634" type="curve"/>
			<point x="556" y="634" type="line"/>
			<point x="556" y="686" type="line"/>
			<point x="476" y="683"/>
			<point x="474" y="683"/>
			<point x="388" y="683" type="curve" smooth="yes"/>
			<point x="344" y="683"/>
			<point x="229" y="683"/>
			<point x="192" y="686" type="curve"/>
			<point x="192" y="634" type="line"/>
			<point x="332" y="634" type="line"/>
			<point x="332" y="634"/>
			<point x="332" y="634"/>
			<point x="332" y="634" type="curve"/>
			<point x="332" y="149" type="line" smooth="yes"/>
			<point x="332" y="62"/>
			<point x="286" y="28"/>
			<point x="228" y="28" type="curve" smooth="yes"/>
			<point x="220" y="28"/>
			<point x="184" y="28"/>
			<point x="148" y="44" type="curve"/>
			<point x="173" y="59"/>
			<point x="187" y="85"/>
			<point x="187" y="114" type="curve" smooth="yes"/>
			<point x="187" y="162"/>
			<point x="153" y="195"/>
			<point x="106" y="195" type="curve" smooth="yes"/>
			<point x="59" y="195"/>
			<point x="25" y="162"/>
			<point x="25" y="114" type="curve" smooth="yes"/>
			<point x="25" y="35"/>
			<point x="104" y="-14"/>
		</contour>
	</outline>
</glyph>
<glyph name="L" format="2">
  <advance width="734"/>
  <unicode hex="004C"/>
  <outline>
    <contour>
      <point x="683" y="275" type="line"/>
      <point x="627" y="275" type="line"/>
      <point x="619" y="206"/>
      <point x="600" y="52"/>
      <point x="414" y="52" type="curve" smooth="yes"/>
      <point x="304" y="52" type="line"/>
      <point x="304.0" y="52.0"/>
      <point x="304.0" y="52.0"/>
      <point x="304" y="52" type="curve"/>
      <point x="304" y="634" type="line"/>
      <point x="304.0" y="634.0"/>
      <point x="304.0" y="634.0"/>
      <point x="304" y="634" type="curve"/>
      <point x="439" y="634" type="line"/>
      <point x="439" y="686" type="line"/>
      <point x="402" y="683"/>
      <point x="281" y="683"/>
      <point x="237" y="683" type="curve" smooth="yes"/>
      <point x="193" y="683"/>
      <point x="85" y="683"/>
      <point x="47" y="686" type="curve"/>
      <point x="47" y="634" type="line"/>
      <point x="155" y="634" type="line"/>
      <point x="155.0" y="634.0"/>
      <point x="155.0" y="634.0"/>
      <point x="155" y="634" type="curve"/>
      <point x="155" y="52" type="line"/>
      <point x="155.0" y="52.0"/>
      <point x="155.0" y="52.0"/>
      <point x="155" y="52" type="curve"/>
      <point x="47" y="52" type="line"/>
      <point x="47" y="0" type="line"/>
      <point x="650" y="0" type="line"/>
    </contour>
  </outline>
</glyph>
<glyph name="N" format="2">
	<unicode hex="004E"/>
	<advance width="1908"/>
	<outline>
		<contour>
			<point x="1474" y="414" type="line"/>
			<point x="632" y="1344" type="line" smooth="yes"/>
			<point x="606" y="1370"/>
			<point x="604" y="1372"/>
			<point x="562" y="1372" type="curve" smooth="yes"/>
			<point x="94" y="1372" type="line"/>
			<point x="94" y="1268" type="line"/>
			<point x="94" y="1268" type="line"/>
			<point x="166" y="1268"/>
			<point x="238" y="1268"/>
			<point x="310" y="1268" type="curve"/>
			<point x="310" y="1268"/>
			<point x="310" y="1268"/>
			<point x="310" y="1268" type="curve"/>
			<point x="310" y="146" type="line" smooth="yes"/>
			<point x="310" y="106"/>
			<point x="286" y="104"/>
			<point x="150" y="104" type="curve" smooth="yes"/>
			<point x="94" y="104" type="line"/>
			<point x="94" y="0" type="line"/>
			<point x="252" y="6"/>
			<point x="276" y="6"/>
			<point x="372" y="6" type="curve" smooth="yes"/>
			<point x="468" y="6"/>
			<point x="492" y="6"/>
			<point x="650" y="0" type="curve"/>
			<point x="650" y="104" type="line"/>
			<point x="598" y="104" type="line" smooth="yes"/>
			<point x="464" y="104"/>
			<point x="434" y="110"/>
			<point x="434" y="146" type="curve" smooth="yes"/>
			<point x="434" y="1176" type="line"/>
			<point x="434" y="1176"/>
			<point x="434" y="1176"/>
			<point x="434" y="1176" type="curve"/>
			<point x="1474" y="24" type="line" smooth="yes"/>
			<point x="1496" y="0"/>
			<point x="1506" y="0"/>
			<point x="1536" y="0" type="curve" smooth="yes"/>
			<point x="1596" y="0"/>
			<point x="1598" y="20"/>
			<point x="1598" y="68" type="curve" smooth="yes"/>
			<point x="1598" y="1230" type="line" smooth="yes"/>
			<point x="1598" y="1272"/>
			<point x="1682" y="1268"/>
			<point x="1758" y="1268" type="curve" smooth="yes"/>
			<point x="1814" y="1268" type="line"/>
			<point x="1814" y="1372" type="line"/>
			<point x="1656" y="1366"/>
			<point x="1632" y="1366"/>
			<point x="1536" y="1366" type="curve" smooth="yes"/>
			<point x="1440" y="1366"/>
			<point x="1416" y="1366"/>
			<point x="1258" y="1372" type="curve"/>
			<point x="1258" y="1268" type="line"/>
			<point x="1314" y="1268" type="line" smooth="yes"/>
			<point x="1364" y="1268"/>
			<point x="1474" y="1268"/>
			<point x="1474" y="1230" type="curve" smooth="yes"/>
		</contour>
	</outline>
</glyph>
<glyph name="O" format="2">
	<unicode hex="004F"/>
	<advance width="1840"/>
	<outline>
		<contour>
			<point x="1702" y="678" type="curve" smooth="yes"/>
			<point x="1702" y="1080"/>
			<point x="1428" y="1400"/>
			<point x="918" y="1400" type="curve" smooth="yes"/>
			<point x="416" y="1400"/>
			<point x="136" y="1086"/>
			<point x="136" y="678" type="curve" smooth="yes"/>
			<point x="136" y="276"/>
			<point x="418" y="-28"/>
			<point x="918" y="-28" type="curve" smooth="yes"/>
			<point x="1430" y="-28"/>
			<point x="1702" y="286"/>
		</contour>
		<contour>
			<point x="920" y="70" type="curve" smooth="yes"/>
			<point x="806" y="70"/>
			<point x="644" y="106"/>
			<point x="540" y="282" type="curve" smooth="yes"/>
			<point x="460" y="418"/>
			<point x="456" y="606"/>
			<point x="456" y="708" type="curve" smooth="yes"/>
			<point x="456" y="894"/>
			<point x="478" y="1030"/>
			<point x="568" y="1150" type="curve" smooth="yes"/>
			<point x="620" y="1218"/>
			<point x="740" y="1306"/>
			<point x="918" y="1306" type="curve" smooth="yes"/>
			<point x="1062" y="1306"/>
			<point x="1196" y="1248"/>
			<point x="1278" y="1138" type="curve" smooth="yes"/>
			<point x="1374" y="1008"/>
			<point x="1382" y="836"/>
			<point x="1382" y="708" type="curve" smooth="yes"/>
			<point x="1382" y="500"/>
			<point x="1354" y="376"/>
			<point x="1288" y="266" type="curve" smooth="yes"/>
			<point x="1210" y="138"/>
			<point x="1068" y="70"/>
		</contour>
	</outline>
</glyph>
<glyph name="P" format="2">
	<unicode hex="0050"/>
	<advance width="1670"/>
	<outline>
		<contour>
			<point x="608" y="592" type="line"/>
			<point x="970" y="592" type="line" smooth="yes"/>
			<point x="1328" y="592"/>
			<point x="1532" y="764"/>
			<point x="1532" y="978" type="curve" smooth="yes"/>
			<point x="1532" y="1194"/>
			<point x="1330" y="1372"/>
			<point x="970" y="1372" type="curve" smooth="yes"/>
			<point x="94" y="1372" type="line"/>
			<point x="94" y="1268" type="line"/>
			<point x="310" y="1268" type="line"/>
			<point x="310" y="1268"/>
			<point x="310" y="1268"/>
			<point x="310" y="1268" type="curve"/>
			<point x="310" y="104" type="line"/>
			<point x="310" y="104"/>
			<point x="310" y="104"/>
			<point x="310" y="104" type="curve"/>
			<point x="94" y="104" type="line"/>
			<point x="94" y="0" type="line"/>
			<point x="170" y="6"/>
			<point x="372" y="6"/>
			<point x="460" y="6" type="curve" smooth="yes"/>
			<point x="546" y="6"/>
			<point x="748" y="6"/>
			<point x="824" y="0" type="curve"/>
			<point x="824" y="104" type="line"/>
			<point x="608" y="104" type="line"/>
			<point x="608" y="104"/>
			<point x="608" y="104"/>
			<point x="608" y="104" type="curve"/>
		</contour>
		<contour>
			<point x="596" y="686" type="line"/>
			<point x="596" y="1268" type="line"/>
			<point x="596" y="1268"/>
			<point x="596" y="1268"/>
			<point x="596" y="1268" type="curve"/>
			<point x="896" y="1268" type="line" smooth="yes"/>
			<point x="1212" y="1268"/>
			<point x="1212" y="1116"/>
			<point x="1212" y="978" type="curve" smooth="yes"/>
			<point x="1212" y="840"/>
			<point x="1212" y="686"/>
			<point x="894" y="686" type="curve" smooth="yes"/>
		</contour>
	</outline>
</glyph>
<glyph name="Q" format="2">
	<unicode hex="0051"/>
	<advance width="1840"/>
	<outline>
		<contour>
			<point x="1272" y="32" type="curve"/>
			<point x="1570" y="152"/>
			<point x="1702" y="400"/>
			<point x="1702" y="678" type="curve" smooth="yes"/>
			<point x="1702" y="1080"/>
			<point x="1428" y="1400"/>
			<point x="918" y="1400" type="curve" smooth="yes"/>
			<point x="416" y="1400"/>
			<point x="136" y="1086"/>
			<point x="136" y="678" type="curve" smooth="yes"/>
			<point x="136" y="284"/>
			<point x="410" y="-28"/>
			<point x="920" y="-28" type="curve" smooth="yes"/>
			<point x="944" y="-28"/>
			<point x="1030" y="-28"/>
			<point x="1120" y="-10" type="curve"/>
			<point x="1174" y="-204"/>
			<point x="1224" y="-388"/>
			<point x="1422" y="-388" type="curve" smooth="yes"/>
			<point x="1628" y="-388"/>
			<point x="1716" y="-164"/>
			<point x="1716" y="-14" type="curve" smooth="yes"/>
			<point x="1716" y="0"/>
			<point x="1716" y="42"/>
			<point x="1674" y="42" type="curve" smooth="yes"/>
			<point x="1638" y="42"/>
			<point x="1634" y="10"/>
			<point x="1632" y="-6" type="curve" smooth="yes"/>
			<point x="1624" y="-68"/>
			<point x="1490" y="-68"/>
			<point x="1458" y="-68" type="curve" smooth="yes"/>
			<point x="1408" y="-68"/>
			<point x="1354" y="-68"/>
		</contour>
		<contour>
			<point x="710" y="110" type="curve"/>
			<point x="482" y="220"/>
			<point x="444" y="450"/>
			<point x="444" y="678" type="curve" smooth="yes"/>
			<point x="444" y="790"/>
			<point x="450" y="988"/>
			<point x="552" y="1130" type="curve" smooth="yes"/>
			<point x="648" y="1262"/>
			<point x="796" y="1306"/>
			<point x="918" y="1306" type="curve" smooth="yes"/>
			<point x="1054" y="1306"/>
			<point x="1192" y="1254"/>
			<point x="1282" y="1134" type="curve" smooth="yes"/>
			<point x="1386" y="994"/>
			<point x="1394" y="800"/>
			<point x="1394" y="678" type="curve" smooth="yes"/>
			<point x="1394" y="570"/>
			<point x="1394" y="276"/>
			<point x="1186" y="144" type="curve"/>
			<point x="1128" y="222"/>
			<point x="1048" y="316"/>
			<point x="918" y="316" type="curve" smooth="yes"/>
			<point x="804" y="316"/>
			<point x="706" y="248"/>
			<point x="706" y="146" type="curve" smooth="yes"/>
			<point x="706" y="136"/>
			<point x="708" y="120"/>
		</contour>
		<contour>
			<point x="1084" y="94" type="curve"/>
			<point x="1012" y="66"/>
			<point x="936" y="66"/>
			<point x="920" y="66" type="curve" smooth="yes"/>
			<point x="860" y="66"/>
			<point x="790" y="84"/>
			<point x="790" y="146" type="curve" smooth="yes"/>
			<point x="790" y="204"/>
			<point x="860" y="232"/>
			<point x="918" y="232" type="curve" smooth="yes"/>
			<point x="1008" y="232"/>
			<point x="1050" y="176"/>
		</contour>
	</outline>
</glyph>
<glyph name="R" format="2">
	<unicode hex="0052"/>
	<advance width="1830"/>
	<outline>
		<contour>
			<point x="1192" y="680" type="curve"/>
			<point x="1402" y="738"/>
			<point x="1522" y="858"/>
			<point x="1522" y="998" type="curve" smooth="yes"/>
			<point x="1522" y="1210"/>
			<point x="1276" y="1372"/>
			<point x="890" y="1372" type="curve" smooth="yes"/>
			<point x="94" y="1372" type="line"/>
			<point x="94" y="1268" type="line"/>
			<point x="310" y="1268" type="line"/>
			<point x="310" y="1268"/>
			<point x="310" y="1268"/>
			<point x="310" y="1268" type="curve"/>
			<point x="310" y="104" type="line"/>
			<point x="310" y="104"/>
			<point x="310" y="104"/>
			<point x="310" y="104" type="curve"/>
			<point x="94" y="104" type="line"/>
			<point x="94" y="0" type="line"/>
			<point x="172" y="6"/>
			<point x="366" y="6"/>
			<point x="454" y="6" type="curve" smooth="yes"/>
			<point x="542" y="6"/>
			<point x="734" y="6"/>
			<point x="812" y="0" type="curve"/>
			<point x="812" y="104" type="line"/>
			<point x="596" y="104" type="line"/>
			<point x="596" y="104"/>
			<point x="596" y="104"/>
			<point x="596" y="104" type="curve"/>
			<point x="596" y="644" type="line"/>
			<point x="852" y="644" type="line" smooth="yes"/>
			<point x="928" y="644"/>
			<point x="998" y="624"/>
			<point x="1052" y="568" type="curve" smooth="yes"/>
			<point x="1112" y="510"/>
			<point x="1112" y="468"/>
			<point x="1112" y="332" type="curve" smooth="yes"/>
			<point x="1112" y="198"/>
			<point x="1112" y="108"/>
			<point x="1240" y="34" type="curve" smooth="yes"/>
			<point x="1328" y="-16"/>
			<point x="1470" y="-28"/>
			<point x="1564" y="-28" type="curve" smooth="yes"/>
			<point x="1788" y="-28"/>
			<point x="1822" y="150"/>
			<point x="1822" y="196" type="curve" smooth="yes"/>
			<point x="1822" y="240"/>
			<point x="1790" y="246"/>
			<point x="1766" y="246" type="curve" smooth="yes"/>
			<point x="1724" y="246"/>
			<point x="1712" y="228"/>
			<point x="1710" y="200" type="curve" smooth="yes"/>
			<point x="1700" y="76"/>
			<point x="1618" y="56"/>
			<point x="1584" y="56" type="curve" smooth="yes"/>
			<point x="1487" y="56"/>
			<point x="1455" y="132"/>
			<point x="1436" y="244" type="curve" smooth="yes"/>
			<point x="1430" y="277"/>
			<point x="1425" y="315"/>
			<point x="1420" y="354" type="curve" smooth="yes"/>
			<point x="1404" y="488"/>
			<point x="1388" y="606"/>
		</contour>
		<contour>
			<point x="596" y="728" type="line"/>
			<point x="596" y="1268" type="line"/>
			<point x="596" y="1268"/>
			<point x="596" y="1268"/>
			<point x="596" y="1268" type="curve"/>
			<point x="685" y="1268"/>
			<point x="773" y="1268"/>
			<point x="862" y="1268" type="curve" smooth="yes"/>
			<point x="1188" y="1268"/>
			<point x="1202" y="1122"/>
			<point x="1202" y="998" type="curve" smooth="yes"/>
			<point x="1202" y="880"/>
			<point x="1192" y="728"/>
			<point x="856" y="728" type="curve" smooth="yes"/>
		</contour>
	</outline>
</glyph>
<glyph name="S" format="2">
	<unicode hex="0053"/>
	<advance width="1360"/>
	<outline>
		<contour>
			<point x="1022" y="306" type="curve" smooth="yes"/>
			<point x="1022" y="244"/>
			<point x="994" y="76"/>
			<point x="738" y="76" type="curve" smooth="yes"/>
			<point x="406" y="76"/>
			<point x="248" y="212"/>
			<point x="248" y="424" type="curve" smooth="yes"/>
			<point x="248" y="456"/>
			<point x="214" y="456"/>
			<point x="192" y="456" type="curve" smooth="yes"/>
			<point x="136" y="456"/>
			<point x="136" y="440"/>
			<point x="136" y="394" type="curve" smooth="yes"/>
			<point x="136" y="34" type="line" smooth="yes"/>
			<point x="136" y="-4"/>
			<point x="136" y="-28"/>
			<point x="180" y="-28" type="curve" smooth="yes"/>
			<point x="204" y="-28"/>
			<point x="206" y="-26"/>
			<point x="252" y="20" type="curve" smooth="yes"/>
			<point x="272" y="39"/>
			<point x="292" y="59"/>
			<point x="312" y="78" type="curve"/>
			<point x="452" y="-14"/>
			<point x="636" y="-28"/>
			<point x="740" y="-28" type="curve" smooth="yes"/>
			<point x="1100" y="-28"/>
			<point x="1224" y="208"/>
			<point x="1224" y="404" type="curve" smooth="yes"/>
			<point x="1224" y="521"/>
			<point x="1176" y="622"/>
			<point x="1102" y="697" type="curve" smooth="yes"/>
			<point x="1035" y="765"/>
			<point x="948" y="811"/>
			<point x="854" y="830" type="curve" smooth="yes"/>
			<point x="753" y="851"/>
			<point x="652" y="871"/>
			<point x="550" y="892" type="curve" smooth="yes"/>
			<point x="406" y="922"/>
			<point x="338" y="1010"/>
			<point x="338" y="1098" type="curve" smooth="yes"/>
			<point x="338" y="1186"/>
			<point x="400" y="1306"/>
			<point x="614" y="1306" type="curve" smooth="yes"/>
			<point x="882" y="1306"/>
			<point x="1012" y="1158"/>
			<point x="1042" y="964" type="curve" smooth="yes"/>
			<point x="1048" y="926"/>
			<point x="1050" y="916"/>
			<point x="1100" y="916" type="curve" smooth="yes"/>
			<point x="1154" y="916"/>
			<point x="1156" y="930"/>
			<point x="1156" y="978" type="curve" smooth="yes"/>
			<point x="1156" y="1338" type="line" smooth="yes"/>
			<point x="1156" y="1376"/>
			<point x="1156" y="1400"/>
			<point x="1112" y="1400" type="curve" smooth="yes"/>
			<point x="1088" y="1400"/>
			<point x="1086" y="1398"/>
			<point x="1040" y="1352" type="curve" smooth="yes"/>
			<point x="1019" y="1332"/>
			<point x="999" y="1312"/>
			<point x="978" y="1292" type="curve"/>
			<point x="886" y="1358"/>
			<point x="774" y="1400"/>
			<point x="614" y="1400" type="curve" smooth="yes"/>
			<point x="276" y="1400"/>
			<point x="136" y="1190"/>
			<point x="136" y="996" type="curve" smooth="yes"/>
			<point x="136" y="910"/>
			<point x="164" y="826"/>
			<point x="232" y="748" type="curve" smooth="yes"/>
			<point x="336" y="630"/>
			<point x="462" y="606"/>
			<point x="550" y="588" type="curve" smooth="yes"/>
			<point x="632" y="571"/>
			<point x="714" y="555"/>
			<point x="796" y="538" type="curve" smooth="yes"/>
			<point x="968" y="502"/>
			<point x="1022" y="394"/>
		</contour>
	</outline>
</glyph>
<glyph name="T" format="2">
	<unicode hex="0054"/>
	<advance width="1704"/>
	<outline>
		<contour>
			<point x="1568" y="1346" type="line"/>
			<point x="134" y="1346" type="line"/>
			<point x="88" y="860" type="line"/>
			<point x="200" y="860" type="line"/>
			<point x="220" y="1094"/>
			<point x="250" y="1242"/>
			<point x="538" y="1242" type="curve" smooth="yes"/>
			<point x="593" y="1242"/>
			<point x="647" y="1242"/>
			<point x="702" y="1242" type="curve"/>
			<point x="702" y="1242"/>
			<point x="702" y="1242"/>
			<point x="702" y="1242" type="curve"/>
			<point x="702" y="104" type="line"/>
			<point x="702" y="104"/>
			<point x="702" y="104"/>
			<point x="702" y="104" type="curve"/>
			<point x="398" y="104" type="line"/>
			<point x="398" y="0" type="line"/>
			<point x="474" y="6"/>
			<point x="756" y="6"/>
			<point x="850" y="6" type="curve" smooth="yes"/>
			<point x="946" y="6"/>
			<point x="1228" y="6"/>
			<point x="1304" y="0" type="curve"/>
			<point x="1304" y="104" type="line"/>
			<point x="1000" y="104" type="line"/>
			<point x="1000" y="104"/>
			<point x="1000" y="104"/>
			<point x="1000" y="104" type="curve"/>
			<point x="1000" y="1242" type="line"/>
			<point x="1000" y="1242"/>
			<point x="1000" y="1242"/>
			<point x="1000" y="1242" type="curve"/>
			<point x="1055" y="1242"/>
			<point x="1109" y="1242"/>
			<point x="1164" y="1242" type="curve" smooth="yes"/>
			<point x="1452" y="1242"/>
			<point x="1482" y="1094"/>
			<point x="1502" y="860" type="curve"/>
			<point x="1614" y="860" type="line"/>
		</contour>
	</outline>
</glyph>
<glyph name="U" format="2">
	<unicode hex="0055"/>
	<advance width="1876"/>
	<outline>
		<contour>
			<point x="982" y="76" type="curve" smooth="yes"/>
			<point x="612" y="76"/>
			<point x="608" y="340"/>
			<point x="608" y="450" type="curve" smooth="yes"/>
			<point x="608" y="1268" type="line"/>
			<point x="608" y="1268"/>
			<point x="608" y="1268"/>
			<point x="608" y="1268" type="curve"/>
			<point x="824" y="1268" type="line"/>
			<point x="824" y="1372" type="line"/>
			<point x="748" y="1366"/>
			<point x="546" y="1366"/>
			<point x="460" y="1366" type="curve" smooth="yes"/>
			<point x="372" y="1366"/>
			<point x="170" y="1366"/>
			<point x="94" y="1372" type="curve"/>
			<point x="94" y="1268" type="line"/>
			<point x="310" y="1268" type="line"/>
			<point x="310" y="1268"/>
			<point x="310" y="1268"/>
			<point x="310" y="1268" type="curve"/>
			<point x="310" y="462" type="line" smooth="yes"/>
			<point x="310" y="196"/>
			<point x="534" y="-28"/>
			<point x="974" y="-28" type="curve" smooth="yes"/>
			<point x="1392" y="-28"/>
			<point x="1566" y="214"/>
			<point x="1566" y="460" type="curve" smooth="yes"/>
			<point x="1566" y="1226" type="line" smooth="yes"/>
			<point x="1566" y="1268"/>
			<point x="1610" y="1268"/>
			<point x="1726" y="1268" type="curve" smooth="yes"/>
			<point x="1782" y="1268" type="line"/>
			<point x="1782" y="1372" type="line"/>
			<point x="1624" y="1366"/>
			<point x="1620" y="1366"/>
			<point x="1500" y="1366" type="curve" smooth="yes"/>
			<point x="1380" y="1366"/>
			<point x="1376" y="1366"/>
			<point x="1218" y="1372" type="curve"/>
			<point x="1218" y="1268" type="line"/>
			<point x="1274" y="1268" type="line" smooth="yes"/>
			<point x="1394" y="1268"/>
			<point x="1434" y="1268"/>
			<point x="1434" y="1226" type="curve" smooth="yes"/>
			<point x="1434" y="464" type="line" smooth="yes"/>
			<point x="1434" y="184"/>
			<point x="1226" y="76"/>
		</contour>
	</outline>
</glyph>
<glyph name="V" format="2">
	<unicode hex="0056"/>
	<advance width="1844"/>
	<outline>
		<contour>
			<point x="920" y="-20" type="curve" smooth="yes"/>
			<point x="966" y="-20"/>
			<point x="994" y="-20"/>
			<point x="1018" y="32" type="curve" smooth="yes"/>
			<point x="1578" y="1226" type="line" smooth="yes"/>
			<point x="1590" y="1254"/>
			<point x="1598" y="1268"/>
			<point x="1740" y="1268" type="curve" smooth="yes"/>
			<point x="1784" y="1268" type="line"/>
			<point x="1784" y="1372" type="line"/>
			<point x="1704" y="1366"/>
			<point x="1596" y="1366"/>
			<point x="1540" y="1366" type="curve" smooth="yes"/>
			<point x="1472" y="1366"/>
			<point x="1428" y="1366"/>
			<point x="1270" y="1372" type="curve"/>
			<point x="1270" y="1268" type="line"/>
			<point x="1322" y="1268"/>
			<point x="1388" y="1268"/>
			<point x="1442" y="1250" type="curve"/>
			<point x="1442" y="1248"/>
			<point x="1436" y="1236"/>
			<point x="1430" y="1224" type="curve" smooth="yes"/>
			<point x="1006" y="316" type="line"/>
			<point x="560" y="1268" type="line"/>
			<point x="560" y="1268"/>
			<point x="560" y="1268"/>
			<point x="560" y="1268" type="curve"/>
			<point x="621" y="1268"/>
			<point x="681" y="1268"/>
			<point x="742" y="1268" type="curve"/>
			<point x="742" y="1372" type="line"/>
			<point x="668" y="1366"/>
			<point x="472" y="1366"/>
			<point x="388" y="1366" type="curve" smooth="yes"/>
			<point x="294" y="1366"/>
			<point x="206" y="1366"/>
			<point x="58" y="1372" type="curve"/>
			<point x="58" y="1268" type="line"/>
			<point x="244" y="1268" type="line"/>
			<point x="244" y="1268"/>
			<point x="244" y="1268"/>
			<point x="244" y="1268" type="curve"/>
			<point x="822" y="34" type="line" smooth="yes"/>
			<point x="848" y="-20"/>
			<point x="878" y="-20"/>
		</contour>
	</outline>
</glyph>
<glyph name="W" format="2">
	<unicode hex="0057"/>
	<advance width="2524"/>
	<outline>
		<contour>
			<point x="904" y="360" type="line"/>
			<point x="536" y="1268" type="line"/>
			<point x="536" y="1268"/>
			<point x="536" y="1268"/>
			<point x="536" y="1268" type="curve"/>
			<point x="598" y="1268"/>
			<point x="660" y="1268"/>
			<point x="722" y="1268" type="curve"/>
			<point x="722" y="1372" type="line"/>
			<point x="646" y="1366"/>
			<point x="460" y="1366"/>
			<point x="374" y="1366" type="curve" smooth="yes"/>
			<point x="268" y="1366"/>
			<point x="160" y="1368"/>
			<point x="54" y="1372" type="curve"/>
			<point x="54" y="1268" type="line"/>
			<point x="228" y="1268" type="line"/>
			<point x="228" y="1268"/>
			<point x="228" y="1268"/>
			<point x="228" y="1268" type="curve"/>
			<point x="728" y="38" type="line" smooth="yes"/>
			<point x="742" y="2"/>
			<point x="752" y="-20"/>
			<point x="812" y="-20" type="curve" smooth="yes"/>
			<point x="838" y="-20"/>
			<point x="872" y="-20"/>
			<point x="894" y="32" type="curve" smooth="yes"/>
			<point x="1262" y="940" type="line"/>
			<point x="1630" y="34" type="line" smooth="yes"/>
			<point x="1650" y="-14"/>
			<point x="1676" y="-20"/>
			<point x="1712" y="-20" type="curve" smooth="yes"/>
			<point x="1772" y="-20"/>
			<point x="1782" y="2"/>
			<point x="1796" y="38" type="curve" smooth="yes"/>
			<point x="2280" y="1224" type="line" smooth="yes"/>
			<point x="2294" y="1256"/>
			<point x="2298" y="1268"/>
			<point x="2432" y="1268" type="curve" smooth="yes"/>
			<point x="2470" y="1268" type="line"/>
			<point x="2470" y="1372" type="line"/>
			<point x="2400" y="1366"/>
			<point x="2294" y="1366"/>
			<point x="2238" y="1366" type="curve" smooth="yes"/>
			<point x="2142" y="1366"/>
			<point x="2138" y="1366"/>
			<point x="1968" y="1372" type="curve"/>
			<point x="1968" y="1268" type="line"/>
			<point x="2016" y="1268"/>
			<point x="2108" y="1268"/>
			<point x="2168" y="1250" type="curve"/>
			<point x="2166" y="1244"/>
			<point x="2160" y="1228"/>
			<point x="2158" y="1222" type="curve" smooth="yes"/>
			<point x="1806" y="360" type="line"/>
			<point x="1436" y="1268" type="line"/>
			<point x="1436" y="1268"/>
			<point x="1436" y="1268"/>
			<point x="1436" y="1268" type="curve"/>
			<point x="1499" y="1268"/>
			<point x="1561" y="1268"/>
			<point x="1624" y="1268" type="curve"/>
			<point x="1624" y="1372" type="line"/>
			<point x="1548" y="1366"/>
			<point x="1362" y="1366"/>
			<point x="1276" y="1366" type="curve" smooth="yes"/>
			<point x="1170" y="1366"/>
			<point x="1062" y="1368"/>
			<point x="956" y="1372" type="curve"/>
			<point x="956" y="1268" type="line"/>
			<point x="1128" y="1268" type="line"/>
			<point x="1128" y="1268"/>
			<point x="1128" y="1268"/>
			<point x="1128" y="1268" type="curve"/>
			<point x="1153" y="1208"/>
			<point x="1177" y="1148"/>
			<point x="1202" y="1088" type="curve"/>
		</contour>
	</outline>
</glyph>
<glyph name="X" format="2">
	<unicode hex="0058"/>
	<advance width="922"/>
	<outline>
		<contour>
			<point x="517" y="392" type="line"/>
			<point x="697" y="615" type="line" smooth="yes"/>
			<point x="715" y="636"/>
			<point x="759" y="634"/>
			<point x="798" y="634" type="curve" smooth="yes"/>
			<point x="830" y="634" type="line"/>
			<point x="830" y="686" type="line"/>
			<point x="762" y="683"/>
			<point x="760" y="683"/>
			<point x="688" y="683" type="curve" smooth="yes"/>
			<point x="664" y="683"/>
			<point x="596" y="683"/>
			<point x="533" y="686" type="curve"/>
			<point x="533" y="634" type="line"/>
			<point x="538" y="634"/>
			<point x="570" y="635"/>
			<point x="601" y="630" type="curve" smooth="yes"/>
			<point x="607" y="629"/>
			<point x="614" y="627"/>
			<point x="619" y="624" type="curve"/>
			<point x="475" y="446" type="line"/>
			<point x="328" y="634" type="line"/>
			<point x="328" y="634"/>
			<point x="328" y="634"/>
			<point x="328" y="634" type="curve"/>
			<point x="353.974" y="634"/>
			<point x="379.948" y="634"/>
			<point x="406" y="634" type="curve"/>
			<point x="406" y="686" type="line"/>
			<point x="369" y="683"/>
			<point x="268" y="683"/>
			<point x="225" y="683" type="curve" smooth="yes"/>
			<point x="187" y="683"/>
			<point x="119" y="683"/>
			<point x="56" y="686" type="curve"/>
			<point x="56" y="634" type="line"/>
			<point x="155" y="634" type="line"/>
			<point x="155" y="634"/>
			<point x="155" y="634"/>
			<point x="155" y="634" type="curve"/>
			<point x="387" y="337" type="line"/>
			<point x="173" y="71" type="line" smooth="yes"/>
			<point x="155" y="50"/>
			<point x="102" y="52"/>
			<point x="72" y="52" type="curve" smooth="yes"/>
			<point x="40" y="52" type="line"/>
			<point x="40" y="0" type="line"/>
			<point x="108" y="3"/>
			<point x="110" y="3"/>
			<point x="182" y="3" type="curve" smooth="yes"/>
			<point x="245" y="3"/>
			<point x="262" y="3"/>
			<point x="336" y="0" type="curve"/>
			<point x="336" y="52" type="line"/>
			<point x="327" y="52"/>
			<point x="287" y="52"/>
			<point x="251" y="60" type="curve"/>
			<point x="251" y="60.999"/>
			<point x="251" y="61.998"/>
			<point x="251" y="63" type="curve"/>
			<point x="429" y="283" type="line"/>
			<point x="610" y="52" type="line"/>
			<point x="610" y="52"/>
			<point x="610" y="52"/>
			<point x="610" y="52" type="curve"/>
			<point x="584.026" y="52"/>
			<point x="558.052" y="52"/>
			<point x="532" y="52" type="curve"/>
			<point x="532" y="0" type="line"/>
			<point x="569" y="3"/>
			<point x="670" y="3"/>
			<point x="713" y="3" type="curve" smooth="yes"/>
			<point x="751" y="3"/>
			<point x="819" y="3"/>
			<point x="882" y="0" type="curve"/>
			<point x="882" y="52" type="line"/>
			<point x="783" y="52" type="line"/>
			<point x="783" y="52"/>
			<point x="783" y="52"/>
			<point x="783" y="52" type="curve"/>
		</contour>
	</outline>
</glyph>
<glyph name="Y" format="2">
	<unicode hex="0059"/>
	<advance width="1844"/>
	<outline>
		<contour>
			<point x="778" y="548" type="line"/>
			<point x="778" y="104" type="line"/>
			<point x="778" y="104"/>
			<point x="778" y="104"/>
			<point x="778" y="104" type="curve"/>
			<point x="562" y="104" type="line"/>
			<point x="562" y="0" type="line"/>
			<point x="640" y="6"/>
			<point x="834" y="6"/>
			<point x="922" y="6" type="curve" smooth="yes"/>
			<point x="1010" y="6"/>
			<point x="1200" y="6"/>
			<point x="1278" y="0" type="curve"/>
			<point x="1278" y="104" type="line"/>
			<point x="1064" y="104" type="line"/>
			<point x="1064" y="104"/>
			<point x="1064" y="104"/>
			<point x="1064" y="104" type="curve"/>
			<point x="1064" y="550" type="line"/>
			<point x="1566" y="1226" type="line" smooth="yes"/>
			<point x="1596" y="1266"/>
			<point x="1642" y="1268"/>
			<point x="1732" y="1268" type="curve" smooth="yes"/>
			<point x="1794" y="1268" type="line"/>
			<point x="1794" y="1372" type="line"/>
			<point x="1704" y="1366"/>
			<point x="1618" y="1366"/>
			<point x="1546" y="1366" type="curve" smooth="yes"/>
			<point x="1448" y="1366"/>
			<point x="1444" y="1366"/>
			<point x="1274" y="1372" type="curve"/>
			<point x="1274" y="1268" type="line"/>
			<point x="1334" y="1268"/>
			<point x="1364" y="1268"/>
			<point x="1418" y="1250" type="curve"/>
			<point x="1418" y="1250"/>
			<point x="1418" y="1250"/>
			<point x="1418" y="1250" type="curve"/>
			<point x="1016" y="706" type="line"/>
			<point x="600" y="1268" type="line"/>
			<point x="600" y="1268"/>
			<point x="600" y="1268"/>
			<point x="600" y="1268" type="curve"/>
			<point x="653" y="1268"/>
			<point x="707" y="1268"/>
			<point x="760" y="1268" type="curve"/>
			<point x="760" y="1372" type="line"/>
			<point x="688" y="1366"/>
			<point x="476" y="1366"/>
			<point x="392" y="1366" type="curve" smooth="yes"/>
			<point x="286" y="1366"/>
			<point x="150" y="1366"/>
			<point x="48" y="1372" type="curve"/>
			<point x="48" y="1268" type="line"/>
			<point x="246" y="1268" type="line"/>
			<point x="246" y="1268"/>
			<point x="246" y="1268"/>
			<point x="246" y="1268" type="curve"/>
		</contour>
	</outline>
</glyph>
<glyph name="Z" format="2">
	<unicode hex="005A"/>
	<advance width="1496"/>
	<outline>
		<contour>
			<point x="204" y="0" type="curve" smooth="yes"/>
			<point x="1334" y="0" type="line"/>
			<point x="1374" y="572" type="line"/>
			<point x="1262" y="572" type="line"/>
			<point x="1242" y="286"/>
			<point x="1158" y="114"/>
			<point x="790" y="114" type="curve" smooth="yes"/>
			<point x="496" y="114" type="line"/>
			<point x="1338" y="1260" type="line" smooth="yes"/>
			<point x="1360" y="1288"/>
			<point x="1360" y="1292"/>
			<point x="1360" y="1316" type="curve" smooth="yes"/>
			<point x="1360" y="1372"/>
			<point x="1332" y="1372"/>
			<point x="1292" y="1372" type="curve" smooth="yes"/>
			<point x="196" y="1372" type="line"/>
			<point x="170" y="886" type="line"/>
			<point x="282" y="886" type="line"/>
			<point x="304" y="1204"/>
			<point x="508" y="1268"/>
			<point x="730" y="1268" type="curve" smooth="yes"/>
			<point x="1002" y="1268" type="line"/>
			<point x="156" y="116" type="line" smooth="yes"/>
			<point x="136" y="90"/>
			<point x="136" y="86"/>
			<point x="136" y="58" type="curve" smooth="yes"/>
			<point x="136" y="0"/>
			<point x="162" y="0"/>
		</contour>
	</outline>
</glyph>
<glyph name="bracketleft" format="2">
	<unicode hex="005B"/>
	<advance width="680"/>
	<outline>
		<contour>
			<point x="624" y="1364" type="line"/>
			<point x="624" y="1500" type="line"/>
			<point x="270" y="1500" type="line"/>
			<point x="270" y="-500" type="line"/>
			<point x="624" y="-500" type="line"/>
			<point x="624" y="-364" type="line"/>
			<point x="406" y="-364" type="line"/>
			<point x="406" y="1364" type="line"/>
		</contour>
	</outline>
</glyph>
<glyph name="bracketright" format="2">
	<unicode hex="005D"/>
	<advance width="340"/>
	<outline>
		<contour>
			<point x="204" y="750" type="line"/>
			<point x="27" y="750" type="line"/>
			<point x="27" y="682" type="line"/>
			<point x="136" y="682" type="line"/>
			<point x="136" y="-182" type="line"/>
			<point x="27" y="-182" type="line"/>
			<point x="27" y="-250" type="line"/>
			<point x="204" y="-250" type="line"/>
		</contour>
	</outline>
</glyph>
<glyph name="grave" format="2">
	<unicode hex="0060"/>
	<advance width="1224"/>
	<outline>
		<contour>
			<point x="652" y="1010" type="line"/>
			<point x="718" y="1100" type="line"/>
			<point x="472" y="1358" type="line" smooth="yes"/>
			<point x="456" y="1374"/>
			<point x="424" y="1408"/>
			<point x="376" y="1408" type="curve" smooth="yes"/>
			<point x="304" y="1408"/>
			<point x="248" y="1336"/>
			<point x="248" y="1274" type="curve" smooth="yes"/>
			<point x="248" y="1204"/>
			<point x="308" y="1176"/>
			<point x="326" y="1166" type="curve"/>
		</contour>
	</outline>
</glyph>
<glyph name="a" format="2">
	<unicode hex="0061"/>
	<advance width="1190"/>
	<outline>
		<contour>
			<point x="70" y="224" type="curve" smooth="yes"/>
			<point x="70" y="54"/>
			<point x="262" y="-14"/>
			<point x="480" y="-14" type="curve" smooth="yes"/>
			<point x="692" y="-14"/>
			<point x="776" y="96"/>
			<point x="806" y="148" type="curve"/>
			<point x="816" y="68"/>
			<point x="896" y="-12"/>
			<point x="1032" y="-12" type="curve" smooth="yes"/>
			<point x="1130" y="-12"/>
			<point x="1240" y="18"/>
			<point x="1240" y="188" type="curve" smooth="yes"/>
			<point x="1240" y="300" type="line"/>
			<point x="1164" y="300" type="line"/>
			<point x="1164" y="188" type="line" smooth="yes"/>
			<point x="1164" y="82"/>
			<point x="1110" y="70"/>
			<point x="1086" y="70" type="curve" smooth="yes"/>
			<point x="1012" y="70"/>
			<point x="1004" y="128"/>
			<point x="1004" y="168" type="curve" smooth="yes"/>
			<point x="1004" y="592" type="line" smooth="yes"/>
			<point x="1004" y="684"/>
			<point x="966" y="765"/>
			<point x="886" y="822" type="curve" smooth="yes"/>
			<point x="809" y="877"/>
			<point x="694" y="910"/>
			<point x="534" y="910" type="curve" smooth="yes"/>
			<point x="436" y="910"/>
			<point x="150" y="910"/>
			<point x="150" y="712" type="curve" smooth="yes"/>
			<point x="150" y="624"/>
			<point x="218" y="576"/>
			<point x="284" y="576" type="curve" smooth="yes"/>
			<point x="364" y="576"/>
			<point x="420" y="634"/>
			<point x="420" y="710" type="curve" smooth="yes"/>
			<point x="420" y="774"/>
			<point x="380" y="810"/>
			<point x="378" y="812" type="curve"/>
			<point x="394" y="816"/>
			<point x="452" y="826"/>
			<point x="530" y="826" type="curve" smooth="yes"/>
			<point x="690" y="826"/>
			<point x="760" y="738"/>
			<point x="760" y="594" type="curve" smooth="yes"/>
			<point x="760" y="536" type="line"/>
			<point x="615" y="535"/>
			<point x="448" y="519"/>
			<point x="316" y="475" type="curve" smooth="yes"/>
			<point x="174" y="428"/>
			<point x="70" y="350"/>
		</contour>
		<contour>
			<point x="314" y="228" type="curve" smooth="yes"/>
			<point x="314" y="368"/>
			<point x="500" y="454"/>
			<point x="760" y="460" type="curve"/>
			<point x="760" y="274" type="line" smooth="yes"/>
			<point x="760" y="195"/>
			<point x="724" y="147"/>
			<point x="679" y="117" type="curve" smooth="yes"/>
			<point x="609" y="70"/>
			<point x="517" y="70"/>
			<point x="512" y="70" type="curve" smooth="yes"/>
			<point x="408" y="70"/>
			<point x="314" y="132"/>
		</contour>
	</outline>
</glyph>
<glyph name="b" format="2">
	<unicode hex="0062"/>
	<advance width="1360"/>
	<outline>
		<contour>
			<point x="224" y="0" type="line"/>
			<point x="336" y="0" type="line"/>
			<point x="367" y="37"/>
			<point x="397" y="73"/>
			<point x="428" y="110" type="curve"/>
			<point x="518" y="24"/>
			<point x="622" y="-14"/>
			<point x="740" y="-14" type="curve" smooth="yes"/>
			<point x="1078" y="-14"/>
			<point x="1278" y="186"/>
			<point x="1278" y="444" type="curve" smooth="yes"/>
			<point x="1278" y="710"/>
			<point x="1082" y="902"/>
			<point x="768" y="902" type="curve" smooth="yes"/>
			<point x="614" y="902"/>
			<point x="506" y="844"/>
			<point x="456" y="810" type="curve"/>
			<point x="456" y="1388" type="line"/>
			<point x="92" y="1372" type="line"/>
			<point x="92" y="1268" type="line"/>
			<point x="210" y="1268"/>
			<point x="224" y="1268"/>
			<point x="224" y="1190" type="curve" smooth="yes"/>
		</contour>
		<contour>
			<point x="722" y="70" type="curve" smooth="yes"/>
			<point x="574" y="70"/>
			<point x="490" y="180"/>
			<point x="468" y="214" type="curve"/>
			<point x="468" y="214"/>
			<point x="468" y="214"/>
			<point x="468" y="214" type="curve"/>
			<point x="468" y="688" type="line"/>
			<point x="468" y="688"/>
			<point x="468" y="688"/>
			<point x="468" y="688" type="curve"/>
			<point x="504" y="738"/>
			<point x="606" y="818"/>
			<point x="746" y="818" type="curve" smooth="yes"/>
			<point x="830" y="818"/>
			<point x="887" y="793"/>
			<point x="926" y="755" type="curve" smooth="yes"/>
			<point x="1008" y="674"/>
			<point x="1008" y="534"/>
			<point x="1008" y="450" type="curve" smooth="yes"/>
			<point x="1008" y="366"/>
			<point x="1008" y="226"/>
			<point x="924" y="141" type="curve" smooth="yes"/>
			<point x="882" y="99"/>
			<point x="818" y="70"/>
		</contour>
	</outline>
</glyph>
<glyph name="d" format="2">
	<unicode hex="0064"/>
	<advance width="680"/>
	<outline>
		<contour>
			<point x="446" y="42" type="curve"/>
			<point x="446" y="-7" type="line"/>
			<point x="634" y="0" type="line"/>
			<point x="634" y="52" type="line"/>
			<point x="575" y="52"/>
			<point x="568" y="52"/>
			<point x="568" y="91" type="curve" smooth="yes"/>
			<point x="568" y="694" type="line"/>
			<point x="386" y="686" type="line"/>
			<point x="386" y="634" type="line"/>
			<point x="445" y="634"/>
			<point x="452" y="634"/>
			<point x="452" y="595" type="curve" smooth="yes"/>
			<point x="452" y="408" type="line"/>
			<point x="398" y="445"/>
			<point x="346" y="451"/>
			<point x="309" y="451" type="curve" smooth="yes"/>
			<point x="140" y="451"/>
			<point x="41" y="351"/>
			<point x="41" y="222" type="curve" smooth="yes"/>
			<point x="41" y="91"/>
			<point x="138" y="-7"/>
			<point x="297" y="-7" type="curve" smooth="yes"/>
			<point x="370" y="-7"/>
			<point x="420" y="22"/>
		</contour>
		<contour>
			<point x="176" y="219" type="curve" smooth="yes"/>
			<point x="176" y="260.85342"/>
			<point x="176" y="330.9530886784"/>
			<point x="217.9282990175" y="373.2968723824" type="curve" smooth="yes"/>
			<point x="239.1127118908" y="394.6912102788"/>
			<point x="271.00062" y="409"/>
			<point x="319" y="409" type="curve" smooth="yes"/>
			<point x="365" y="409"/>
			<point x="412" y="390"/>
			<point x="446" y="347" type="curve"/>
			<point x="446" y="347"/>
			<point x="446" y="347"/>
			<point x="446" y="347" type="curve"/>
			<point x="446" y="111" type="line"/>
			<point x="446" y="111"/>
			<point x="446" y="111"/>
			<point x="446" y="111" type="curve"/>
			<point x="399" y="45"/>
			<point x="340" y="35"/>
			<point x="306" y="35" type="curve" smooth="yes"/>
			<point x="265.0006" y="35"/>
			<point x="236.931590772" y="47.3336035056"/>
			<point x="217.7149856743" y="66.1034144504" type="curve" smooth="yes"/>
			<point x="176" y="106.8485091584"/>
			<point x="176" y="177.9228"/>
		</contour>
	</outline>
</glyph>
<glyph name="e" format="2">
  <advance width="561"/>
  <unicode hex="0065"/>
  <outline>
    <contour>
      <point x="169" y="212" type="curve"/>
      <point x="492" y="212" type="line" smooth="yes"/>
      <point x="513" y="212"/>
      <point x="526" y="212"/>
      <point x="526" y="241" type="curve" smooth="yes"/>
      <point x="526" y="333"/>
      <point x="484" y="455"/>
      <point x="297" y="455" type="curve" smooth="yes"/>
      <point x="119" y="455"/>
      <point x="34" y="344"/>
      <point x="34" y="226" type="curve" smooth="yes"/>
      <point x="34" y="96"/>
      <point x="134" y="-7"/>
      <point x="312" y="-7" type="curve" smooth="yes"/>
      <point x="488" y="-7"/>
      <point x="526" y="101"/>
      <point x="526" y="115" type="curve" smooth="yes"/>
      <point x="526" y="136"/>
      <point x="505" y="136"/>
      <point x="498" y="136" type="curve" smooth="yes"/>
      <point x="481" y="136"/>
      <point x="477" y="134"/>
      <point x="469" y="117" type="curve" smooth="yes"/>
      <point x="437" y="47"/>
      <point x="352" y="40"/>
      <point x="324" y="40" type="curve" smooth="yes"/>
      <point x="269.57448" y="40.0"/>
      <point x="234.4872371868" y="55.6869940816"/>
      <point x="211.77600493540461" y="78.30841848766296" type="curve" smooth="yes"/>
      <point x="172.7282981228" y="117.20171754399999"/>
      <point x="170.26452" y="176.59344"/>
    </contour>
    <contour>
      <point x="169" y="251" type="line"/>
      <point x="170" y="291"/>
      <point x="174" y="413"/>
      <point x="298" y="413" type="curve" smooth="yes"/>
      <point x="422" y="413"/>
      <point x="427" y="290"/>
      <point x="428" y="251" type="curve"/>
    </contour>
  </outline>
</glyph>
<glyph name="f" format="2">
	<unicode hex="0066"/>
	<advance width="748"/>
	<outline>
		<contour>
			<point x="250" y="104" type="line"/>
			<point x="206" y="104"/>
			<point x="162" y="104"/>
			<point x="118" y="104" type="curve"/>
			<point x="118" y="104" type="line"/>
			<point x="118" y="0" type="line"/>
			<point x="234" y="6"/>
			<point x="254" y="6"/>
			<point x="374" y="6" type="curve" smooth="yes"/>
			<point x="488" y="6"/>
			<point x="492" y="6"/>
			<point x="646" y="0" type="curve"/>
			<point x="646" y="104" type="line"/>
			<point x="646" y="104" type="line"/>
			<point x="591" y="104"/>
			<point x="537" y="104"/>
			<point x="482" y="104" type="curve"/>
			<point x="482" y="784" type="line"/>
			<point x="726" y="784" type="line"/>
			<point x="726" y="888" type="line"/>
			<point x="470" y="888" type="line"/>
			<point x="470" y="1084" type="line" smooth="yes"/>
			<point x="470" y="1194"/>
			<point x="516" y="1318"/>
			<point x="680" y="1318" type="curve" smooth="yes"/>
			<point x="686" y="1318"/>
			<point x="706" y="1318"/>
			<point x="706" y="1314" type="curve"/>
			<point x="698" y="1302"/>
			<point x="670" y="1272"/>
			<point x="670" y="1218" type="curve" smooth="yes"/>
			<point x="670" y="1130"/>
			<point x="740" y="1086"/>
			<point x="802" y="1086" type="curve" smooth="yes"/>
			<point x="862" y="1086"/>
			<point x="934" y="1130"/>
			<point x="934" y="1218" type="curve" smooth="yes"/>
			<point x="934" y="1310"/>
			<point x="854" y="1402"/>
			<point x="686" y="1402" type="curve" smooth="yes"/>
			<point x="484" y="1402"/>
			<point x="250" y="1320"/>
			<point x="250" y="1082" type="curve" smooth="yes"/>
			<point x="250" y="888" type="line"/>
			<point x="92" y="888" type="line"/>
			<point x="92" y="784" type="line"/>
			<point x="250" y="784" type="line"/>
		</contour>
	</outline>
</glyph>
<glyph name="g" format="2">
	<unicode hex="0067"/>
	<advance width="612"/>
	<outline>
		<contour>
			<point x="306" y="-202" type="curve" smooth="yes"/>
			<point x="495" y="-202"/>
			<point x="578" y="-142"/>
			<point x="578" y="-71" type="curve" smooth="yes"/>
			<point x="578" y="26"/>
			<point x="503" y="57"/>
			<point x="482" y="65" type="curve" smooth="yes"/>
			<point x="428" y="87"/>
			<point x="367" y="87"/>
			<point x="276" y="87" type="curve" smooth="yes"/>
			<point x="250.692" y="87"/>
			<point x="225.384" y="87"/>
			<point x="200" y="87" type="curve" smooth="yes"/>
			<point x="164" y="87"/>
			<point x="137" y="113"/>
			<point x="137" y="149" type="curve" smooth="yes"/>
			<point x="137" y="159"/>
			<point x="140" y="170"/>
			<point x="145" y="177" type="curve"/>
			<point x="186" y="157"/>
			<point x="235" y="152"/>
			<point x="272" y="152" type="curve" smooth="yes"/>
			<point x="434" y="152"/>
			<point x="483" y="240"/>
			<point x="483" y="301" type="curve" smooth="yes"/>
			<point x="483" y="355"/>
			<point x="449" y="390"/>
			<point x="443" y="395" type="curve"/>
			<point x="470" y="409"/>
			<point x="490" y="412"/>
			<point x="504" y="414" type="curve"/>
			<point x="501" y="408"/>
			<point x="500" y="398"/>
			<point x="500" y="393" type="curve" smooth="yes"/>
			<point x="500" y="365"/>
			<point x="520" y="345"/>
			<point x="547" y="345" type="curve" smooth="yes"/>
			<point x="574" y="345"/>
			<point x="595" y="365"/>
			<point x="595" y="393" type="curve" smooth="yes"/>
			<point x="595" y="423"/>
			<point x="572" y="458"/>
			<point x="525" y="458" type="curve" smooth="yes"/>
			<point x="486" y="458"/>
			<point x="441" y="442"/>
			<point x="412" y="419" type="curve"/>
			<point x="376" y="439"/>
			<point x="335" y="451"/>
			<point x="272" y="451" type="curve" smooth="yes"/>
			<point x="110" y="451"/>
			<point x="61" y="363"/>
			<point x="61" y="302" type="curve" smooth="yes"/>
			<point x="61" y="244"/>
			<point x="95" y="214"/>
			<point x="113" y="198" type="curve"/>
			<point x="93" y="174"/>
			<point x="80" y="142"/>
			<point x="80" y="109" type="curve" smooth="yes"/>
			<point x="80" y="73"/>
			<point x="95" y="38"/>
			<point x="121" y="13" type="curve"/>
			<point x="79" y="2"/>
			<point x="34" y="-26"/>
			<point x="34" y="-74" type="curve" smooth="yes"/>
			<point x="34" y="-127"/>
			<point x="93" y="-202"/>
		</contour>
		<contour>
			<point x="272" y="195" type="curve" smooth="yes"/>
			<point x="177" y="195"/>
			<point x="177" y="261"/>
			<point x="177" y="301" type="curve" smooth="yes"/>
			<point x="177" y="326.64226"/>
			<point x="177" y="360.8576982607"/>
			<point x="198.6194495536" y="383.6198773009" type="curve" smooth="yes"/>
			<point x="212.4109536855" y="398.1403527415"/>
			<point x="235.00035" y="408"/>
			<point x="272" y="408" type="curve" smooth="yes"/>
			<point x="367" y="408"/>
			<point x="367" y="342"/>
			<point x="367" y="302" type="curve" smooth="yes"/>
			<point x="367" y="275.9159"/>
			<point x="367" y="240.9606286425"/>
			<point x="344.2436133783" y="218.2137861666" type="curve" smooth="yes"/>
			<point x="330.3582052625" y="204.3342016625"/>
			<point x="308.00025" y="195"/>
		</contour>
		<contour>
			<point x="306" y="-159" type="curve" smooth="yes"/>
			<point x="174" y="-159"/>
			<point x="127" y="-111"/>
			<point x="127" y="-73" type="curve" smooth="yes"/>
			<point x="127" y="-52.7"/>
			<point x="135.54140625" y="-39.75875"/>
			<point x="147.1462207031" y="-31.508703125" type="curve" smooth="yes"/>
			<point x="167.5546875" y="-17"/>
			<point x="197.4375" y="-17"/>
			<point x="207" y="-17" type="curve" smooth="yes"/>
			<point x="334" y="-17" type="line" smooth="yes"/>
			<point x="364" y="-17"/>
			<point x="485" y="-17"/>
			<point x="485" y="-74" type="curve" smooth="yes"/>
			<point x="485" y="-108"/>
			<point x="443" y="-159"/>
		</contour>
	</outline>
</glyph>
<glyph name="h" format="2">
	<unicode hex="0068"/>
	<advance width="680"/>
	<outline>
		<contour>
			<point x="122" y="52" type="line"/>
			<point x="100.022" y="52"/>
			<point x="78.044" y="52"/>
			<point x="56" y="52" type="curve"/>
			<point x="56" y="52" type="line"/>
			<point x="56" y="0" type="line"/>
			<point x="110" y="3"/>
			<point x="145" y="3"/>
			<point x="183" y="3" type="curve" smooth="yes"/>
			<point x="222" y="3"/>
			<point x="256" y="3"/>
			<point x="310" y="0" type="curve"/>
			<point x="310" y="52" type="line"/>
			<point x="310" y="52" type="line"/>
			<point x="288.022" y="52"/>
			<point x="266.044" y="52"/>
			<point x="244" y="52" type="curve"/>
			<point x="244" y="253" type="line" smooth="yes"/>
			<point x="244" y="364"/>
			<point x="340" y="409"/>
			<point x="404" y="409" type="curve" smooth="yes"/>
			<point x="439" y="409"/>
			<point x="462" y="392"/>
			<point x="462" y="314" type="curve" smooth="yes"/>
			<point x="462" y="52" type="line"/>
			<point x="440.022" y="52"/>
			<point x="418.044" y="52"/>
			<point x="396" y="52" type="curve"/>
			<point x="396" y="52" type="line"/>
			<point x="396" y="0" type="line"/>
			<point x="450" y="3"/>
			<point x="485" y="3"/>
			<point x="523" y="3" type="curve" smooth="yes"/>
			<point x="562" y="3"/>
			<point x="596" y="3"/>
			<point x="650" y="0" type="curve"/>
			<point x="650" y="52" type="line"/>
			<point x="650" y="52" type="line"/>
			<point x="628.022" y="52"/>
			<point x="606.044" y="52"/>
			<point x="584" y="52" type="curve"/>
			<point x="584" y="303" type="line" smooth="yes"/>
			<point x="584" y="356"/>
			<point x="570" y="391"/>
			<point x="546" y="414" type="curve" smooth="yes"/>
			<point x="515" y="443"/>
			<point x="469" y="451"/>
			<point x="419" y="451" type="curve" smooth="yes"/>
			<point x="314" y="451"/>
			<point x="259" y="390"/>
			<point x="238" y="359" type="curve"/>
			<point x="238" y="359" type="line"/>
			<point x="238" y="694" type="line"/>
			<point x="56" y="686" type="line"/>
			<point x="56" y="634" type="line"/>
			<point x="115" y="634"/>
			<point x="122" y="634"/>
			<point x="122" y="595" type="curve" smooth="yes"/>
		</contour>
	</outline>
</glyph>
<glyph name="i" format="2">
	<unicode hex="0069"/>
	<advance width="680"/>
	<outline>
		<contour>
			<point x="250" y="104" type="line"/>
			<point x="206" y="104"/>
			<point x="162" y="104"/>
			<point x="118" y="104" type="curve"/>
			<point x="118" y="104" type="line"/>
			<point x="118" y="0" type="line"/>
			<point x="234" y="6"/>
			<point x="256" y="6"/>
			<point x="362" y="6" type="curve" smooth="yes"/>
			<point x="444" y="6"/>
			<point x="502" y="6"/>
			<point x="600" y="0" type="curve"/>
			<point x="600" y="104" type="line"/>
			<point x="561" y="104"/>
			<point x="521" y="104"/>
			<point x="482" y="104" type="curve"/>
			<point x="482" y="902" type="line"/>
			<point x="124" y="886" type="line"/>
			<point x="124" y="782" type="line"/>
			<point x="236" y="782"/>
			<point x="250" y="782"/>
			<point x="250" y="706" type="curve" smooth="yes"/>
		</contour>
		<contour>
			<point x="500" y="1230" type="curve" smooth="yes"/>
			<point x="500" y="1316"/>
			<point x="430" y="1390"/>
			<point x="340" y="1390" type="curve" smooth="yes"/>
			<point x="254" y="1390"/>
			<point x="180" y="1322"/>
			<point x="180" y="1230" type="curve" smooth="yes"/>
			<point x="180" y="1138"/>
			<point x="254" y="1070"/>
			<point x="340" y="1070" type="curve" smooth="yes"/>
			<point x="430" y="1070"/>
			<point x="500" y="1144"/>
		</contour>
	</outline>
</glyph>
<glyph name="j" format="2">
	<unicode hex="006A"/>
	<advance width="748"/>
	<outline>
		<contour>
			<point x="342" y="704" type="curve" smooth="yes"/>
			<point x="342" y="-78" type="line" smooth="yes"/>
			<point x="342" y="-188"/>
			<point x="302" y="-318"/>
			<point x="184" y="-318" type="curve" smooth="yes"/>
			<point x="174" y="-318"/>
			<point x="114" y="-314"/>
			<point x="114" y="-306" type="curve"/>
			<point x="120" y="-298"/>
			<point x="152" y="-262"/>
			<point x="152" y="-206" type="curve" smooth="yes"/>
			<point x="152" y="-128"/>
			<point x="94" y="-72"/>
			<point x="18" y="-72" type="curve" smooth="yes"/>
			<point x="-62" y="-72"/>
			<point x="-118" y="-128"/>
			<point x="-118" y="-208" type="curve" smooth="yes"/>
			<point x="-118" y="-334"/>
			<point x="14" y="-402"/>
			<point x="188" y="-402" type="curve" smooth="yes"/>
			<point x="364" y="-402"/>
			<point x="574" y="-302"/>
			<point x="574" y="-76" type="curve" smooth="yes"/>
			<point x="574" y="902" type="line"/>
			<point x="196" y="886" type="line"/>
			<point x="196" y="782" type="line"/>
			<point x="336" y="782"/>
			<point x="342" y="773"/>
		</contour>
		<contour>
			<point x="574" y="1230" type="curve" smooth="yes"/>
			<point x="574" y="1318"/>
			<point x="502" y="1390"/>
			<point x="414" y="1390" type="curve" smooth="yes"/>
			<point x="326" y="1390"/>
			<point x="254" y="1318"/>
			<point x="254" y="1230" type="curve" smooth="yes"/>
			<point x="254" y="1142"/>
			<point x="326" y="1070"/>
			<point x="414" y="1070" type="curve" smooth="yes"/>
			<point x="502" y="1070"/>
			<point x="574" y="1142"/>
		</contour>
	</outline>
</glyph>
<glyph name="l" format="2">
	<unicode hex="006C"/>
	<advance width="680"/>
	<outline>
		<contour>
			<point x="482" y="1388" type="line"/>
			<point x="118" y="1372" type="line"/>
			<point x="118" y="1268" type="line"/>
			<point x="236" y="1268"/>
			<point x="250" y="1268"/>
			<point x="250" y="1190" type="curve" smooth="yes"/>
			<point x="250" y="104" type="line"/>
			<point x="206" y="104"/>
			<point x="162" y="104"/>
			<point x="118" y="104" type="curve"/>
			<point x="118" y="104" type="line"/>
			<point x="118" y="0" type="line"/>
			<point x="234" y="6"/>
			<point x="254" y="6"/>
			<point x="366" y="6" type="curve" smooth="yes"/>
			<point x="478" y="6"/>
			<point x="498" y="6"/>
			<point x="614" y="0" type="curve"/>
			<point x="614" y="104" type="line"/>
			<point x="614" y="104" type="line"/>
			<point x="570" y="104"/>
			<point x="526" y="104"/>
			<point x="482" y="104" type="curve"/>
		</contour>
	</outline>
</glyph>
<glyph name="m" format="2">
	<unicode hex="006D"/>
	<advance width="2040"/>
	<outline>
		<contour>
			<point x="244" y="104" type="line"/>
			<point x="200" y="104"/>
			<point x="156" y="104"/>
			<point x="112" y="104" type="curve"/>
			<point x="112" y="104" type="line"/>
			<point x="112" y="0" type="line"/>
			<point x="220" y="6"/>
			<point x="290" y="6"/>
			<point x="366" y="6" type="curve" smooth="yes"/>
			<point x="444" y="6"/>
			<point x="512" y="6"/>
			<point x="620" y="0" type="curve"/>
			<point x="620" y="104" type="line"/>
			<point x="620" y="104" type="line"/>
			<point x="576" y="104"/>
			<point x="532" y="104"/>
			<point x="488" y="104" type="curve"/>
			<point x="488" y="506" type="line" smooth="yes"/>
			<point x="488" y="728"/>
			<point x="680" y="818"/>
			<point x="808" y="818" type="curve" smooth="yes"/>
			<point x="878" y="818"/>
			<point x="924" y="784"/>
			<point x="924" y="628" type="curve" smooth="yes"/>
			<point x="924" y="104" type="line"/>
			<point x="880" y="104"/>
			<point x="836" y="104"/>
			<point x="792" y="104" type="curve"/>
			<point x="792" y="104" type="line"/>
			<point x="792" y="0" type="line"/>
			<point x="900" y="6"/>
			<point x="970" y="6"/>
			<point x="1046" y="6" type="curve" smooth="yes"/>
			<point x="1124" y="6"/>
			<point x="1192" y="6"/>
			<point x="1300" y="0" type="curve"/>
			<point x="1300" y="104" type="line"/>
			<point x="1300" y="104" type="line"/>
			<point x="1256" y="104"/>
			<point x="1212" y="104"/>
			<point x="1168" y="104" type="curve"/>
			<point x="1168" y="506" type="line" smooth="yes"/>
			<point x="1168" y="728"/>
			<point x="1360" y="818"/>
			<point x="1488" y="818" type="curve" smooth="yes"/>
			<point x="1558" y="818"/>
			<point x="1604" y="784"/>
			<point x="1604" y="628" type="curve" smooth="yes"/>
			<point x="1604" y="104" type="line"/>
			<point x="1560" y="104"/>
			<point x="1516" y="104"/>
			<point x="1472" y="104" type="curve"/>
			<point x="1472" y="104" type="line"/>
			<point x="1472" y="0" type="line"/>
			<point x="1580" y="6"/>
			<point x="1650" y="6"/>
			<point x="1726" y="6" type="curve" smooth="yes"/>
			<point x="1804" y="6"/>
			<point x="1872" y="6"/>
			<point x="1980" y="0" type="curve"/>
			<point x="1980" y="104" type="line"/>
			<point x="1980" y="104" type="line"/>
			<point x="1936" y="104"/>
			<point x="1892" y="104"/>
			<point x="1848" y="104" type="curve"/>
			<point x="1848" y="606" type="line" smooth="yes"/>
			<point x="1848" y="709"/>
			<point x="1821" y="778"/>
			<point x="1776" y="824" type="curve" smooth="yes"/>
			<point x="1715" y="884"/>
			<point x="1623" y="902"/>
			<point x="1518" y="902" type="curve" smooth="yes"/>
			<point x="1308" y="902"/>
			<point x="1198" y="780"/>
			<point x="1156" y="718" type="curve"/>
			<point x="1108" y="874"/>
			<point x="974" y="902"/>
			<point x="838" y="902" type="curve" smooth="yes"/>
			<point x="596" y="902"/>
			<point x="488" y="742"/>
			<point x="464" y="698" type="curve"/>
			<point x="462" y="698" type="line"/>
			<point x="462" y="902" type="line"/>
			<point x="112" y="886" type="line"/>
			<point x="112" y="782" type="line"/>
			<point x="230" y="782"/>
			<point x="244" y="782"/>
			<point x="244" y="704" type="curve" smooth="yes"/>
		</contour>
	</outline>
</glyph>
<glyph name="n" format="2">
	<unicode hex="006E"/>
	<advance width="1360"/>
	<outline>
		<contour>
			<point x="244" y="104" type="line"/>
			<point x="200" y="104"/>
			<point x="156" y="104"/>
			<point x="112" y="104" type="curve"/>
			<point x="112" y="104" type="line"/>
			<point x="112" y="0" type="line"/>
			<point x="220" y="6"/>
			<point x="290" y="6"/>
			<point x="366" y="6" type="curve" smooth="yes"/>
			<point x="444" y="6"/>
			<point x="512" y="6"/>
			<point x="620" y="0" type="curve"/>
			<point x="620" y="104" type="line"/>
			<point x="620" y="104" type="line"/>
			<point x="576" y="104"/>
			<point x="532" y="104"/>
			<point x="488" y="104" type="curve"/>
			<point x="488" y="506" type="line" smooth="yes"/>
			<point x="488" y="728"/>
			<point x="680" y="818"/>
			<point x="808" y="818" type="curve" smooth="yes"/>
			<point x="878" y="818"/>
			<point x="924" y="784"/>
			<point x="924" y="628" type="curve" smooth="yes"/>
			<point x="924" y="104" type="line"/>
			<point x="880" y="104"/>
			<point x="836" y="104"/>
			<point x="792" y="104" type="curve"/>
			<point x="792" y="104" type="line"/>
			<point x="792" y="0" type="line"/>
			<point x="900" y="6"/>
			<point x="970" y="6"/>
			<point x="1046" y="6" type="curve" smooth="yes"/>
			<point x="1124" y="6"/>
			<point x="1192" y="6"/>
			<point x="1300" y="0" type="curve"/>
			<point x="1300" y="104" type="line"/>
			<point x="1300" y="104" type="line"/>
			<point x="1256" y="104"/>
			<point x="1212" y="104"/>
			<point x="1168" y="104" type="curve"/>
			<point x="1168" y="606" type="line" smooth="yes"/>
			<point x="1168" y="710"/>
			<point x="1141" y="778"/>
			<point x="1096" y="824" type="curve" smooth="yes"/>
			<point x="1034" y="885"/>
			<point x="940" y="902"/>
			<point x="838" y="902" type="curve" smooth="yes"/>
			<point x="596" y="902"/>
			<point x="488" y="742"/>
			<point x="464" y="698" type="curve"/>
			<point x="462" y="698" type="line"/>
			<point x="462" y="902" type="line"/>
			<point x="112" y="886" type="line"/>
			<point x="112" y="782" type="line"/>
			<point x="230" y="782"/>
			<point x="244" y="782"/>
			<point x="244" y="704" type="curve" smooth="yes"/>
		</contour>
	</outline>
</glyph>
<glyph name="o" format="2">
	<unicode hex="006F"/>
	<advance width="1224"/>
	<outline>
		<contour>
			<point x="1156" y="436" type="curve" smooth="yes"/>
			<point x="1156" y="688"/>
			<point x="978" y="910"/>
			<point x="612" y="910" type="curve" smooth="yes"/>
			<point x="244" y="910"/>
			<point x="68" y="686"/>
			<point x="68" y="436" type="curve" smooth="yes"/>
			<point x="68" y="198"/>
			<point x="244" y="-14"/>
			<point x="612" y="-14" type="curve" smooth="yes"/>
			<point x="984" y="-14"/>
			<point x="1156" y="200"/>
		</contour>
		<contour>
			<point x="612" y="80" type="curve" smooth="yes"/>
			<point x="516" y="80"/>
			<point x="454" y="105"/>
			<point x="413" y="146" type="curve" smooth="yes"/>
			<point x="338" y="220"/>
			<point x="338" y="347"/>
			<point x="338" y="460" type="curve" smooth="yes"/>
			<point x="338" y="566"/>
			<point x="338" y="686"/>
			<point x="411" y="759" type="curve" smooth="yes"/>
			<point x="451" y="800"/>
			<point x="514" y="826"/>
			<point x="612" y="826" type="curve" smooth="yes"/>
			<point x="710" y="826"/>
			<point x="773" y="800"/>
			<point x="813" y="759" type="curve" smooth="yes"/>
			<point x="886" y="685"/>
			<point x="886" y="564"/>
			<point x="886" y="460" type="curve" smooth="yes"/>
			<point x="886" y="347"/>
			<point x="886" y="220"/>
			<point x="811" y="146" type="curve" smooth="yes"/>
			<point x="770" y="105"/>
			<point x="708" y="80"/>
		</contour>
	</outline>
</glyph>
<glyph name="p" format="2">
  <advance width="680"/>
  <unicode hex="0070"/>
  <outline>
    <contour>
      <point x="46" y="391" type="line"/>
      <point x="46" y="391" type="line"/>
      <point x="111" y="391"/>
      <point x="112.0" y="387.61417"/>
      <point x="112" y="355" type="curve" smooth="yes"/>
      <point x="112" y="-142" type="line"/>
      <point x="90.02199999999999" y="-142.0"/>
      <point x="68.044" y="-142.0"/>
      <point x="46" y="-142" type="curve"/>
      <point x="46" y="-142" type="line"/>
      <point x="46" y="-194" type="line"/>
      <point x="100" y="-191"/>
      <point x="135" y="-191"/>
      <point x="173" y="-191" type="curve" smooth="yes"/>
      <point x="212" y="-191"/>
      <point x="246" y="-191"/>
      <point x="300" y="-194" type="curve"/>
      <point x="300" y="-142" type="line"/>
      <point x="278.022" y="-142.0"/>
      <point x="256.044" y="-142.0"/>
      <point x="234" y="-142" type="curve"/>
      <point x="234" y="37" type="line"/>
      <point x="286" y="-1"/>
      <point x="335" y="-7"/>
      <point x="370" y="-7" type="curve" smooth="yes"/>
      <point x="534" y="-7"/>
      <point x="639" y="88"/>
      <point x="639" y="223" type="curve" smooth="yes"/>
      <point x="639" y="348"/>
      <point x="550" y="451"/>
      <point x="389" y="451" type="curve" smooth="yes"/>
      <point x="332" y="451"/>
      <point x="276" y="436"/>
      <point x="228" y="404" type="curve"/>
      <point x="228" y="451" type="line"/>
      <point x="46" y="443" type="line"/>
    </contour>
    <contour>
      <point x="504" y="223" type="curve" smooth="yes"/>
      <point x="504" y="89"/>
      <point x="433" y="35"/>
      <point x="360" y="35" type="curve" smooth="yes"/>
      <point x="315" y="35"/>
      <point x="267" y="57"/>
      <point x="234" y="106" type="curve"/>
      <point x="234.0" y="106.0"/>
      <point x="234.0" y="106.0"/>
      <point x="234" y="106" type="curve"/>
      <point x="234" y="342" type="line"/>
      <point x="234.0" y="342.0"/>
      <point x="234.0" y="342.0"/>
      <point x="234" y="342" type="curve"/>
      <point x="251" y="363"/>
      <point x="301" y="404"/>
      <point x="372" y="404" type="curve" smooth="yes"/>
      <point x="451" y="404"/>
      <point x="504" y="337"/>
    </contour>
  </outline>
</glyph>
<glyph name="q" format="2">
	<unicode hex="0071"/>
	<advance width="1292"/>
	<outline>
		<contour>
			<point x="82" y="444" type="curve" smooth="yes"/>
			<point x="82" y="174"/>
			<point x="284" y="-14"/>
			<point x="594" y="-14" type="curve" smooth="yes"/>
			<point x="630" y="-14"/>
			<point x="762" y="-14"/>
			<point x="892" y="92" type="curve"/>
			<point x="892" y="-284" type="line"/>
			<point x="848" y="-284"/>
			<point x="804" y="-284"/>
			<point x="760" y="-284" type="curve"/>
			<point x="760" y="-284" type="line"/>
			<point x="760" y="-388" type="line"/>
			<point x="868" y="-382"/>
			<point x="938" y="-382"/>
			<point x="1014" y="-382" type="curve" smooth="yes"/>
			<point x="1092" y="-382"/>
			<point x="1160" y="-382"/>
			<point x="1268" y="-388" type="curve"/>
			<point x="1268" y="-284" type="line"/>
			<point x="1268" y="-284" type="line"/>
			<point x="1224" y="-284"/>
			<point x="1180" y="-284"/>
			<point x="1136" y="-284" type="curve"/>
			<point x="1136" y="902" type="line"/>
			<point x="1036" y="902" type="line"/>
			<point x="938" y="746" type="line"/>
			<point x="850" y="846"/>
			<point x="750" y="902"/>
			<point x="612" y="902" type="curve" smooth="yes"/>
			<point x="286" y="902"/>
			<point x="82" y="708"/>
		</contour>
		<contour>
			<point x="352" y="442" type="curve" smooth="yes"/>
			<point x="352" y="708"/>
			<point x="500" y="808"/>
			<point x="638" y="808" type="curve" smooth="yes"/>
			<point x="802" y="808"/>
			<point x="904" y="652"/>
			<point x="904" y="550" type="curve" smooth="yes"/>
			<point x="904" y="300" type="line" smooth="yes"/>
			<point x="904" y="264"/>
			<point x="904" y="256"/>
			<point x="872" y="210" type="curve" smooth="yes"/>
			<point x="786" y="94"/>
			<point x="680" y="70"/>
			<point x="614" y="70" type="curve" smooth="yes"/>
			<point x="470" y="70"/>
			<point x="352" y="194"/>
		</contour>
	</outline>
</glyph>
<glyph name="r" format="2">
  <advance width="506"/>
  <unicode hex="0072"/>
  <outline>
    <contour>
      <point x="112" y="52" type="line"/>
      <point x="112.0" y="52.0"/>
      <point x="112.0" y="52.0"/>
      <point x="112" y="52" type="curve"/>
      <point x="46" y="52" type="line"/>
      <point x="46" y="0" type="line"/>
      <point x="104" y="3"/>
      <point x="114" y="3"/>
      <point x="174" y="3" type="curve" smooth="yes"/>
      <point x="231" y="3"/>
      <point x="233" y="3"/>
      <point x="310" y="0" type="curve"/>
      <point x="310" y="52" type="line"/>
      <point x="228" y="52" type="line"/>
      <point x="228.0" y="52.0"/>
      <point x="228.0" y="52.0"/>
      <point x="228" y="52" type="curve"/>
      <point x="228" y="214" type="line" smooth="yes"/>
      <point x="228" y="293"/>
      <point x="259" y="406"/>
      <point x="355" y="409" type="curve"/>
      <point x="355.0" y="409.0"/>
      <point x="355.0" y="409.0"/>
      <point x="355" y="409" type="curve"/>
      <point x="355" y="408"/>
      <point x="339" y="392"/>
      <point x="339" y="364" type="curve" smooth="yes"/>
      <point x="339" y="324"/>
      <point x="368" y="298"/>
      <point x="405" y="298" type="curve" smooth="yes"/>
      <point x="442" y="298"/>
      <point x="471" y="325"/>
      <point x="471" y="364" type="curve" smooth="yes"/>
      <point x="471" y="419"/>
      <point x="415" y="451"/>
      <point x="357" y="451" type="curve" smooth="yes"/>
      <point x="272" y="451"/>
      <point x="231" y="381"/>
      <point x="216" y="343" type="curve"/>
      <point x="215" y="344" type="line"/>
      <point x="215" y="451" type="line"/>
      <point x="46" y="443" type="line"/>
      <point x="46" y="391" type="line"/>
      <point x="105" y="391"/>
      <point x="112" y="391"/>
      <point x="112" y="352" type="curve" smooth="yes"/>
    </contour>
  </outline>
</glyph>
<glyph name="s" format="2">
	<unicode hex="0073"/>
	<advance width="966"/>
	<outline>
		<contour>
			<point x="882" y="282" type="curve" smooth="yes"/>
			<point x="882" y="370"/>
			<point x="842" y="430"/>
			<point x="796" y="472" type="curve" smooth="yes"/>
			<point x="708" y="554"/>
			<point x="604" y="570"/>
			<point x="528" y="582" type="curve" smooth="yes"/>
			<point x="346" y="612"/>
			<point x="236" y="630"/>
			<point x="236" y="718" type="curve" smooth="yes"/>
			<point x="236" y="836"/>
			<point x="430" y="836"/>
			<point x="472" y="836" type="curve" smooth="yes"/>
			<point x="696" y="836"/>
			<point x="704" y="728"/>
			<point x="710" y="672" type="curve" smooth="yes"/>
			<point x="712" y="640"/>
			<point x="742" y="640"/>
			<point x="766" y="640" type="curve" smooth="yes"/>
			<point x="820" y="640"/>
			<point x="822" y="654"/>
			<point x="822" y="702" type="curve" smooth="yes"/>
			<point x="822" y="848" type="line" smooth="yes"/>
			<point x="822" y="886"/>
			<point x="822" y="910"/>
			<point x="778" y="910" type="curve" smooth="yes"/>
			<point x="762" y="910"/>
			<point x="756" y="910"/>
			<point x="688" y="876" type="curve"/>
			<point x="688" y="876"/>
			<point x="688" y="876"/>
			<point x="688" y="876" type="curve"/>
			<point x="604" y="910"/>
			<point x="510" y="910"/>
			<point x="476" y="910" type="curve" smooth="yes"/>
			<point x="408" y="910"/>
			<point x="82" y="910"/>
			<point x="82" y="642" type="curve" smooth="yes"/>
			<point x="82" y="552"/>
			<point x="134" y="494"/>
			<point x="184" y="456" type="curve" smooth="yes"/>
			<point x="264" y="400"/>
			<point x="350" y="386"/>
			<point x="480" y="364" type="curve" smooth="yes"/>
			<point x="542" y="354"/>
			<point x="623" y="341"/>
			<point x="675" y="306" type="curve" smooth="yes"/>
			<point x="707" y="285"/>
			<point x="728" y="256"/>
			<point x="728" y="214" type="curve" smooth="yes"/>
			<point x="728" y="74"/>
			<point x="552" y="70"/>
			<point x="490" y="70" type="curve" smooth="yes"/>
			<point x="286" y="70"/>
			<point x="228" y="184"/>
			<point x="196" y="278" type="curve" smooth="yes"/>
			<point x="186" y="312"/>
			<point x="182" y="316"/>
			<point x="138" y="316" type="curve" smooth="yes"/>
			<point x="82" y="316"/>
			<point x="82" y="300"/>
			<point x="82" y="254" type="curve" smooth="yes"/>
			<point x="82" y="48" type="line" smooth="yes"/>
			<point x="82" y="10"/>
			<point x="82" y="-14"/>
			<point x="126" y="-14" type="curve" smooth="yes"/>
			<point x="144" y="-14"/>
			<point x="148" y="-14"/>
			<point x="190" y="12" type="curve" smooth="yes"/>
			<point x="207" y="23"/>
			<point x="225" y="35"/>
			<point x="242" y="46" type="curve"/>
			<point x="342" y="-14"/>
			<point x="448" y="-14"/>
			<point x="490" y="-14" type="curve" smooth="yes"/>
			<point x="552" y="-14"/>
			<point x="882" y="-14"/>
		</contour>
	</outline>
</glyph>
<glyph name="t" format="2">
	<unicode hex="0074"/>
	<advance width="952"/>
	<outline>
		<contour>
			<point x="462" y="784" type="line"/>
			<point x="774" y="784" type="line"/>
			<point x="774" y="888" type="line"/>
			<point x="462" y="888" type="line"/>
			<point x="462" y="1270" type="line"/>
			<point x="350" y="1270" type="line"/>
			<point x="348" y="1072"/>
			<point x="246" y="872"/>
			<point x="46" y="868" type="curve"/>
			<point x="46" y="784" type="line"/>
			<point x="218" y="784" type="line"/>
			<point x="218" y="246" type="line" smooth="yes"/>
			<point x="218" y="40"/>
			<point x="380" y="-14"/>
			<point x="550" y="-14" type="curve" smooth="yes"/>
			<point x="702" y="-14"/>
			<point x="814" y="88"/>
			<point x="814" y="246" type="curve" smooth="yes"/>
			<point x="814" y="348" type="line"/>
			<point x="702" y="348" type="line"/>
			<point x="702" y="250" type="line" smooth="yes"/>
			<point x="702" y="112"/>
			<point x="626" y="80"/>
			<point x="580" y="80" type="curve" smooth="yes"/>
			<point x="464" y="80"/>
			<point x="462" y="186"/>
			<point x="462" y="240" type="curve" smooth="yes"/>
		</contour>
	</outline>
</glyph>
<glyph name="u" format="2">
	<unicode hex="0075"/>
	<advance width="680"/>
	<outline>
		<contour>
			<point x="122" y="352" type="curve" smooth="yes"/>
			<point x="122" y="123" type="line" smooth="yes"/>
			<point x="122" y="83.33296"/>
			<point x="133.7910205566" y="55.4569405566"/>
			<point x="153.3747391427" y="35.9955804247" type="curve" smooth="yes"/>
			<point x="189.0857055556" y="0.5077350002"/>
			<point x="250.70866" y="-7"/>
			<point x="314" y="-7" type="curve" smooth="yes"/>
			<point x="347" y="-7"/>
			<point x="414" y="-7"/>
			<point x="468" y="63" type="curve"/>
			<point x="468" y="63" type="line"/>
			<point x="468" y="-7" type="line"/>
			<point x="650" y="0" type="line"/>
			<point x="650" y="52" type="line"/>
			<point x="591" y="52"/>
			<point x="584" y="52"/>
			<point x="584" y="91" type="curve" smooth="yes"/>
			<point x="584" y="451" type="line"/>
			<point x="396" y="443" type="line"/>
			<point x="396" y="391" type="line"/>
			<point x="455" y="391"/>
			<point x="462" y="391"/>
			<point x="462" y="352" type="curve" smooth="yes"/>
			<point x="462" y="162" type="line" smooth="yes"/>
			<point x="462" y="86"/>
			<point x="409" y="35"/>
			<point x="328" y="35" type="curve" smooth="yes"/>
			<point x="247" y="35"/>
			<point x="244" y="58"/>
			<point x="244" y="109" type="curve" smooth="yes"/>
			<point x="244" y="451" type="line"/>
			<point x="56" y="443" type="line"/>
			<point x="56" y="391" type="line"/>
			<point x="115" y="391"/>
			<point x="122" y="391"/>
		</contour>
	</outline>
</glyph>
<glyph name="v" format="2">
  <advance width="646"/>
  <unicode hex="0076"/>
  <outline>
    <contour>
      <point x="323" y="-5" type="curve" smooth="yes"/>
      <point x="339" y="-5"/>
      <point x="355" y="-5"/>
      <point x="369" y="23" type="curve" smooth="yes"/>
      <point x="426.942" y="138.88400000000001"/>
      <point x="484.884" y="254.768"/>
      <point x="543" y="371" type="curve" smooth="yes"/>
      <point x="551" y="387"/>
      <point x="554" y="392"/>
      <point x="616" y="392" type="curve"/>
      <point x="616.0" y="409.31600000000003"/>
      <point x="616.0" y="426.632"/>
      <point x="616" y="444" type="curve"/>
      <point x="578" y="441"/>
      <point x="576" y="441"/>
      <point x="533" y="441" type="curve" smooth="yes"/>
      <point x="526" y="441"/>
      <point x="473" y="441"/>
      <point x="443" y="444" type="curve"/>
      <point x="443.0" y="426.68399999999997"/>
      <point x="443.0" y="409.368"/>
      <point x="443" y="392" type="curve"/>
      <point x="469" y="392"/>
      <point x="476" y="389"/>
      <point x="486" y="384" type="curve"/>
      <point x="485" y="382"/>
      <point x="483" y="377"/>
      <point x="480" y="371" type="curve" smooth="yes"/>
      <point x="439.041" y="288.749"/>
      <point x="398.082" y="206.498"/>
      <point x="357" y="124" type="curve"/>
      <point x="312.045" y="213.244"/>
      <point x="267.09" y="302.488"/>
      <point x="222" y="392" type="curve"/>
      <point x="222.0" y="392.0"/>
      <point x="222.0" y="392.0"/>
      <point x="222" y="392" type="curve"/>
      <point x="237.984" y="392.0"/>
      <point x="253.96800000000002" y="392.0"/>
      <point x="270" y="392" type="curve"/>
      <point x="270.0" y="409.31600000000003"/>
      <point x="270.0" y="426.632"/>
      <point x="270" y="444" type="curve"/>
      <point x="209" y="441"/>
      <point x="198" y="441"/>
      <point x="147" y="441" type="curve" smooth="yes"/>
      <point x="115" y="441"/>
      <point x="73" y="441"/>
      <point x="30" y="444" type="curve"/>
      <point x="30.0" y="426.68399999999997"/>
      <point x="30.0" y="409.368"/>
      <point x="30" y="392" type="curve"/>
      <point x="50.979" y="392.0"/>
      <point x="71.958" y="392.0"/>
      <point x="93" y="392" type="curve"/>
      <point x="154.60500000000002" y="269.123"/>
      <point x="216.21" y="146.24599999999998"/>
      <point x="278" y="23" type="curve" smooth="yes"/>
      <point x="287" y="6"/>
      <point x="292" y="-5"/>
    </contour>
  </outline>
</glyph>
<glyph name="w" format="2">
  <advance width="884"/>
  <unicode hex="0077"/>
  <outline>
    <contour>
      <point x="790" y="371" type="line" smooth="yes"/>
      <point x="797" y="388"/>
      <point x="799" y="392"/>
      <point x="856" y="392" type="curve"/>
      <point x="856.0" y="409.31600000000003"/>
      <point x="856.0" y="426.632"/>
      <point x="856" y="444" type="curve"/>
      <point x="821" y="441"/>
      <point x="819" y="441"/>
      <point x="774" y="441" type="curve" smooth="yes"/>
      <point x="742" y="441"/>
      <point x="712" y="441"/>
      <point x="680" y="444" type="curve"/>
      <point x="680.0" y="426.68399999999997"/>
      <point x="680.0" y="409.368"/>
      <point x="680" y="392" type="curve"/>
      <point x="696" y="392"/>
      <point x="712" y="392"/>
      <point x="733" y="384" type="curve"/>
      <point x="731" y="378"/>
      <point x="730" y="374"/>
      <point x="728" y="370" type="curve" smooth="yes"/>
      <point x="619" y="118" type="line"/>
      <point x="501" y="392" type="line"/>
      <point x="501.0" y="392.0"/>
      <point x="501.0" y="392.0"/>
      <point x="501" y="392" type="curve"/>
      <point x="517.983" y="392.0"/>
      <point x="534.966" y="392.0"/>
      <point x="552" y="392" type="curve"/>
      <point x="552" y="444" type="line"/>
      <point x="507" y="441"/>
      <point x="461" y="441"/>
      <point x="440" y="441" type="curve" smooth="yes"/>
      <point x="423" y="441"/>
      <point x="368" y="441"/>
      <point x="338" y="444" type="curve"/>
      <point x="338" y="392" type="line"/>
      <point x="356.981" y="392.0"/>
      <point x="375.962" y="392.0"/>
      <point x="395" y="392" type="curve"/>
      <point x="398" y="385"/>
      <point x="408" y="363"/>
      <point x="412" y="354" type="curve"/>
      <point x="320" y="141" type="line"/>
      <point x="212" y="392" type="line"/>
      <point x="212.0" y="392.0"/>
      <point x="212.0" y="392.0"/>
      <point x="212" y="392" type="curve"/>
      <point x="228.65" y="392.0"/>
      <point x="245.3" y="392.0"/>
      <point x="262" y="392" type="curve"/>
      <point x="262" y="444" type="line"/>
      <point x="204" y="441"/>
      <point x="188" y="441"/>
      <point x="141" y="441" type="curve" smooth="yes"/>
      <point x="119" y="441"/>
      <point x="63" y="441"/>
      <point x="28" y="444" type="curve"/>
      <point x="28" y="392" type="line"/>
      <point x="47.314" y="392.0"/>
      <point x="66.628" y="392.0"/>
      <point x="86" y="392" type="curve"/>
      <point x="244" y="23" type="line" smooth="yes"/>
      <point x="256" y="-5"/>
      <point x="273" y="-5"/>
      <point x="287" y="-5" type="curve" smooth="yes"/>
      <point x="317" y="-5"/>
      <point x="321" y="4"/>
      <point x="330" y="25" type="curve" smooth="yes"/>
      <point x="442" y="283" type="line"/>
      <point x="554" y="25" type="line" smooth="yes"/>
      <point x="563" y="4"/>
      <point x="567" y="-5"/>
      <point x="597" y="-5" type="curve" smooth="yes"/>
      <point x="612" y="-5"/>
      <point x="628" y="-5"/>
      <point x="640" y="23" type="curve" smooth="yes"/>
    </contour>
  </outline>
</glyph>
<glyph name="y" format="2">
	<unicode hex="0079"/>
	<advance width="1292"/>
	<outline>
		<contour>
			<point x="274" y="-402" type="curve" smooth="yes"/>
			<point x="468" y="-402"/>
			<point x="588" y="-234"/>
			<point x="616" y="-180" type="curve" smooth="yes"/>
			<point x="1086" y="742" type="line" smooth="yes"/>
			<point x="1104" y="776"/>
			<point x="1108" y="784"/>
			<point x="1232" y="784" type="curve"/>
			<point x="1232" y="888" type="line"/>
			<point x="1156" y="882"/>
			<point x="1112" y="882"/>
			<point x="1066" y="882" type="curve" smooth="yes"/>
			<point x="1052" y="882"/>
			<point x="946" y="882"/>
			<point x="886" y="888" type="curve"/>
			<point x="886" y="784" type="line"/>
			<point x="888" y="784"/>
			<point x="968" y="784"/>
			<point x="968" y="764" type="curve" smooth="yes"/>
			<point x="968" y="758"/>
			<point x="962" y="746"/>
			<point x="958" y="738" type="curve" smooth="yes"/>
			<point x="714" y="256" type="line"/>
			<point x="446" y="784" type="line"/>
			<point x="446" y="784"/>
			<point x="446" y="784"/>
			<point x="446" y="784" type="curve"/>
			<point x="477" y="784"/>
			<point x="509" y="784"/>
			<point x="540" y="784" type="curve"/>
			<point x="540" y="888" type="line"/>
			<point x="424" y="882"/>
			<point x="382" y="882"/>
			<point x="294" y="882" type="curve" smooth="yes"/>
			<point x="248" y="882"/>
			<point x="140" y="882"/>
			<point x="60" y="888" type="curve"/>
			<point x="60" y="784" type="line"/>
			<point x="102" y="784"/>
			<point x="144" y="784"/>
			<point x="186" y="784" type="curve"/>
			<point x="582" y="0" type="line"/>
			<point x="500" y="-170"/>
			<point x="484" y="-190"/>
			<point x="470" y="-210" type="curve" smooth="yes"/>
			<point x="394" y="-308"/>
			<point x="308" y="-318"/>
			<point x="276" y="-318" type="curve" smooth="yes"/>
			<point x="258" y="-318"/>
			<point x="250" y="-316"/>
			<point x="240" y="-312" type="curve"/>
			<point x="280" y="-288"/>
			<point x="298" y="-248"/>
			<point x="298" y="-204" type="curve" smooth="yes"/>
			<point x="298" y="-124"/>
			<point x="238" y="-80"/>
			<point x="174" y="-80" type="curve" smooth="yes"/>
			<point x="108" y="-80"/>
			<point x="48" y="-124"/>
			<point x="48" y="-206" type="curve" smooth="yes"/>
			<point x="48" y="-312"/>
			<point x="146" y="-402"/>
		</contour>
	</outline>
</glyph>
<glyph name="z" format="2">
	<unicode hex="007A"/>
	<advance width="1088"/>
	<outline>
		<contour>
			<point x="670" y="804" type="line"/>
			<point x="90" y="106" type="line" smooth="yes"/>
			<point x="68" y="80"/>
			<point x="68" y="70"/>
			<point x="68" y="52" type="curve" smooth="yes"/>
			<point x="68" y="0"/>
			<point x="98" y="0"/>
			<point x="136" y="0" type="curve" smooth="yes"/>
			<point x="944" y="0" type="line"/>
			<point x="984" y="412" type="line"/>
			<point x="872" y="412" type="line"/>
			<point x="854" y="208"/>
			<point x="810" y="94"/>
			<point x="554" y="94" type="curve" smooth="yes"/>
			<point x="378" y="94" type="line"/>
			<point x="958" y="792" type="line" smooth="yes"/>
			<point x="978" y="816"/>
			<point x="978" y="824"/>
			<point x="978" y="838" type="curve" smooth="yes"/>
			<point x="978" y="888"/>
			<point x="946" y="888"/>
			<point x="910" y="888" type="curve" smooth="yes"/>
			<point x="128" y="888" type="line"/>
			<point x="102" y="532" type="line"/>
			<point x="214" y="532" type="line"/>
			<point x="228" y="736"/>
			<point x="294" y="804"/>
			<point x="504" y="804" type="curve" smooth="yes"/>
		</contour>
	</outline>
</glyph>
<glyph name="exclamdown" format="2">
	<unicode hex="00A1"/>
	<advance width="744"/>
	<outline>
		<contour>
			<point x="372" y="-416" type="curve" smooth="yes"/>
			<point x="444" y="-416"/>
			<point x="532" y="-366"/>
			<point x="532" y="-268" type="curve" smooth="yes"/>
			<point x="532" y="-260"/>
			<point x="531" y="-252"/>
			<point x="430" y="486" type="curve" smooth="yes"/>
			<point x="424" y="532"/>
			<point x="422" y="542"/>
			<point x="372" y="542" type="curve" smooth="yes"/>
			<point x="322" y="542"/>
			<point x="320" y="530"/>
			<point x="314" y="488" type="curve" smooth="yes"/>
			<point x="214" y="-250"/>
			<point x="212" y="-260"/>
			<point x="212" y="-268" type="curve" smooth="yes"/>
			<point x="212" y="-368"/>
			<point x="300" y="-416"/>
		</contour>
		<contour>
			<point x="532" y="840" type="curve" smooth="yes"/>
			<point x="532" y="928"/>
			<point x="460" y="1000"/>
			<point x="372" y="1000" type="curve" smooth="yes"/>
			<point x="284" y="1000"/>
			<point x="212" y="928"/>
			<point x="212" y="840" type="curve" smooth="yes"/>
			<point x="212" y="752"/>
			<point x="284" y="680"/>
			<point x="372" y="680" type="curve" smooth="yes"/>
			<point x="460" y="680"/>
			<point x="532" y="752"/>
		</contour>
	</outline>
</glyph>
<glyph name="dieresis" format="2">
	<unicode hex="00A8"/>
	<advance width="612"/>
	<outline>
		<contour>
			<point x="261" y="621" type="curve" smooth="yes"/>
			<point x="261" y="659"/>
			<point x="231" y="695"/>
			<point x="187" y="695" type="curve" smooth="yes"/>
			<point x="150" y="695"/>
			<point x="114" y="665"/>
			<point x="114" y="622" type="curve" smooth="yes"/>
			<point x="114" y="575"/>
			<point x="152" y="548"/>
			<point x="187" y="548" type="curve" smooth="yes"/>
			<point x="233" y="548"/>
			<point x="261" y="587"/>
		</contour>
		<contour>
			<point x="498" y="621" type="curve" smooth="yes"/>
			<point x="498" y="668"/>
			<point x="460" y="695"/>
			<point x="425" y="695" type="curve" smooth="yes"/>
			<point x="379" y="695"/>
			<point x="351" y="656"/>
			<point x="351" y="622" type="curve" smooth="yes"/>
			<point x="351" y="584"/>
			<point x="381" y="548"/>
			<point x="425" y="548" type="curve" smooth="yes"/>
			<point x="462" y="548"/>
			<point x="498" y="578"/>
		</contour>
	</outline>
</glyph>
<glyph name="macron" format="2">
	<unicode hex="00AF"/>
	<advance width="612"/>
	<outline>
		<contour>
			<point x="527" y="558" type="line"/>
			<point x="527" y="616" type="line"/>
			<point x="85" y="616" type="line"/>
			<point x="85" y="558" type="line"/>
		</contour>
	</outline>
</glyph>
<glyph name="acute" format="2">
	<unicode hex="00B4"/>
	<advance width="1224"/>
	<outline>
		<contour>
			<point x="572" y="1010" type="line"/>
			<point x="898" y="1166" type="line"/>
			<point x="916" y="1176"/>
			<point x="976" y="1204"/>
			<point x="976" y="1274" type="curve" smooth="yes"/>
			<point x="976" y="1336"/>
			<point x="920" y="1408"/>
			<point x="848" y="1408" type="curve" smooth="yes"/>
			<point x="812" y="1408"/>
			<point x="782" y="1390"/>
			<point x="756" y="1362" type="curve" smooth="yes"/>
			<point x="673" y="1275"/>
			<point x="591" y="1188"/>
			<point x="508" y="1100" type="curve"/>
		</contour>
	</outline>
</glyph>
<glyph name="cedilla" format="2">
	<unicode hex="00B8"/>
	<advance width="1088"/>
	<outline>
		<contour>
			<point x="694" y="-226" type="curve" smooth="yes"/>
			<point x="694" y="-326"/>
			<point x="442" y="-326"/>
			<point x="370" y="-326" type="curve" smooth="yes"/>
			<point x="341" y="-326"/>
			<point x="313" y="-326"/>
			<point x="284" y="-326" type="curve"/>
			<point x="284" y="-410" type="line"/>
			<point x="325" y="-410"/>
			<point x="365" y="-410"/>
			<point x="406" y="-410" type="curve" smooth="yes"/>
			<point x="514" y="-410"/>
			<point x="624" y="-406"/>
			<point x="732" y="-386" type="curve" smooth="yes"/>
			<point x="826" y="-366"/>
			<point x="938" y="-328"/>
			<point x="938" y="-224" type="curve" smooth="yes"/>
			<point x="938" y="-92"/>
			<point x="796" y="-64"/>
			<point x="734" y="-54" type="curve"/>
			<point x="734" y="-28" type="line"/>
			<point x="490" y="-28" type="line"/>
			<point x="490" y="-126" type="line"/>
			<point x="560" y="-126"/>
			<point x="694" y="-134"/>
		</contour>
	</outline>
</glyph>
<glyph name="questiondown" format="2">
  <advance width="578"/>
  <unicode hex="00BF"/>
  <outline>
    <contour>
      <point x="243" y="215" type="line" smooth="yes"/>
      <point x="243" y="106"/>
      <point x="160" y="50"/>
      <point x="124" y="27" type="curve" smooth="yes"/>
      <point x="72" y="-6"/>
      <point x="68" y="-54"/>
      <point x="68" y="-72" type="curve" smooth="yes"/>
      <point x="68" y="-201"/>
      <point x="232" y="-201"/>
      <point x="271" y="-201" type="curve" smooth="yes"/>
      <point x="315" y="-201"/>
      <point x="509" y="-201"/>
      <point x="509" y="-73" type="curve" smooth="yes"/>
      <point x="509" y="-21"/>
      <point x="468" y="-4"/>
      <point x="442" y="-4" type="curve" smooth="yes"/>
      <point x="409" y="-4"/>
      <point x="374" y="-27"/>
      <point x="374" y="-72" type="curve" smooth="yes"/>
      <point x="374" y="-96"/>
      <point x="385" y="-120"/>
      <point x="412" y="-133" type="curve"/>
      <point x="365" y="-158"/>
      <point x="298" y="-159"/>
      <point x="276" y="-159" type="curve" smooth="yes"/>
      <point x="204" y="-159"/>
      <point x="203" y="-136"/>
      <point x="203" y="-79" type="curve" smooth="yes"/>
      <point x="203" y="-28"/>
      <point x="211" y="-17"/>
      <point x="225" y="2" type="curve" smooth="yes"/>
      <point x="299" y="97"/>
      <point x="299" y="183"/>
      <point x="299" y="224" type="curve" smooth="yes"/>
      <point x="299" y="266"/>
      <point x="299" y="271"/>
      <point x="271" y="271" type="curve" smooth="yes"/>
      <point x="243" y="271"/>
      <point x="243" y="262"/>
      <point x="243" y="240" type="curve" smooth="yes"/>
    </contour>
    <contour>
      <point x="351" y="420" type="curve" smooth="yes"/>
      <point x="351" y="464"/>
      <point x="315" y="500"/>
      <point x="271" y="500" type="curve" smooth="yes"/>
      <point x="227" y="500"/>
      <point x="191" y="464"/>
      <point x="191" y="420" type="curve" smooth="yes"/>
      <point x="191" y="376"/>
      <point x="227" y="340"/>
      <point x="271" y="340" type="curve" smooth="yes"/>
      <point x="315" y="340"/>
      <point x="351" y="376"/>
    </contour>
  </outline>
</glyph>
<glyph name="Oslash" format="2">
	<unicode hex="00D8"/>
	<advance width="1904"/>
	<outline>
		<contour>
			<point x="1572" y="1442" type="line"/>
			<point x="1498" y="1498" type="line"/>
			<point x="1366" y="1320" type="line"/>
			<point x="1238" y="1376"/>
			<point x="1090" y="1400"/>
			<point x="952" y="1400" type="curve" smooth="yes"/>
			<point x="408" y="1400"/>
			<point x="136" y="1068"/>
			<point x="136" y="678" type="curve" smooth="yes"/>
			<point x="136" y="562"/>
			<point x="162" y="272"/>
			<point x="454" y="96" type="curve"/>
			<point x="332" y="-70" type="line"/>
			<point x="357" y="-89"/>
			<point x="381" y="-107"/>
			<point x="406" y="-126" type="curve"/>
			<point x="538" y="52" type="line"/>
			<point x="680" y="-12"/>
			<point x="834" y="-28"/>
			<point x="952" y="-28" type="curve" smooth="yes"/>
			<point x="1492" y="-28"/>
			<point x="1768" y="292"/>
			<point x="1768" y="678" type="curve" smooth="yes"/>
			<point x="1768" y="872"/>
			<point x="1694" y="1126"/>
			<point x="1448" y="1274" type="curve"/>
		</contour>
		<contour>
			<point x="952" y="56" type="curve" smooth="yes"/>
			<point x="798" y="56"/>
			<point x="682" y="102"/>
			<point x="616" y="154" type="curve"/>
			<point x="1356" y="1150" type="line"/>
			<point x="1456" y="1022"/>
			<point x="1470" y="862"/>
			<point x="1470" y="680" type="curve" smooth="yes"/>
			<point x="1470" y="498"/>
			<point x="1458" y="338"/>
			<point x="1350" y="210" type="curve" smooth="yes"/>
			<point x="1266" y="114"/>
			<point x="1124" y="56"/>
		</contour>
		<contour>
			<point x="546" y="220" type="line"/>
			<point x="442" y="348"/>
			<point x="434" y="526"/>
			<point x="434" y="680" type="curve" smooth="yes"/>
			<point x="434" y="818"/>
			<point x="438" y="1024"/>
			<point x="556" y="1160" type="curve" smooth="yes"/>
			<point x="674" y="1292"/>
			<point x="844" y="1316"/>
			<point x="952" y="1316" type="curve" smooth="yes"/>
			<point x="1092" y="1316"/>
			<point x="1210" y="1276"/>
			<point x="1286" y="1216" type="curve"/>
		</contour>
	</outline>
</glyph>
<glyph name="germandbls" format="2">
	<unicode hex="00DF"/>
	<advance width="1274"/>
	<outline>
		<contour>
			<point x="892" y="840" type="curve"/>
			<point x="1098" y="912"/>
			<point x="1138" y="1048"/>
			<point x="1138" y="1122" type="curve" smooth="yes"/>
			<point x="1138" y="1254"/>
			<point x="1014" y="1402"/>
			<point x="678" y="1402" type="curve" smooth="yes"/>
			<point x="414" y="1402"/>
			<point x="224" y="1308"/>
			<point x="224" y="1108" type="curve" smooth="yes"/>
			<point x="224" y="888" type="line"/>
			<point x="92" y="888" type="line"/>
			<point x="92" y="784" type="line"/>
			<point x="224" y="784" type="line"/>
			<point x="224" y="104" type="line"/>
			<point x="180" y="104"/>
			<point x="136" y="104"/>
			<point x="92" y="104" type="curve"/>
			<point x="92" y="0" type="line"/>
			<point x="198" y="6"/>
			<point x="236" y="6"/>
			<point x="304" y="6" type="curve" smooth="yes"/>
			<point x="384" y="6"/>
			<point x="412" y="6"/>
			<point x="456" y="0" type="curve"/>
			<point x="456" y="1112" type="line" smooth="yes"/>
			<point x="456" y="1168"/>
			<point x="456" y="1318"/>
			<point x="674" y="1318" type="curve" smooth="yes"/>
			<point x="868" y="1318"/>
			<point x="886" y="1200"/>
			<point x="886" y="1122" type="curve" smooth="yes"/>
			<point x="886" y="974"/>
			<point x="804" y="896"/>
			<point x="646" y="888" type="curve" smooth="yes"/>
			<point x="616" y="886"/>
			<point x="592" y="886"/>
			<point x="592" y="846" type="curve" smooth="yes"/>
			<point x="592" y="812"/>
			<point x="614" y="806"/>
			<point x="624" y="804" type="curve"/>
			<point x="878" y="790"/>
			<point x="954" y="604"/>
			<point x="954" y="358" type="curve" smooth="yes"/>
			<point x="954" y="296"/>
			<point x="954" y="70"/>
			<point x="752" y="70" type="curve" smooth="yes"/>
			<point x="720" y="70"/>
			<point x="714" y="72"/>
			<point x="698" y="80" type="curve"/>
			<point x="708" y="86"/>
			<point x="742" y="114"/>
			<point x="742" y="170" type="curve" smooth="yes"/>
			<point x="742" y="240"/>
			<point x="692" y="278"/>
			<point x="634" y="278" type="curve" smooth="yes"/>
			<point x="572" y="278"/>
			<point x="526" y="234"/>
			<point x="526" y="168" type="curve" smooth="yes"/>
			<point x="526" y="84"/>
			<point x="600" y="-14"/>
			<point x="756" y="-14" type="curve" smooth="yes"/>
			<point x="1016" y="-14"/>
			<point x="1206" y="128"/>
			<point x="1206" y="360" type="curve" smooth="yes"/>
			<point x="1206" y="594"/>
			<point x="1084" y="754"/>
		</contour>
	</outline>
</glyph>
<glyph name="ae" format="2">
	<unicode hex="00E6"/>
	<advance width="1768"/>
	<outline>
		<contour>
			<point x="82" y="212" type="curve" smooth="yes"/>
			<point x="82" y="-14"/>
			<point x="418" y="-14"/>
			<point x="492" y="-14" type="curve" smooth="yes"/>
			<point x="584" y="-14"/>
			<point x="806" y="-6"/>
			<point x="914" y="112" type="curve"/>
			<point x="1020" y="28"/>
			<point x="1150" y="-14"/>
			<point x="1308" y="-14" type="curve" smooth="yes"/>
			<point x="1616" y="-14"/>
			<point x="1700" y="194"/>
			<point x="1700" y="230" type="curve" smooth="yes"/>
			<point x="1700" y="272"/>
			<point x="1658" y="272"/>
			<point x="1644" y="272" type="curve" smooth="yes"/>
			<point x="1610" y="272"/>
			<point x="1600" y="268"/>
			<point x="1586" y="234" type="curve" smooth="yes"/>
			<point x="1536" y="112"/>
			<point x="1412" y="80"/>
			<point x="1328" y="80" type="curve" smooth="yes"/>
			<point x="1022" y="80"/>
			<point x="1010" y="342"/>
			<point x="1006" y="424" type="curve"/>
			<point x="1632" y="424" type="line" smooth="yes"/>
			<point x="1676" y="424"/>
			<point x="1700" y="424"/>
			<point x="1700" y="484" type="curve" smooth="yes"/>
			<point x="1700" y="658"/>
			<point x="1634" y="910"/>
			<point x="1278" y="910" type="curve" smooth="yes"/>
			<point x="1158" y="910"/>
			<point x="1034" y="886"/>
			<point x="920" y="796" type="curve"/>
			<point x="792" y="910"/>
			<point x="602" y="910"/>
			<point x="536" y="910" type="curve" smooth="yes"/>
			<point x="428" y="910"/>
			<point x="150" y="908"/>
			<point x="150" y="712" type="curve" smooth="yes"/>
			<point x="150" y="624"/>
			<point x="218" y="576"/>
			<point x="284" y="576" type="curve" smooth="yes"/>
			<point x="364" y="576"/>
			<point x="420" y="634"/>
			<point x="420" y="710" type="curve" smooth="yes"/>
			<point x="420" y="774"/>
			<point x="380" y="810"/>
			<point x="378" y="812" type="curve"/>
			<point x="428" y="822"/>
			<point x="496" y="826"/>
			<point x="530" y="826" type="curve" smooth="yes"/>
			<point x="686" y="826"/>
			<point x="762" y="744"/>
			<point x="762" y="594" type="curve" smooth="yes"/>
			<point x="762" y="498" type="line"/>
			<point x="576" y="490"/>
			<point x="82" y="470"/>
		</contour>
		<contour>
			<point x="516" y="70" type="curve" smooth="yes"/>
			<point x="406" y="70"/>
			<point x="326" y="134"/>
			<point x="326" y="212" type="curve" smooth="yes"/>
			<point x="326" y="376"/>
			<point x="606" y="410"/>
			<point x="764" y="418" type="curve"/>
			<point x="766" y="386"/>
			<point x="768" y="344"/>
			<point x="794" y="280" type="curve" smooth="yes"/>
			<point x="802" y="262"/>
			<point x="802" y="260"/>
			<point x="802" y="250" type="curve" smooth="yes"/>
			<point x="802" y="138"/>
			<point x="658" y="70"/>
		</contour>
		<contour>
			<point x="1006" y="502" type="line"/>
			<point x="1008" y="564"/>
			<point x="1018" y="826"/>
			<point x="1278" y="826" type="curve" smooth="yes"/>
			<point x="1494" y="826"/>
			<point x="1504" y="582"/>
			<point x="1506" y="502" type="curve"/>
		</contour>
	</outline>
</glyph>
<glyph name="oslash" format="2">
	<unicode hex="00F8"/>
	<advance width="1224"/>
	<outline>
		<contour>
			<point x="224" y="-218" type="line"/>
			<point x="380" y="20" type="line"/>
			<point x="454" y="-4"/>
			<point x="532" y="-14"/>
			<point x="612" y="-14" type="curve" smooth="yes"/>
			<point x="984" y="-14"/>
			<point x="1156" y="200"/>
			<point x="1156" y="436" type="curve" smooth="yes"/>
			<point x="1156" y="582"/>
			<point x="1092" y="748"/>
			<point x="924" y="838" type="curve"/>
			<point x="1068" y="1060" type="line"/>
			<point x="1000" y="1108" type="line"/>
			<point x="846" y="874" type="line"/>
			<point x="738" y="910"/>
			<point x="638" y="910"/>
			<point x="612" y="910" type="curve" smooth="yes"/>
			<point x="244" y="910"/>
			<point x="68" y="686"/>
			<point x="68" y="436" type="curve" smooth="yes"/>
			<point x="68" y="300"/>
			<point x="128" y="142"/>
			<point x="302" y="52" type="curve"/>
			<point x="156" y="-170" type="line"/>
		</contour>
		<contour>
			<point x="612" y="70" type="curve" smooth="yes"/>
			<point x="590" y="70"/>
			<point x="506" y="70"/>
			<point x="440" y="108" type="curve"/>
			<point x="850" y="728" type="line"/>
			<point x="910" y="654"/>
			<point x="912" y="554"/>
			<point x="912" y="438" type="curve" smooth="yes"/>
			<point x="912" y="342"/>
			<point x="912" y="220"/>
			<point x="836" y="143" type="curve" smooth="yes"/>
			<point x="792" y="99"/>
			<point x="722" y="70"/>
		</contour>
		<contour>
			<point x="372" y="160" type="line"/>
			<point x="312" y="234"/>
			<point x="312" y="342"/>
			<point x="312" y="438" type="curve" smooth="yes"/>
			<point x="312" y="536"/>
			<point x="312" y="670"/>
			<point x="393" y="752" type="curve" smooth="yes"/>
			<point x="437" y="797"/>
			<point x="506" y="826"/>
			<point x="612" y="826" type="curve" smooth="yes"/>
			<point x="714" y="826"/>
			<point x="780" y="790"/>
			<point x="786" y="786" type="curve"/>
		</contour>
	</outline>
</glyph>
<glyph name="dotlessi" format="2">
	<unicode hex="0131"/>
	<advance width="680"/>
	<outline>
		<contour>
			<point x="482" y="902" type="line"/>
			<point x="124" y="886" type="line"/>
			<point x="124" y="782" type="line"/>
			<point x="236" y="782"/>
			<point x="250" y="782"/>
			<point x="250" y="706" type="curve" smooth="yes"/>
			<point x="250" y="104" type="line"/>
			<point x="250" y="104"/>
			<point x="250" y="104"/>
			<point x="250" y="104" type="curve"/>
			<point x="118" y="104" type="line"/>
			<point x="118" y="0" type="line"/>
			<point x="234" y="6"/>
			<point x="256" y="6"/>
			<point x="362" y="6" type="curve" smooth="yes"/>
			<point x="444" y="6"/>
			<point x="502" y="6"/>
			<point x="600" y="0" type="curve"/>
			<point x="600" y="104" type="line"/>
			<point x="561" y="104"/>
			<point x="521" y="104"/>
			<point x="482" y="104" type="curve"/>
		</contour>
	</outline>
</glyph>
<glyph name="OE" format="2">
	<unicode hex="0152"/>
	<advance width="1243"/>
	<outline>
		<contour>
			<point x="1209" y="275" type="line"/>
			<point x="1153" y="275" type="line"/>
			<point x="1130" y="139"/>
			<point x="1100" y="52"/>
			<point x="919" y="52" type="curve" smooth="yes"/>
			<point x="761" y="52" type="line"/>
			<point x="761" y="52"/>
			<point x="761" y="52"/>
			<point x="761" y="52" type="curve"/>
			<point x="761" y="330" type="line"/>
			<point x="857" y="330" type="line" smooth="yes"/>
			<point x="943" y="330"/>
			<point x="984" y="312"/>
			<point x="984" y="215" type="curve"/>
			<point x="1040" y="215" type="line"/>
			<point x="1040" y="497" type="line"/>
			<point x="984" y="497" type="line"/>
			<point x="984" y="400"/>
			<point x="943" y="382"/>
			<point x="857" y="382" type="curve" smooth="yes"/>
			<point x="761" y="382" type="line"/>
			<point x="761" y="634" type="line"/>
			<point x="761" y="634"/>
			<point x="761" y="634"/>
			<point x="761" y="634" type="curve"/>
			<point x="917" y="634" type="line" smooth="yes"/>
			<point x="1070" y="634"/>
			<point x="1102" y="569"/>
			<point x="1119" y="443" type="curve"/>
			<point x="1175" y="443" type="line"/>
			<point x="1142" y="686" type="line"/>
			<point x="691" y="686" type="line" smooth="yes"/>
			<point x="677" y="686"/>
			<point x="645" y="688"/>
			<point x="605" y="692" type="curve" smooth="yes"/>
			<point x="533" y="700"/>
			<point x="508" y="700"/>
			<point x="494" y="700" type="curve" smooth="yes"/>
			<point x="227" y="700"/>
			<point x="87" y="538"/>
			<point x="87" y="339" type="curve" smooth="yes"/>
			<point x="87" y="143"/>
			<point x="229" y="-14"/>
			<point x="494" y="-14" type="curve" smooth="yes"/>
			<point x="525" y="-14"/>
			<point x="561" y="-11"/>
			<point x="586" y="-8" type="curve" smooth="yes"/>
			<point x="653" y="-1"/>
			<point x="681" y="0"/>
			<point x="691" y="0" type="curve" smooth="yes"/>
			<point x="1160" y="0" type="line"/>
		</contour>
		<contour>
			<point x="241" y="355" type="curve" smooth="yes"/>
			<point x="241" y="545"/>
			<point x="344" y="658"/>
			<point x="500" y="658" type="curve" smooth="yes"/>
			<point x="592" y="658"/>
			<point x="631" y="639"/>
			<point x="631" y="488" type="curve" smooth="yes"/>
			<point x="631" y="439.049"/>
			<point x="631" y="390.098"/>
			<point x="631" y="341" type="curve"/>
			<point x="631" y="293.381"/>
			<point x="631" y="245.762"/>
			<point x="631" y="198" type="curve" smooth="yes"/>
			<point x="631" y="48"/>
			<point x="592" y="28"/>
			<point x="500" y="28" type="curve" smooth="yes"/>
			<point x="341" y="28"/>
			<point x="241" y="156"/>
		</contour>
	</outline>
</glyph>
<glyph name="oe" format="2">
  <advance width="952"/>
  <unicode hex="0153"/>
  <outline>
    <contour>
      <point x="302" y="-7" type="curve" smooth="yes"/>
      <point x="375" y="-7"/>
      <point x="451" y="10"/>
      <point x="511" y="69" type="curve"/>
      <point x="542" y="38"/>
      <point x="609" y="-7"/>
      <point x="722" y="-7" type="curve" smooth="yes"/>
      <point x="876" y="-7"/>
      <point x="918" y="97"/>
      <point x="918" y="115" type="curve" smooth="yes"/>
      <point x="918" y="136"/>
      <point x="897" y="136"/>
      <point x="890" y="136" type="curve" smooth="yes"/>
      <point x="873" y="136"/>
      <point x="868" y="134"/>
      <point x="861" y="117" type="curve" smooth="yes"/>
      <point x="836" y="56"/>
      <point x="774" y="40"/>
      <point x="732" y="40" type="curve" smooth="yes"/>
      <point x="579" y="40"/>
      <point x="573" y="171"/>
      <point x="571" y="212" type="curve"/>
      <point x="884" y="212" type="line" smooth="yes"/>
      <point x="906" y="212"/>
      <point x="918" y="212"/>
      <point x="918" y="242" type="curve" smooth="yes"/>
      <point x="918" y="351"/>
      <point x="867" y="455"/>
      <point x="707" y="455" type="curve" smooth="yes"/>
      <point x="603" y="455"/>
      <point x="544" y="416"/>
      <point x="509" y="382" type="curve"/>
      <point x="481" y="408"/>
      <point x="423" y="455"/>
      <point x="303" y="455" type="curve" smooth="yes"/>
      <point x="120" y="455"/>
      <point x="34" y="344"/>
      <point x="34" y="225" type="curve" smooth="yes"/>
      <point x="34" y="99"/>
      <point x="126" y="-7"/>
    </contour>
    <contour>
      <point x="303" y="35" type="curve" smooth="yes"/>
      <point x="156" y="35"/>
      <point x="156" y="175"/>
      <point x="156" y="229" type="curve" smooth="yes"/>
      <point x="156" y="282"/>
      <point x="156" y="413"/>
      <point x="302" y="413" type="curve" smooth="yes"/>
      <point x="449" y="413"/>
      <point x="449" y="283"/>
      <point x="449" y="229" type="curve" smooth="yes"/>
      <point x="449" y="176"/>
      <point x="449" y="35"/>
    </contour>
    <contour>
      <point x="571" y="251" type="line"/>
      <point x="572" y="282"/>
      <point x="577" y="413"/>
      <point x="707" y="413" type="curve" smooth="yes"/>
      <point x="815" y="413"/>
      <point x="820" y="291"/>
      <point x="821" y="251" type="curve"/>
    </contour>
  </outline>
</glyph>
<glyph name="circumflex" format="2">
	<unicode hex="02C6"/>
	<advance width="1224"/>
	<outline>
		<contour>
			<point x="612" y="1388" type="line"/>
			<point x="274" y="1140" type="line"/>
			<point x="338" y="1048" type="line"/>
			<point x="612" y="1210" type="line"/>
			<point x="886" y="1048" type="line"/>
			<point x="950" y="1140" type="line"/>
		</contour>
	</outline>
</glyph>
<glyph name="caron" format="2">
	<unicode hex="02C7"/>
	<advance width="612"/>
	<outline>
		<contour>
			<point x="306" y="604" type="line"/>
			<point x="165" y="657" type="line"/>
			<point x="141" y="607" type="line"/>
			<point x="306" y="516" type="line"/>
			<point x="471" y="607" type="line"/>
			<point x="447" y="657" type="line"/>
		</contour>
	</outline>
</glyph>
<glyph name="breve" format="2">
	<unicode hex="02D8"/>
	<advance width="1224"/>
	<outline>
		<contour>
			<point x="910" y="1388" type="line"/>
			<point x="906" y="1222"/>
			<point x="740" y="1152"/>
			<point x="612" y="1152" type="curve" smooth="yes"/>
			<point x="484" y="1152"/>
			<point x="318" y="1222"/>
			<point x="314" y="1388" type="curve"/>
			<point x="230" y="1388" type="line"/>
			<point x="234" y="1156"/>
			<point x="422" y="1014"/>
			<point x="612" y="1014" type="curve" smooth="yes"/>
			<point x="802" y="1014"/>
			<point x="990" y="1156"/>
			<point x="994" y="1388" type="curve"/>
		</contour>
	</outline>
</glyph>
<glyph name="dotaccent" format="2">
	<unicode hex="02D9"/>
	<advance width="680"/>
	<outline>
		<contour>
			<point x="500" y="1230" type="curve" smooth="yes"/>
			<point x="500" y="1320"/>
			<point x="424" y="1390"/>
			<point x="340" y="1390" type="curve" smooth="yes"/>
			<point x="250" y="1390"/>
			<point x="178" y="1318"/>
			<point x="178" y="1230" type="curve" smooth="yes"/>
			<point x="178" y="1140"/>
			<point x="254" y="1070"/>
			<point x="338" y="1070" type="curve" smooth="yes"/>
			<point x="428" y="1070"/>
			<point x="500" y="1142"/>
		</contour>
	</outline>
</glyph>
<glyph name="ring" format="2">
	<unicode hex="02DA"/>
	<advance width="922"/>
	<outline>
		<contour>
			<point x="591" y="620" type="curve" smooth="yes"/>
			<point x="591" y="662"/>
			<point x="553" y="704"/>
			<point x="461" y="704" type="curve" smooth="yes"/>
			<point x="358" y="704"/>
			<point x="330" y="654"/>
			<point x="330" y="621" type="curve" smooth="yes"/>
			<point x="330" y="579"/>
			<point x="368" y="537"/>
			<point x="460" y="537" type="curve" smooth="yes"/>
			<point x="563" y="537"/>
			<point x="591" y="587"/>
		</contour>
		<contour>
			<point x="461" y="579" type="curve" smooth="yes"/>
			<point x="417" y="579"/>
			<point x="386" y="579"/>
			<point x="386" y="620" type="curve" smooth="yes"/>
			<point x="386" y="660"/>
			<point x="412" y="662"/>
			<point x="460" y="662" type="curve" smooth="yes"/>
			<point x="504" y="662"/>
			<point x="535" y="662"/>
			<point x="535" y="621" type="curve" smooth="yes"/>
			<point x="535" y="581"/>
			<point x="509" y="579"/>
		</contour>
	</outline>
</glyph>
<glyph name="tilde" format="2">
	<unicode hex="02DC"/>
	<advance width="1224"/>
	<outline>
		<contour>
			<point x="264" y="1144" type="line"/>
			<point x="284" y="1168"/>
			<point x="348" y="1224"/>
			<point x="432" y="1224" type="curve" smooth="yes"/>
			<point x="484" y="1224"/>
			<point x="542" y="1202"/>
			<point x="608" y="1176" type="curve" smooth="yes"/>
			<point x="672" y="1152"/>
			<point x="714" y="1144"/>
			<point x="748" y="1144" type="curve" smooth="yes"/>
			<point x="822" y="1144"/>
			<point x="872" y="1180"/>
			<point x="910" y="1216" type="curve" smooth="yes"/>
			<point x="952" y="1258"/>
			<point x="928" y="1240"/>
			<point x="1020" y="1328" type="curve"/>
			<point x="960" y="1388" type="line"/>
			<point x="940" y="1364"/>
			<point x="876" y="1308"/>
			<point x="792" y="1308" type="curve" smooth="yes"/>
			<point x="740" y="1308"/>
			<point x="682" y="1330"/>
			<point x="616" y="1356" type="curve" smooth="yes"/>
			<point x="552" y="1380"/>
			<point x="510" y="1388"/>
			<point x="476" y="1388" type="curve" smooth="yes"/>
			<point x="402" y="1388"/>
			<point x="352" y="1352"/>
			<point x="314" y="1316" type="curve" smooth="yes"/>
			<point x="272" y="1274"/>
			<point x="296" y="1292"/>
			<point x="204" y="1204" type="curve"/>
		</contour>
	</outline>
</glyph>
<glyph name="hungarumlaut" format="2">
	<unicode hex="02DD"/>
	<advance width="612"/>
	<outline>
		<contour>
			<point x="147" y="544" type="line"/>
			<point x="193" y="511" type="line"/>
			<point x="226.633" y="539.971"/>
			<point x="260.266" y="568.942"/>
			<point x="294" y="598" type="curve" smooth="yes"/>
			<point x="303" y="606"/>
			<point x="320" y="620"/>
			<point x="320" y="645" type="curve" smooth="yes"/>
			<point x="320" y="681"/>
			<point x="282" y="711"/>
			<point x="250" y="711" type="curve" smooth="yes"/>
			<point x="212" y="711"/>
			<point x="198" y="676"/>
			<point x="194" y="665" type="curve" smooth="yes"/>
		</contour>
		<contour>
			<point x="351" y="544" type="line"/>
			<point x="366.318" y="533.011"/>
			<point x="381.636" y="522.022"/>
			<point x="397" y="511" type="curve"/>
			<point x="430.633" y="539.971"/>
			<point x="464.266" y="568.942"/>
			<point x="498" y="598" type="curve" smooth="yes"/>
			<point x="507" y="606"/>
			<point x="524" y="620"/>
			<point x="524" y="645" type="curve" smooth="yes"/>
			<point x="524" y="681"/>
			<point x="486" y="711"/>
			<point x="454" y="711" type="curve" smooth="yes"/>
			<point x="416" y="711"/>
			<point x="402" y="676"/>
			<point x="398" y="665" type="curve" smooth="yes"/>
		</contour>
	</outline>
</glyph>
<glyph name="Sigma" format="2">
  <advance width="884"/>
  <unicode hex="03A3"/>
  <outline>
    <contour>
      <point x="510" y="322" type="line" smooth="yes"/>
      <point x="520" y="331"/>
      <point x="524" y="334"/>
      <point x="524" y="343" type="curve" smooth="yes"/>
      <point x="524" y="346"/>
      <point x="523" y="352"/>
      <point x="514" y="363" type="curve" smooth="yes"/>
      <point x="277" y="634" type="line"/>
      <point x="489" y="634" type="line" smooth="yes"/>
      <point x="632" y="634"/>
      <point x="735" y="615"/>
      <point x="760" y="443" type="curve"/>
      <point x="816" y="443" type="line"/>
      <point x="783" y="686" type="line"/>
      <point x="103" y="686" type="line" smooth="yes"/>
      <point x="84" y="686"/>
      <point x="68" y="686"/>
      <point x="68" y="660" type="curve" smooth="yes"/>
      <point x="68" y="647"/>
      <point x="69" y="646"/>
      <point x="78" y="636" type="curve" smooth="yes"/>
      <point x="376" y="294" type="line"/>
      <point x="82" y="42" type="line" smooth="yes"/>
      <point x="72" y="33"/>
      <point x="68" y="30"/>
      <point x="68" y="21" type="curve" smooth="yes"/>
      <point x="68" y="0"/>
      <point x="89" y="0"/>
      <point x="103" y="0" type="curve" smooth="yes"/>
      <point x="783" y="0" type="line"/>
      <point x="816" y="262" type="line"/>
      <point x="760" y="262" type="line"/>
      <point x="737" y="88"/>
      <point x="629" y="71"/>
      <point x="489" y="71" type="curve" smooth="yes"/>
      <point x="217" y="71" type="line"/>
    </contour>
  </outline>
</glyph>
<glyph name="endash" format="2">
	<unicode hex="2013"/>
	<advance width="1224"/>
	<outline>
		<contour>
			<point x="1224" y="506" type="line"/>
			<point x="1224" y="590" type="line"/>
			<point x="0" y="590" type="line"/>
			<point x="0" y="506" type="line"/>
		</contour>
	</outline>
</glyph>
<glyph name="emdash" format="2">
	<unicode hex="2014"/>
	<advance width="2450"/>
	<outline>
		<contour>
			<point x="2448" y="506" type="line"/>
			<point x="2448" y="590" type="line"/>
			<point x="0" y="590" type="line"/>
			<point x="0" y="506" type="line"/>
		</contour>
	</outline>
</glyph>
<glyph name="quoteleft" format="2">
	<unicode hex="2018"/>
	<advance width="680"/>
	<outline>
		<contour>
			<point x="340" y="680" type="curve" smooth="yes"/>
			<point x="442" y="680"/>
			<point x="500" y="758"/>
			<point x="500" y="840" type="curve" smooth="yes"/>
			<point x="500" y="922"/>
			<point x="444" y="1000"/>
			<point x="340" y="1000" type="curve" smooth="yes"/>
			<point x="292" y="1000"/>
			<point x="254" y="982"/>
			<point x="232" y="962" type="curve"/>
			<point x="242" y="1106"/>
			<point x="308" y="1220"/>
			<point x="420" y="1306" type="curve"/>
			<point x="438" y="1318"/>
			<point x="448" y="1326"/>
			<point x="448" y="1344" type="curve" smooth="yes"/>
			<point x="448" y="1364"/>
			<point x="424" y="1388"/>
			<point x="404" y="1388" type="curve" smooth="yes"/>
			<point x="368" y="1388"/>
			<point x="146" y="1218"/>
			<point x="146" y="934" type="curve" smooth="yes"/>
			<point x="146" y="790"/>
			<point x="228" y="680"/>
		</contour>
	</outline>
</glyph>
<glyph name="quoteright" format="2">
	<unicode hex="2019"/>
	<advance width="680"/>
	<outline>
		<contour>
			<point x="276" y="680" type="curve" smooth="yes"/>
			<point x="312" y="680"/>
			<point x="534" y="850"/>
			<point x="534" y="1134" type="curve" smooth="yes"/>
			<point x="534" y="1278"/>
			<point x="452" y="1388"/>
			<point x="340" y="1388" type="curve" smooth="yes"/>
			<point x="238" y="1388"/>
			<point x="180" y="1310"/>
			<point x="180" y="1228" type="curve" smooth="yes"/>
			<point x="180" y="1146"/>
			<point x="236" y="1068"/>
			<point x="340" y="1068" type="curve" smooth="yes"/>
			<point x="388" y="1068"/>
			<point x="426" y="1086"/>
			<point x="448" y="1106" type="curve"/>
			<point x="438" y="962"/>
			<point x="372" y="848"/>
			<point x="260" y="762" type="curve"/>
			<point x="242" y="750"/>
			<point x="232" y="742"/>
			<point x="232" y="724" type="curve" smooth="yes"/>
			<point x="232" y="704"/>
			<point x="256" y="680"/>
		</contour>
	</outline>
</glyph>
<glyph name="quotedblleft" format="2">
	<unicode hex="201C"/>
	<advance width="1272"/>
	<outline>
		<contour>
			<point x="504" y="680" type="curve" smooth="yes"/>
			<point x="606" y="680"/>
			<point x="664" y="758"/>
			<point x="664" y="840" type="curve" smooth="yes"/>
			<point x="664" y="922"/>
			<point x="608" y="1000"/>
			<point x="504" y="1000" type="curve" smooth="yes"/>
			<point x="456" y="1000"/>
			<point x="418" y="982"/>
			<point x="396" y="962" type="curve"/>
			<point x="406" y="1106"/>
			<point x="472" y="1220"/>
			<point x="584" y="1306" type="curve"/>
			<point x="602" y="1318"/>
			<point x="612" y="1326"/>
			<point x="612" y="1344" type="curve" smooth="yes"/>
			<point x="612" y="1364"/>
			<point x="588" y="1388"/>
			<point x="568" y="1388" type="curve" smooth="yes"/>
			<point x="532" y="1388"/>
			<point x="310" y="1218"/>
			<point x="310" y="934" type="curve" smooth="yes"/>
			<point x="310" y="790"/>
			<point x="392" y="680"/>
		</contour>
		<contour>
			<point x="1028" y="680" type="curve" smooth="yes"/>
			<point x="1130" y="680"/>
			<point x="1188" y="758"/>
			<point x="1188" y="840" type="curve" smooth="yes"/>
			<point x="1188" y="922"/>
			<point x="1132" y="1000"/>
			<point x="1028" y="1000" type="curve" smooth="yes"/>
			<point x="980" y="1000"/>
			<point x="942" y="982"/>
			<point x="920" y="962" type="curve"/>
			<point x="930" y="1106"/>
			<point x="996" y="1220"/>
			<point x="1108" y="1306" type="curve"/>
			<point x="1126" y="1318"/>
			<point x="1136" y="1326"/>
			<point x="1136" y="1344" type="curve" smooth="yes"/>
			<point x="1136" y="1364"/>
			<point x="1112" y="1388"/>
			<point x="1092" y="1388" type="curve" smooth="yes"/>
			<point x="1056" y="1388"/>
			<point x="834" y="1218"/>
			<point x="834" y="934" type="curve" smooth="yes"/>
			<point x="834" y="790"/>
			<point x="916" y="680"/>
		</contour>
	</outline>
</glyph>
<glyph name="quotedblright" format="2">
	<unicode hex="201D"/>
	<advance width="1272"/>
	<outline>
		<contour>
			<point x="178" y="680" type="curve" smooth="yes"/>
			<point x="214" y="680"/>
			<point x="436" y="850"/>
			<point x="436" y="1134" type="curve" smooth="yes"/>
			<point x="436" y="1278"/>
			<point x="354" y="1388"/>
			<point x="242" y="1388" type="curve" smooth="yes"/>
			<point x="140" y="1388"/>
			<point x="82" y="1310"/>
			<point x="82" y="1228" type="curve" smooth="yes"/>
			<point x="82" y="1146"/>
			<point x="138" y="1068"/>
			<point x="242" y="1068" type="curve" smooth="yes"/>
			<point x="290" y="1068"/>
			<point x="328" y="1086"/>
			<point x="350" y="1106" type="curve"/>
			<point x="340" y="962"/>
			<point x="274" y="848"/>
			<point x="162" y="762" type="curve"/>
			<point x="144" y="750"/>
			<point x="134" y="742"/>
			<point x="134" y="724" type="curve" smooth="yes"/>
			<point x="134" y="704"/>
			<point x="158" y="680"/>
		</contour>
		<contour>
			<point x="702" y="680" type="curve" smooth="yes"/>
			<point x="738" y="680"/>
			<point x="960" y="850"/>
			<point x="960" y="1134" type="curve" smooth="yes"/>
			<point x="960" y="1278"/>
			<point x="878" y="1388"/>
			<point x="766" y="1388" type="curve" smooth="yes"/>
			<point x="664" y="1388"/>
			<point x="606" y="1310"/>
			<point x="606" y="1228" type="curve" smooth="yes"/>
			<point x="606" y="1146"/>
			<point x="662" y="1068"/>
			<point x="766" y="1068" type="curve" smooth="yes"/>
			<point x="814" y="1068"/>
			<point x="852" y="1086"/>
			<point x="874" y="1106" type="curve"/>
			<point x="864" y="962"/>
			<point x="798" y="848"/>
			<point x="686" y="762" type="curve"/>
			<point x="668" y="750"/>
			<point x="658" y="742"/>
			<point x="658" y="724" type="curve" smooth="yes"/>
			<point x="658" y="704"/>
			<point x="682" y="680"/>
		</contour>
	</outline>
</glyph>
<glyph name="a.alt" format="2">
	<advance width="1190"/>
	<outline>
		<contour>
			<point x="70" y="224" type="curve" smooth="yes"/>
			<point x="70" y="54"/>
			<point x="262" y="-14"/>
			<point x="480" y="-14" type="curve" smooth="yes"/>
			<point x="686" y="-14"/>
			<point x="772" y="96"/>
			<point x="798" y="136" type="curve"/>
			<point x="798" y="76"/>
			<point x="820" y="0"/>
			<point x="1014" y="0" type="curve" smooth="yes"/>
			<point x="1049" y="0"/>
			<point x="1085" y="0"/>
			<point x="1120" y="0" type="curve" smooth="yes"/>
			<point x="1158" y="0"/>
			<point x="1188" y="0"/>
			<point x="1188" y="52" type="curve" smooth="yes"/>
			<point x="1188" y="104"/>
			<point x="1156" y="104"/>
			<point x="1128" y="104" type="curve" smooth="yes"/>
			<point x="1004" y="104"/>
			<point x="1004" y="124"/>
			<point x="1004" y="170" type="curve" smooth="yes"/>
			<point x="1004" y="592" type="line" smooth="yes"/>
			<point x="1004" y="696"/>
			<point x="956" y="786"/>
			<point x="852" y="844" type="curve" smooth="yes"/>
			<point x="776" y="886"/>
			<point x="671" y="910"/>
			<point x="534" y="910" type="curve" smooth="yes"/>
			<point x="436" y="910"/>
			<point x="150" y="910"/>
			<point x="150" y="712" type="curve" smooth="yes"/>
			<point x="150" y="624"/>
			<point x="218" y="576"/>
			<point x="284" y="576" type="curve" smooth="yes"/>
			<point x="364" y="576"/>
			<point x="420" y="634"/>
			<point x="420" y="710" type="curve" smooth="yes"/>
			<point x="420" y="774"/>
			<point x="380" y="810"/>
			<point x="378" y="812" type="curve"/>
			<point x="394" y="816"/>
			<point x="452" y="826"/>
			<point x="530" y="826" type="curve" smooth="yes"/>
			<point x="690" y="826"/>
			<point x="760" y="738"/>
			<point x="760" y="594" type="curve" smooth="yes"/>
			<point x="760" y="536" type="line"/>
			<point x="648" y="535"/>
			<point x="523" y="526"/>
			<point x="411" y="501" type="curve" smooth="yes"/>
			<point x="223" y="460"/>
			<point x="70" y="377"/>
		</contour>
		<contour>
			<point x="760" y="274" type="line" smooth="yes"/>
			<point x="760" y="192"/>
			<point x="721" y="143"/>
			<point x="674" y="113" type="curve" smooth="yes"/>
			<point x="604" y="70"/>
			<point x="517" y="70"/>
			<point x="512" y="70" type="curve" smooth="yes"/>
			<point x="408" y="70"/>
			<point x="314" y="132"/>
			<point x="314" y="228" type="curve" smooth="yes"/>
			<point x="314" y="368"/>
			<point x="500" y="454"/>
			<point x="760" y="460" type="curve"/>
		</contour>
	</outline>
</glyph>
<glyph name="dotlessj" format="2">
	<advance width="748"/>
	<outline>
		<contour>
			<point x="342" y="704" type="curve" smooth="yes"/>
			<point x="342" y="-78" type="line" smooth="yes"/>
			<point x="342" y="-188"/>
			<point x="302" y="-318"/>
			<point x="184" y="-318" type="curve" smooth="yes"/>
			<point x="174" y="-318"/>
			<point x="114" y="-314"/>
			<point x="114" y="-306" type="curve"/>
			<point x="120" y="-298"/>
			<point x="152" y="-262"/>
			<point x="152" y="-206" type="curve" smooth="yes"/>
			<point x="152" y="-128"/>
			<point x="94" y="-72"/>
			<point x="18" y="-72" type="curve" smooth="yes"/>
			<point x="-62" y="-72"/>
			<point x="-118" y="-128"/>
			<point x="-118" y="-208" type="curve" smooth="yes"/>
			<point x="-118" y="-334"/>
			<point x="14" y="-402"/>
			<point x="188" y="-402" type="curve" smooth="yes"/>
			<point x="364" y="-402"/>
			<point x="574" y="-302"/>
			<point x="574" y="-76" type="curve" smooth="yes"/>
			<point x="574" y="902" type="line"/>
			<point x="196" y="886" type="line"/>
			<point x="196" y="782" type="line"/>
			<point x="336" y="782"/>
			<point x="342" y="774"/>
		</contour>
	</outline>
</glyph>
<glyph name="ff" format="2">
	<advance width="714"/>
	<outline>
		<contour>
			<point x="568" y="392" type="line"/>
			<point x="691" y="392" type="line"/>
			<point x="691" y="444" type="line"/>
			<point x="562" y="444" type="line"/>
			<point x="562" y="542" type="line" smooth="yes"/>
			<point x="562" y="601"/>
			<point x="590" y="659"/>
			<point x="668" y="659" type="curve" smooth="yes"/>
			<point x="671" y="659"/>
			<point x="681" y="659"/>
			<point x="681" y="657" type="curve"/>
			<point x="668" y="640"/>
			<point x="663" y="628"/>
			<point x="663" y="609" type="curve" smooth="yes"/>
			<point x="663" y="565"/>
			<point x="698" y="543"/>
			<point x="729" y="543" type="curve" smooth="yes"/>
			<point x="759" y="543"/>
			<point x="795" y="565"/>
			<point x="795" y="609" type="curve" smooth="yes"/>
			<point x="795" y="656"/>
			<point x="753" y="701"/>
			<point x="671" y="701" type="curve" smooth="yes"/>
			<point x="639" y="701"/>
			<point x="577" y="697"/>
			<point x="525" y="666" type="curve"/>
			<point x="479" y="701"/>
			<point x="412" y="701"/>
			<point x="394" y="701" type="curve" smooth="yes"/>
			<point x="267" y="701"/>
			<point x="112" y="664"/>
			<point x="112" y="540" type="curve" smooth="yes"/>
			<point x="112" y="444" type="line"/>
			<point x="33" y="444" type="line"/>
			<point x="33" y="392" type="line"/>
			<point x="112" y="392" type="line"/>
			<point x="112" y="52" type="line"/>
			<point x="90.022" y="52"/>
			<point x="68.044" y="52"/>
			<point x="46" y="52" type="curve"/>
			<point x="46" y="0" type="line"/>
			<point x="104" y="3"/>
			<point x="114" y="3"/>
			<point x="170" y="3" type="curve" smooth="yes"/>
			<point x="226" y="3"/>
			<point x="236" y="3"/>
			<point x="294" y="0" type="curve"/>
			<point x="294" y="52" type="line"/>
			<point x="272.022" y="52"/>
			<point x="250.044" y="52"/>
			<point x="228" y="52" type="curve"/>
			<point x="228" y="392" type="line"/>
			<point x="452" y="392" type="line"/>
			<point x="452" y="52" type="line"/>
			<point x="430.022" y="52"/>
			<point x="408.044" y="52"/>
			<point x="386" y="52" type="curve"/>
			<point x="386" y="0" type="line"/>
			<point x="444" y="3"/>
			<point x="454" y="3"/>
			<point x="514" y="3" type="curve" smooth="yes"/>
			<point x="571" y="3"/>
			<point x="573" y="3"/>
			<point x="650" y="0" type="curve"/>
			<point x="650" y="52" type="line"/>
			<point x="650" y="52" type="line"/>
			<point x="622.694" y="52"/>
			<point x="595.388" y="52"/>
			<point x="568" y="52" type="curve"/>
		</contour>
		<contour>
			<point x="222" y="444" type="line"/>
			<point x="222" y="539" type="line" smooth="yes"/>
			<point x="222" y="624"/>
			<point x="295" y="659"/>
			<point x="388" y="659" type="curve" smooth="yes"/>
			<point x="404" y="659"/>
			<point x="426" y="658"/>
			<point x="451" y="650" type="curve"/>
			<point x="434" y="638"/>
			<point x="426" y="617"/>
			<point x="426" y="596" type="curve" smooth="yes"/>
			<point x="426" y="575"/>
			<point x="435" y="555"/>
			<point x="452" y="543" type="curve"/>
			<point x="452" y="543"/>
			<point x="452" y="543"/>
			<point x="452" y="543" type="curve"/>
			<point x="452" y="444" type="line"/>
		</contour>
	</outline>
</glyph>
<glyph name="ffi" format="2">
	<advance width="2040"/>
	<outline>
		<contour>
			<point x="786" y="1402" type="curve" smooth="yes"/>
			<point x="544" y="1402"/>
			<point x="224" y="1332"/>
			<point x="224" y="1080" type="curve" smooth="yes"/>
			<point x="224" y="1016"/>
			<point x="224" y="952"/>
			<point x="224" y="888" type="curve"/>
			<point x="171" y="888"/>
			<point x="119" y="888"/>
			<point x="66" y="888" type="curve"/>
			<point x="66" y="853"/>
			<point x="66" y="819"/>
			<point x="66" y="784" type="curve"/>
			<point x="119" y="784"/>
			<point x="171" y="784"/>
			<point x="224" y="784" type="curve"/>
			<point x="224" y="558"/>
			<point x="224" y="331"/>
			<point x="224" y="104" type="curve"/>
			<point x="180" y="104"/>
			<point x="136" y="104"/>
			<point x="92" y="104" type="curve"/>
			<point x="92" y="69"/>
			<point x="92" y="35"/>
			<point x="92" y="0" type="curve"/>
			<point x="208" y="6"/>
			<point x="228" y="6"/>
			<point x="340" y="6" type="curve" smooth="yes"/>
			<point x="452" y="6"/>
			<point x="472" y="6"/>
			<point x="588" y="0" type="curve"/>
			<point x="588" y="35"/>
			<point x="588" y="69"/>
			<point x="588" y="104" type="curve"/>
			<point x="544" y="104"/>
			<point x="500" y="104"/>
			<point x="456" y="104" type="curve"/>
			<point x="456" y="330"/>
			<point x="456" y="557"/>
			<point x="456" y="784" type="curve"/>
			<point x="605" y="784"/>
			<point x="754" y="784"/>
			<point x="904" y="784" type="curve"/>
			<point x="904" y="558"/>
			<point x="904" y="331"/>
			<point x="904" y="104" type="curve"/>
			<point x="860" y="104"/>
			<point x="816" y="104"/>
			<point x="772" y="104" type="curve"/>
			<point x="772" y="69"/>
			<point x="772" y="35"/>
			<point x="772" y="0" type="curve"/>
			<point x="888" y="6"/>
			<point x="908" y="6"/>
			<point x="1020" y="6" type="curve" smooth="yes"/>
			<point x="1132" y="6"/>
			<point x="1152" y="6"/>
			<point x="1268" y="0" type="curve"/>
			<point x="1268" y="35"/>
			<point x="1268" y="69"/>
			<point x="1268" y="104" type="curve"/>
			<point x="1224" y="104"/>
			<point x="1180" y="104"/>
			<point x="1136" y="104" type="curve"/>
			<point x="1136" y="330"/>
			<point x="1136" y="557"/>
			<point x="1136" y="784" type="curve"/>
			<point x="1265" y="784"/>
			<point x="1393" y="784"/>
			<point x="1522" y="784" type="curve" smooth="yes"/>
			<point x="1572" y="784"/>
			<point x="1584" y="784"/>
			<point x="1584" y="714" type="curve" smooth="yes"/>
			<point x="1584" y="511"/>
			<point x="1584" y="308"/>
			<point x="1584" y="104" type="curve"/>
			<point x="1540" y="104"/>
			<point x="1496" y="104"/>
			<point x="1452" y="104" type="curve"/>
			<point x="1452" y="69"/>
			<point x="1452" y="35"/>
			<point x="1452" y="0" type="curve"/>
			<point x="1568" y="6"/>
			<point x="1588" y="6"/>
			<point x="1700" y="6" type="curve" smooth="yes"/>
			<point x="1812" y="6"/>
			<point x="1832" y="6"/>
			<point x="1948" y="0" type="curve"/>
			<point x="1948" y="35"/>
			<point x="1948" y="69"/>
			<point x="1948" y="104" type="curve"/>
			<point x="1904" y="104"/>
			<point x="1860" y="104"/>
			<point x="1816" y="104" type="curve"/>
			<point x="1816" y="372"/>
			<point x="1816" y="639"/>
			<point x="1816" y="908" type="curve"/>
			<point x="1695" y="901"/>
			<point x="1574" y="895"/>
			<point x="1452" y="888" type="curve"/>
			<point x="1124" y="888" type="line"/>
			<point x="1124" y="951"/>
			<point x="1124" y="1015"/>
			<point x="1124" y="1078" type="curve" smooth="yes"/>
			<point x="1124" y="1262"/>
			<point x="1302" y="1318"/>
			<point x="1462" y="1318" type="curve" smooth="yes"/>
			<point x="1510" y="1318"/>
			<point x="1554" y="1314"/>
			<point x="1608" y="1286" type="curve"/>
			<point x="1558" y="1262"/>
			<point x="1532" y="1216"/>
			<point x="1532" y="1160" type="curve" smooth="yes"/>
			<point x="1532" y="1078"/>
			<point x="1590" y="1022"/>
			<point x="1670" y="1022" type="curve" smooth="yes"/>
			<point x="1752" y="1022"/>
			<point x="1808" y="1080"/>
			<point x="1808" y="1160" type="curve" smooth="yes"/>
			<point x="1808" y="1280"/>
			<point x="1702" y="1402"/>
			<point x="1474" y="1402" type="curve" smooth="yes"/>
			<point x="1294" y="1402"/>
			<point x="1160" y="1372"/>
			<point x="1050" y="1312" type="curve"/>
			<point x="958" y="1402"/>
			<point x="830" y="1402"/>
		</contour>
		<contour>
			<point x="444" y="888" type="line"/>
			<point x="444" y="951"/>
			<point x="444" y="1015"/>
			<point x="444" y="1078" type="curve" smooth="yes"/>
			<point x="444" y="1252"/>
			<point x="598" y="1318"/>
			<point x="776" y="1318" type="curve" smooth="yes"/>
			<point x="796" y="1318"/>
			<point x="854" y="1318"/>
			<point x="918" y="1288" type="curve"/>
			<point x="886" y="1272"/>
			<point x="838" y="1232"/>
			<point x="838" y="1160" type="curve" smooth="yes"/>
			<point x="838" y="1144"/>
			<point x="842" y="1078"/>
			<point x="904" y="1042" type="curve"/>
			<point x="904" y="1042"/>
			<point x="904" y="1042"/>
			<point x="904" y="1042" type="curve"/>
			<point x="904" y="888" type="line"/>
		</contour>
	</outline>
</glyph>
